<?xml version="1.0" encoding="UTF-8" standalone="no"?>
<svg width="338" xmlns="http://www.w3.org/2000/svg" fill="none" viewBox="0 0 338 254" height="254">
 <g fill-rule="evenodd" clip-rule="evenodd" clip-path="url(#clip0)">
  <path fill="#FFF98C" d="m262.41 37.262c0.12 1.034 1.4 0.244 1.52 0.805 0.08 0.352-1.24 1.226-1.52 1.467 0.91 0.555 2.09-0.724 2.78-1.26 0.35 0.386 0.47 0.589 0.15 1.031-0.58 0.779-0.55-0.254-1.24 0.289 0.29 0.479 0.54 0.204 0.9 0.075-0.16 0.923 0.2 0.339 0.47 0.923 0.23 0.476 0.2 0.827 0.27 1.358-0.33 0.747-0.65 1.495-0.98 2.242-0.39 0.9-0.27 1.189-1.23 0.888 0.11-0.186 0.82-1.099 0.77-1.323-0.07-0.256-1.05-0.611-1.31-0.826-0.45-0.379-0.45-0.703-0.73-1.11 0.11-0.379 0.02-0.555-0.27-0.53l-0.33 0.877c0.03 0.622 0.55 0.564 0.86 1.158 0.48 0.909 0.21 0.373-0.18 1.104-0.38 0.72-0.42 1.637-1.04 1.999 0.33 0.148 0.67 0.295 1 0.443-0.78 0.862 0.85 0.442 1.12 0.359-0.28 0.587-0.55 1.174-0.83 1.761-0.83-0.464-1.23-1.343-1.78-2.069l-1.26 2.343c0.42-0.039 0.83-0.078 1.25-0.116-0.06 0.11-0.59 0.865-0.55 1.033 0.19 0.685 1.61 0.299 1.45 1.195-0.02 0.115-1.29 1.4-1.51 1.524 0.64 0.288 0.93 0.168 0.7 0.924l-0.89-0.539c-0.25 0.455-0.54 0.899-0.71 1.397 0.03 0.326-0.02 0.634-0.17 0.926-0.18 0.261-0.37 0.504-0.59 0.73-0.17 0.458-0.23 2.958-0.02 3.366 0.47-0.604 1.51 0.462-0.25 0.462-0.77 0-0.72-0.16-1.02 0.518-0.23 0.534-0.35 1 0.3 1.052-0.49 0.975-0.38 1.726-0.43 2.766-0.04 0.842-0.27 1.679-0.45 2.505 0.16-0.225 0.32-0.45 0.47-0.675 0.43 0.901 0.1 1.659-0.1 2.623-0.43-0.579-0.49 0.455-0.86 0.348-0.77-0.219-0.19-0.379-0.5-0.881-0.27-0.435-0.25-0.559-0.74-0.825-0.66-0.352-1.82-0.365-2.56-0.49-1.26-0.209-2.51-0.262-3.78-0.317-4.75-0.207-9.49-0.26-14.23 0.002-4.37 0.241-8.85 0.855-13.13 1.686-4.57 0.885-9.03 1.701-13.44 3.199-0.86 0.289-1.71 0.893-2.57 1.105-0.81 0.201-1.62 0.198-2.46 0.492-2.02 0.703-4.11 1.236-6.15 1.907-2.19 0.724-4.57 1.327-6.66 2.328-0.91 0.435-1.73 1.025-2.64 1.465-0.85 0.415-2.29 0.794-2.74 1.752-0.17 0.374-0.14 0.645-0.03 1.032 0.22 0.778 0.39 0.694 0.98 0.641 0.83-0.073 1.9-0.719 2.71-0.973 2.2-0.696 4.43-1.252 6.67-1.809 4.02-1.001 8.06-2.772 12.03-3.465 2.35-0.411 4.58-1.528 6.95-1.95 0.52-0.092 2.02-0.835 2.45-0.578 0.11 0.068 0.39 0.883 0.48 1.078 0.35 0.699 0.75 1.375 1.22 2.002 1.42 1.89 3.31 3.412 5.01 5.04 1.93 1.86 3.61 3.913 5.4 5.91 0.16-0.181 0.31-0.361 0.46-0.541-0.16 1.261 0.78 2.171 1.56 3.027 0.91 1.017 1.64 1.973 2.37 3.133 0.59 0.951 1.35 1.784 2.01 2.651 0.66 0.852 1.1 1.881 1.7 2.8 1.39 2.114 2.76 4.264 4.16 6.344 0.66 0.98 1.18 2.08 1.7 3.2 0.42 0.88 1.66 2.69 1.66 3.55-0.09 0.42 0.82 2.95-0.15 1.76-0.15 0.24-0.31 0.48-0.47 0.72 0.27-0.11 0.54-0.22 0.8-0.33-0.8 0.73 0.7 0.83 0.74 1.23-0.14 0.14-0.27 0.26-0.4 0.4-0.24 0.47-0.53 0.53-0.9 0.18-0.41 0.02-0.49-0.2-0.94-0.05 0.43 0.67 0.99 0.25 1.21 1.18 0.19 0.82-0.42 1-1.06 1.48l-0.04 0.03-0.02 0.05c-0.14 0.42-0.54 0.24-0.98 0.15-1.06-0.22-2.23-0.64-3.26-0.96-2.23-0.7-4.48-1.28-6.79-1.76-5.26-1.09-10.48-1.04-15.78-1.38 0.14-0.58 0.14-0.53-0.03-0.89 0.21 0.46-1.07-0.15-0.1 0.88-2.47 0.4-5.13 0.1-7.64 0.23 0.12-0.26 0.39-0.56 0.14-0.74-1.19 1.71-5.15 0.98-7.1 1.22-1.15 0.15-2.29 0.42-3.43 0.6l-0.48 0.08c-0.41 0.06-0.81 0.14-1.2 0.24-0.51 0.14-1.35 0.7-1.83 0.57 0.7-1.42-0.11-0.19-0.22-0.17-0.33 0.04-0.9 0.16-1.38 0.16 0.54-2.2 1.48-4.22 1.86-6.49 0.23-1.41 0.88-3.68-0.51-4.68-0.77-0.55-2.02-0.66-2.9-0.85-0.97-0.2-2.66-0.2-3.5-0.74-0.66-0.43-0.8-0.82-1.66-1.15-0.99-0.38-1.45-0.75-2.45-0.45 0.41-0.51 0.98-0.89 0.18-1.41-0.33-0.21-0.98 0.07-1.09-0.39-0.6 0.42-0.46 0.76-0.61 1.33 0.01 0.25 0.07 0.48 0.19 0.7-0.32 0.13-0.63 0.26-0.94 0.38 0.2-0.54-0.39-0.21-0.51-0.48-0.17-0.39-0.07-1-0.07-1.43-0.65 0.21-1.33 0.46-1.61 1.14-0.8-0.48-0.48-0.51-0.07-1.22-0.67-0.16-0.81 0.18-0.91 0.74-0.35-0.11-0.71-0.22-1.06-0.33 0.79-0.01 0.98-0.63 1-1.3-0.31 0.1-0.61 0.2-0.92 0.3-0.07 0.33-0.13 0.65-0.19 0.98-0.49 0.41-1.75-0.33-2.16-0.55-1.44-0.74-1.96-0.954-1.76-2.642 0.17-1.416 0.54-2.838 0.63-4.261 0.09-1.581-0.09-3.271-0.23-4.847-0.27-3.049-0.7-6.054-0.85-9.115-0.09-1.658-0.18-3.316-0.24-4.974-0.05-1.319-0.51-2.769 1.13-2.886-0.2-0.638 0.4-1.377 1.03-1.726 0.21-0.495 0.45-0.54 0.71-0.133 0.22 0.071 0.43 0.038 0.62-0.099 0.9-0.206 1.99-1.491 2.8-1.954 0.8-0.454 2.53-1.114 3.1-1.879 0.55-0.74-0.28-0.656-0.12-1.334 0.23-0.927 1.07 0.404 1.2 0.589 0.28-0.281 1.34-0.807 1.33-1.215-0.26-0.047-0.52-0.094-0.78-0.14 0.28-0.165 0.91-0.658 1.25-0.723 0.56-0.111 0.35-0.254 0.8 0.369 0.16-0.245 0.54-1.047 0.78-1.209 0.11-0.078 0.79-0.129 0.93-0.18 0.74-0.261 0.67-0.837 1.21-1.111 0.26-0.132 0.59 0.071 0.81-0.025 0.35-0.155 0.35-0.683 0.67-0.875 0.28-0.166 0.98-0.028 1.32-0.149 0.54-0.2 0.52-0.387 0.93-0.754 0.57-0.513 1.1-0.439 1.74-0.828 0.66-0.404 0.56-1.312 1.16-1.485 0.81-0.232 1.01 0.53 1.45-0.222 0.1-0.169-0.35-0.422-0.07-0.693 0.35-0.334 0.49 0.064 0.65 0.324l0.54-1.031c0.88 0.48 0.51-0.139 1.18-0.468 0.29-0.146 0.54 0.142 0.86-0.034 0.24-0.13 0.28-0.412 0.45-0.587 0.33-0.337 0.51-0.799 1.02-0.959-0.18 0.058 1.33 0.014 1.2-0.05-0.15-0.217-0.3-0.433-0.45-0.649 0.8 0 1.49 0.078 2.25-0.16 0.27-0.084 0.7-0.213 0.92-0.386 0.62-0.475 0.48-0.359 0.48-1.231 0.86 0.545 1.94 0.355 2.79-0.277 0.44-0.33 0.72-0.725 1.2-1.023 0.21-0.108 0.42-0.208 0.64-0.302 0.26-0.278 0.53-0.28 0.8-0.007 0.38-0.103 0.38-0.173 0.67-0.358 0.09-0.167 0.17-0.332 0.27-0.493 0.32-0.033 0.63-0.09 0.94-0.171 1.19-0.322 1.91-1.121 3.02-0.413 0.14-0.29 0.28-0.579 0.42-0.869 0.48 0.738 0.8 0.033 1.42-0.266 0.27-0.125 0.61-0.156 0.84-0.271l0.41 0.095c0.11-0.35 0.22-0.701 0.33-1.051 0.23 0.088 1.14 0.575 1.41 0.549 0.39-0.037 0.85-0.697 1.23-0.822 0.58-0.19 0.37 0.061 0.94 0.065 0.43 0.004 0.64 0.065 1.01-0.3-1.27-0.331 0.33-0.487 0.87-0.598 0.83-0.174 1.26 0.012 1.84-0.648h-0.6c0.59-0.541 0.39-0.35 1.02-0.297 0.19 0.016 1.05 0.487 1.05-0.141 0.81 0.476 0.82 0.477 1.65 0.262 0.37-0.095 0.68-0.405 1.09-0.412 0.39-0.007 0.67 0.172 1.03 0.134 0.21-0.023 0.95-0.3 1.2-0.391 0.39-0.145 0.65-0.453 1.03-0.573 0.42-0.132 0.95 0.025 1.39-0.071 1.3-0.287 2.06-1.068 3.47-0.645 0.15-1.264 1.72-0.983 2.57-0.852 0.59 0.09 0.89 0.329 1.5 0.04 0.49-0.235 0.78-0.608 1.33-0.796 0.42-0.144 0.99-0.249 1.43-0.341 0.28-0.087 0.56-0.114 0.84-0.083 0.29 0.04 0.53 0.166 0.72 0.375l0.04 0.041c0.04-0.104 0.71-0.599 0.64-0.538 0.49-0.399 0.73-0.247 1.03-1.024l-1.06-0.225c0.55-0.037 0.96-0.101 1.45 0.113 0.33 0.148 0.9 0.931 1.24 0.932 0.61 0.001 0.82-0.863 0.76-1.312 0.52 1.197 0.96 1.397 2.11 0.784 0.13-0.072 0.27-0.143 0.41-0.216 0.27-0.288 0.54-0.282 0.81 0.017l0.49 0.263c0.19-0.323 0.38-0.646 0.58-0.969 0.41 0.568 0.8 0.596 1.47 0.463 0.46-0.092 1.41-0.931 1.75-0.931 0.2 0 0.45 0.483 0.78 0.577 0.55 0.157 1.4-0.237 1.59-0.761 0.1 0.219 0.21 0.437 0.31 0.656 0.26-0.241 0.52-0.482 0.77-0.725zm-19.58 81.158v0.02l0.02-0.02h-0.02zm-0.67-1.14v1.02l0.34 0.06 0.33 0.06v-0.06c0.02-0.49-0.23-0.85-0.67-1.08zm-30.38-4.05c-0.1 0.33-0.21 0.66-0.32 0.99 0.36 0.03 0.73 0.06 1.09 0.09-0.26-0.36-0.51-0.72-0.77-1.08zm-42.39-26.057c0.79 0.231 0.78 0.203 0.94 0.935 0.9 4.164-1.89 8.939 0.16 12.892-5.99-0.04-11.98 0.08-17.93 0.78 0-2.268 0.07-4.531-0.1-6.794-0.08-1.028-0.2-2.052-0.3-3.077-0.13-1.301-0.09-1.225 0.97-1.449 0.56-0.117 0.76-0.472 1.29-0.688 0.4-0.162 0.58 0.038 0.98 0.093 0.7 0.1 0.71-0.019 1.36-0.157 1.39-0.297 2.57-0.191 3.66-1.23 0.57-0.049 0.39 0.479 0.79 0.427 0.28-0.037 0.47-0.576 0.76-0.705 0.92-0.401 2.44-0.303 3.44-0.429 1.02-0.127 1.93-0.589 2.91-0.726 0.4-0.057 0.69 0.017 1.07 0.128zm11.55 12.018c-0.19 0.72-1.04-0.218-1.05 0.347v0.05-0.013c0.05-0.095 0.9 1.045 0.85 1.005 0.46 0.35 0.73 0.31 1.25-0.08-0.93-0.04-0.83-0.618-1.05-1.309zm2.6 1.019c0.35 0.19 0.45-0.295 0.63-0.588-0.38-0.19-0.44 0.252-0.63 0.588zm-1.05-3.134c0.13 0.467 0.12 0.826 0.12 1.309 0.79-0.112 1.04-0.17 1.05-1.01l-0.42 0.266c-0.22-0.439-0.27-0.473-0.75-0.565zm-6.1 0.782c0.17-0.115 0.35-0.23 0.53-0.345-0.26-0.38-0.73 0.071-0.53 0.345zm1.99-6.986c0.23-0.12 0.46-0.24 0.68-0.36-0.59-0.755-0.63-0.502-0.68 0.36zm-0.82-5.995h-0.9c0.18 0.578 0.9 0.702 0.9 0zm87.83-33.596c0.21 0.12 0.41 0.24 0.62 0.359-0.54 0.486-1.19 0.976-0.67 1.545 0.41 0.452 2.33 0.668 2.91 0.833-0.2 0.23-0.61 0.859-0.89 1.017-0.21 0.126-0.41-0.371-0.84 0.124 0.72 0.375 0.52 0.091 0.34 0.886-0.12 0.469-0.51 0.973-0.73 1.394-0.55 1.025-1.1 2.042-1.67 3.052-1.17 2.071-2.4 4.107-3.69 6.103-0.22-1.128 0.4-2.39 0.73-3.478 0.4-1.368 0.81-2.736 1.22-4.104 0.79-2.635 1.5-5.243 2.67-7.731zm-31.35 3.439c-0.58 0.149-0.97 0.246-1.57 0.4 0.87 0.28 0.87 0.28 1.57-0.4zm25.85-5.08c-0.74 0.349-0.82 0.603-0.22 1.03 0.07-0.332 0.12-0.576 0.22-1.03zm-0.09-8.264c-0.1 0.443-0.73 0.016-0.86 0.341-0.32 0.741 0.69 0.641 1.05 0.596-0.06-0.313-0.13-0.625-0.19-0.937zm4.22-0.563c-0.2 0.948-0.2 0.948 0.72 1.09-0.24-0.365-0.44-0.671-0.72-1.09zm-16.74-0.655v0.01c0 0.004 0 0.007 0.01 0.008h0.01l-0.02-0.018z"/>
  <path fill="#000" d="m130.58 139.47c-0.14 0.73-0.49 1.07-0.12 1.73 0.31 0.56 1.2 0.93 1.8 0.79l-1.68-2.52zm-16.23-25.68l-2.96 1.02c0.81 0.79 1.58 1.63 2.47 2.33l0.49-3.35zm48.74 2.6c-1.41-0.71-2.98-0.79-4.53-0.88 0.24 1.27 0.47 2.54 0.71 3.81 1.27-0.97 2.55-1.95 3.82-2.93zm-33.84 98.39c-0.28-0.5-2.2-4.35-2.6-4.15-0.21 0.1-0.23 2.25-0.26 2.55-0.11 1.09-0.22 2.18-0.33 3.26 1.14-0.4 2.35-0.73 3.19-1.66zm-13.4-31.17c0.29 0.85 0.58 1.71 0.87 2.56 0.14 0.4 0.22 1 0.46 1.36 0.32 0.46 0.08 0.73 0.5 0.23 0.46-0.55 0.59-2 0.79-2.67 0.3-1.02 0.6-2.03 0.9-3.05-1.41-0.01-2.27 1.16-3.52 1.57zm-29.698-50.18c-1.738 1.19-3.497 2.37-5.009 3.85 1.33-0.09 3.182 0.83 4.435 0.4 0.578 0.12 0.769-0.1 0.574-0.66v-3.59zm25.768 8.41v6.95c1.62-1.38 3.32-2.67 4.89-4.13-1.63-0.94-3.27-1.88-4.89-2.82zm57.99 18.01c-0.51 3.09-0.54 6.27-0.68 9.4-0.03 0.56-0.24 1.39 0.13 1.88s1.43 0.76 1.96 1.02c1.51 0.73 3.01 1.49 4.52 2.23-1.98-4.84-3.95-9.69-5.93-14.53zm38.34-19.03c3.72-1.83 7.45-3.66 11.17-5.5l-10.95-4.65c-0.08 3.39-0.15 6.77-0.22 10.15zm-38.35 8.64c0.68 0.05 0.79-2.55 0.9-3.23 0.22-1.31 0.44-2.61 0.66-3.91 0.45-2.61 0.93-5.21 1.43-7.8 0.99-5.19 2.1-10.36 3.32-15.5-1.31-0.24-2.52-0.41-3.8-0.8-1.03-0.3-2.27-0.14-3.19-0.78-0.12 2.41 0.48 4.97 0.7 7.38 0.26 2.79 0.4 5.56 0.38 8.36-0.05 5.43-0.25 10.86-0.4 16.28zm-85.746 73.53c0.645-0.17-0.234-9.04-0.273-10.32-0.112-3.7-0.134-7.41-0.068-11.11-3.478 2.19-7.038 4.2-10.712 6.01 0.944 1.23 1.829 2.55 2.874 3.7 1.077 1.17 2.312 2.14 3.31 3.41 2.009 2.55 3.385 5.44 4.869 8.31zm83.706-52.46c0.16-2.67 0.31-5.33 0.58-7.99 0.11-1.13 1.2-7.14-0.54-7-1 0.08-2.74 1.54-3.65 2.05-1.21 0.67-2.41 1.35-3.62 2.01-2.39 1.31-4.79 2.59-7.19 3.89 4.8 2.35 9.61 4.69 14.42 7.04zm-10.38-55.46c-1.99-0.15-3.92-0.3-5.88-0.67-1.06-0.2-2.12-0.17-3.18-0.31-0.76-0.09-2.25-0.72-2.96-0.52-0.9 0.26-1.22 4.74-1.34 5.87-0.2 1.81-0.33 4.01 0.47 5.71 1.56 3.28 5.75 0.72 7.79-0.66 1.75-1.18 3.74-2.37 5.29-3.8 1.37-1.27 0.14-3.98-0.19-5.62zm10.32 35.68c1.5-0.61 1.48-1.37 1.54-2.95 0.08-1.91 0.13-3.82 0.18-5.73 0.1-3.41 0.19-6.81 0.16-10.22-0.03-3.33-0.19-6.65-0.57-9.96-0.13-1.17 0-3.17-0.61-4.17-0.57-0.91-2.31-0.92-3.26-0.86-1.07 0.06-1.94 1.08-2.73 1.73-0.88 0.71-2.68 1.72-2.82 2.78-0.16 1.19 0.49 2.89 0.74 4.04 0.93 4.22 2.05 8.39 3.24 12.53 1.23 4.3 2.47 8.65 4.13 12.81zm-38.1-10.09c0.09-0.94 0.44-1.73-0.03-2.64-0.41-0.77-1.07-1.55-1.57-2.28-1.43-2.11-3.03-4.12-4.59-6.13-1.43-1.84-2.89-3.66-4.38-5.44-0.83-0.99-1.69-1.97-2.55-2.94-0.62-0.71-1.21-1.72-2.1-2.09-0.65 4.1-1.19 8.22-1.61 12.35-0.2 1.99-0.37 3.99-0.52 5.99-0.04 0.57-0.48 2.48-0.2 3 0.29 0.56 2.09 1.3 2.64 1.63 1.54 0.95 2.73 2.38 4.2 0.82 1.01-1.07 1.82-2.58 2.94-3.52 0.59-0.49 1.14-0.46 1.8-0.75 0.76-0.34 0.79-0.66 1.7-0.2 1.54 0.77 2.48 1.9 4.27 2.2zm-77.092 21.1c0 2.84-0.194 5.17 1.726 7.47 1.678 2.01 3.422 2.47 5.783 3.26 1.39 0.47 1.487 0.04 2.613-0.75 1.07-0.75 2.236-1.35 3.292-2.12 2.275-1.66 4.548-3.38 6.76-5.13 0.743-0.59 0.633-0.39 0.52-1.09-0.103-0.64-0.564-1.46-0.816-2.08-0.455-1.1-0.992-2.17-1.529-3.24-0.609-1.22-1.141-2.53-1.898-3.66-0.314-0.47-0.687-0.9-1.054-1.33-0.772-0.9-0.744-0.86-1.668-0.13-1.949 1.56-3.762 3.24-5.956 4.46-2.595 1.44-5.184 2.89-7.773 4.34zm58.772-21.99c0.28-4.08 0.6-8.13 1.08-12.19 0.26-2.08 0.55-4.16 0.83-6.23 0.12-0.85 0.56-2.27 0.31-3.09-0.24-0.81-1.32-1.58-1.91-2.17-0.16-0.15-0.65-0.82-0.85-0.85-0.23-0.03-1.08 0.59-1.32 0.73-0.86 0.5-1.71 1.02-2.54 1.56-1.58 1.03-3.1 2.12-4.59 3.26-3.128 2.39-6.11 4.95-9.17 7.42 2.804 2.47 6.255 4.38 9.39 6.37 1.85 1.18 3.72 2.35 5.6 3.47 0.96 0.57 2.07 1.44 3.17 1.72zm-38.329 72.87c-2.264 1.5-4.426 3.09-6.986 4.05-2.549 0.96-5.068 1.33-7.703 1.89-1.328 0.29-2.577 0.61-3.933 0.81-0.76 0.11-1.936 0.07-2.629 0.39-0.616-0.13-0.836 0.08-0.658 0.63 0.006 0.17 0.013 0.35 0.019 0.52 0.175 2.39 1.709 5.27 3.048 7.21 0.781 1.14 1.777 2.2 2.766 3.15 1.117 1.08 1.761 1.84 3.318 1.39 2.624-0.77 4.941-2.3 7.601-2.97 2.104-0.54 3.852-1.66 5.904-2.24 2.53-0.71 5.035-1.53 7.6-2.13-1.146-2.21-2.17-4.52-3.638-6.55-1.504-2.08-3.164-4.09-4.709-6.15zm13.885-74.58c4.735 0.94 9.867 1.82 14.104 4.26 1.65 0.96 3.75 2.44 4.24 4.42 0.57 2.36-1.7 3.82-3.6 4.56-2.287 0.88-4.772 1.22-7.19 1.5-1.281 0.15-2.567 0.23-3.853 0.3-1.041 0.06-2.807-0.16-3.759 0.25-0.596-0.12-0.802 0.12-0.619 0.73-0.012 0.21-0.023 0.43-0.033 0.64l-0.099 1.95c-0.066 1.3-0.131 2.6-0.197 3.89-0.143 2.83-0.287 5.66-0.43 8.48 2.48-1.54 4.479-3.74 6.903-5.38 1.152-0.78 2.296-1.57 3.444-2.35 0.481-0.32 0.775-0.78 1.249-1.08 0.628-0.41 1.185-0.65 1.774-1.18 2.41-2.15 5.08-4.02 7.63-6 1.16-0.9 2.43-1.72 3.54-2.69 1.15-1.01 0.99-1.84 0.96-3.29-0.03-1.54 0.54-3.45 0.28-4.93 0.22-0.51 0.05-0.82-0.51-0.94l-1.11-0.72c-0.75-0.47-1.49-0.95-2.23-1.42-2.95-1.89-5.89-3.78-8.841-5.67-1.473-0.94-2.945-1.89-4.418-2.83-0.411-0.26-1.753-1.46-2.214-1.42-0.471 0.04-1.288 0.96-1.641 1.25-0.541 0.45-1.066 0.92-1.651 1.31-0.292 0.21-0.596 0.39-0.913 0.55-0.506 0.05-0.682 0.33-0.528 0.83-0.445 1.43-0.201 3.48-0.288 4.98zm65.654 67.42c-1.07-5.03-2.45-10.97-6.63-14.39-4.24-3.46-10.44-2.13-13.76 1.94-1.66 2.04-2.7 4.45-3.46 6.95-0.78 2.56-1.94 5.9-1.73 8.61 0.09 1.19 1.11 2.46 1.69 3.5 0.6 1.07 1 2.61 2.41 2.23 2.19-0.57 4.41-1.89 6.46-2.84 2.07-0.95 4.26-1.74 6.41-2.66 1.42-0.62 2.9-1.08 4.33-1.7 1.35-0.59 3.13-0.73 4.28-1.64zm63.35-29.92c3 1.08 4.55-0.64 6.65-2.57 2-1.83 4.16-3.59 5.99-5.59 1.9-2.05 3.39-4.47 4.85-6.84 1.47-2.4 3.46-4.98 4.37-7.65 0.46-1.36 0.65-2.86 0.94-4.27 0.07-0.33 0.54-1.59 0.39-1.87-0.2-0.39-1.51-0.43-1.87-0.49-2.85-0.45-5.87-0.48-8.74-0.07-5.53 0.78-10.16 3.89-11.92 9.33-2.05 6.38-1.06 13.47-0.66 20.02zm-19.38-55.32c-0.05 1.1 2.59 1.41 3.28 1.67 1.58 0.59 3.15 1.22 4.69 1.92 3.16 1.45 6.54 2.4 9.57 4.15 6.53 3.78 13.62 6.44 20.22 10.05 1.03 0.57 3.04 1.92 4.21 1.81 0.63-0.06 0.16 0.44 0.57-0.56 0.14-0.35 0.19-0.82 0.27-1.2 0.25-1.15 0.43-2.31 0.71-3.45 0.45-1.88 0.91-3.63 1.1-5.56 0.08-0.82 0.17-1.63 0.18-2.46s0.2-2.93-0.17-3.65c-0.25-0.48-0.3-0.31-0.93-0.45-0.35-0.07-0.73-0.24-1.07-0.34-0.81-0.26-1.62-0.5-2.47-0.57-0.83-0.08-1.37-0.33-2.15-0.48-0.83-0.15-1.67 0.03-2.51-0.18-0.91-0.24-1.34-0.45-2.29-0.36-0.92 0.08-1.18-0.12-2.08-0.37-0.75-0.21-1.64-0.06-2.43-0.13-0.94-0.07-1.88-0.19-2.83-0.27-4.26-0.33-8.57 0.17-12.84 0.13-2.32-0.02-4.59 0.32-6.91 0.21-2.02-0.09-4.11-0.07-6.12 0.09zm11.07 22.48c-2.07 0.8-3.99 2.08-5.91 3.18-2.21 1.28-4.33 2.63-6.38 4.16-3.45 2.57-7.47 5.66-8.38 10.14-0.93 4.61 3.06 8.38 6.8 10.26 4.27 2.15 9.24 3.26 13.91 4.08-0.5-10.6-0.38-21.21-0.04-31.82zm-61.96 24.96c-1.26 0.35-2.32 1.09-3.49 1.64-1.04 0.5-2.05 0.87-3.03 1.5-1.59 1.04-3.43 1.93-5.09 2.73-4.12 1.98-8.11 4.44-12.18 6.64-1.08 0.58-1.43 0.95-1.79 2.15-0.4 1.3-0.77 2.61-1.16 3.92-0.35 1.22-0.92 2.52-0.77 3.8 0.13 1.12 0.7 2.18 1.14 3.2 1.1 2.57 2.29 5.1 3.51 7.6 1.11 2.25 2.11 4.64 3.53 6.71 1.1-5.75 2.08-12.18 6.34-16.56s11.06-4.44 15.16 0.08c1.95 2.14 3.14 4.85 4.07 7.56 0.49 1.43 0.82 2.88 1.14 4.35 0.33 1.58 0.25 2.41 1.98 1.93 1.38-0.37 2.84-0.68 4.19-1.11 0.7-0.22 1.38-0.47 1.41-1.03 0.04-0.7-0.9-2.13-1.18-2.79-1.43-3.4-2.86-6.79-4.3-10.19-1.55-3.69-3.11-7.38-4.67-11.07-0.78-1.84-1.55-3.68-2.33-5.52-0.71-1.67-1.3-4.16-2.48-5.54zm62.08-28.69c0.02-1.67 0.05-3.35 0.07-5.03 0.02-1 0.46-2.93-0.41-3.64-0.54-0.45-2.14-0.79-2.82-1.09-1.34-0.6-2.8-0.86-4.15-1.46-5.3-2.32-10.81-4.26-16.26-6.13-1.18-0.4-2.38-0.74-3.56-1.13-0.64-0.22-3.01-1.48-3.6-1.15-0.52 0.29-0.91 3.73-1.07 4.44-0.4 1.69-0.77 3.39-1.13 5.09-1.4 6.59-2.58 13.23-3.67 19.88 2.9-1.11 5.68-3.02 8.42-4.5 2.85-1.53 5.69-3.07 8.55-4.57 0.81-0.42 3.66-2.37 4.33-1.6 1.06 1.22-1.48 2.66-2.15 3.19-2.58 2.03-5.32 3.8-8.08 5.57-2.87 1.84-5.85 3.46-8.73 5.26-1.04 0.66-2.69 1.45-3.1 2.55-0.53 1.41-0.15 3.13 0.33 4.48 1.17 3.32 2.46 6.6 3.82 9.85 0.62 1.48 1.26 2.94 1.9 4.41 0.77 1.74 1.78 2.11 3.46 2.91 7.15 3.42 14.57 6.67 21.44 10.63-1.15 1.33-3.95-0.85-5.09-1.41l-6.3-3.06c-3.91-1.91-7.79-3.86-11.73-5.72 2.52 5.74 5.5 11.27 8.79 16.6-0.83 0.28-0.63 0.3-1.15-0.2-0.44-0.42-0.73-1.25-1.03-1.78-0.62-1.1-1.23-2.2-1.85-3.29-1.28-2.27-2.62-4.5-3.8-6.83-0.88-1.76-1.57-4.82-3.38-5.7-2.27-1.1-4.56-2.18-6.83-3.29 0 8.73 0.63 17.26 1.55 25.94 0.04 0.44 0.46 1.73-0.38 1.6-0.38-0.06-0.51-2.45-0.58-2.95-0.31-2.29-0.57-4.59-0.78-6.89-0.42-4.59-0.66-9.21-0.68-13.82-0.55 4.49-1.09 8.97-1.64 13.45l-0.77 6.38c-0.13 1.12-0.27 2.23-0.4 3.35-0.07 0.51-0.03 1.18-0.21 1.67-0.28 0.77-0.18 0.71-1.07 1.06 0.85-5.84 1.63-11.69 2.32-17.55 0.34-2.86 0.66-5.72 0.95-8.58 0.08-0.77 0.16-1.55 0.23-2.32 0.04-0.39 0.38-1.65 0.19-1.98-0.19-0.32-1.42-0.66-1.77-0.83-0.78-0.36-1.56-0.72-2.33-1.08-2.52-1.18-5.04-2.37-7.53-3.61-1.09-0.54-2.23-1.37-3.42-1.66-1.18-0.29-2.04 0.53-3.05 1.06-0.78 0.4-2.63 0.95-3.16 1.64-0.48 0.64 1.03 3.22 1.43 4.17 1.12 2.67 2.25 5.35 3.37 8.03 2.28 5.43 4.56 10.87 6.84 16.3 0.55 1.33 1.11 2.65 1.66 3.98 0.36 0.85 0.96 3.28 1.82 3.37 0.39 0.04 1.02-0.37 1.39-0.49 0.55-0.18 1.06-0.18 1.61-0.27 1.02-0.18 2.08-0.7 3.07-1.07 2.57-0.95 5.23-1.56 7.81-2.44 2.6-0.89 5.15-1.89 7.74-2.78 2.35-0.81 4.72-1.73 6.98-2.78 2.38-1.11 4.82-2.09 7.15-3.32 4.23-2.24 8.41-4.33 12.15-7.08 0.88-0.65 1.81-1.3 2.68-1.99 0.77-0.61 2.22-1.36 2.74-2.16 0.2-0.3 0.37-0.9 0.14-1.26-0.25-0.39-1.35-0.35-1.86-0.42-1.62-0.22-3.24-0.44-4.86-0.66 0.13 1.07 0.25 2.14 0.34 3.2 0.07 0.76 0.51 2.76-0.09 3.35-0.82-0.79-0.56-3.14-0.63-4.19-0.04-0.56 0.1-1.66-0.15-2.15-0.27-0.55-1.03-0.54-1.72-0.69-2.91-0.63-5.8-1.16-8.62-2.16-4.76-1.69-10.45-4.54-11.51-10.04-1.11-5.74 3.76-10.71 7.86-13.91 2.46-1.92 5.07-3.58 7.77-5.12 1.27-0.72 2.53-1.44 3.8-2.14 0.46-0.26 1.98-0.78 2.22-1.23 0.25-0.46 0.13-1.68 0.18-2.21zm-101.87 88.11c-0.23 0.11-0.46 0.23-0.69 0.34 2.57-7.34 5.11-14.64 7.26-22.12 1.04-3.6 2.09-7.21 3.16-10.81 0.47-1.55 1.6-3.69 1.29-5.29-0.35-1.74-1.17-3.59-1.8-5.25-4.06 2.56-8.21 4.99-12.34 7.43-3.697 2.19-7.461 4.14-11.188 6.3-1.91 1.11-3.88 1.86-5.874 2.77-1.619 0.74-0.99 2.99-0.967 4.49 0.082 5.32 0.078 10.65 0.4 15.96 0.117 1.93-0.034 4.15 1.194 5.76 1.571 2.06 3.028 4.15 4.46 6.32 0.537 0.81 2.792 5.2 3.632 5.11 0.549-0.07 1.055-1.84 1.329-2.27 0.592-0.9 1.457-1.69 2.245-2.42 3.399-3.16 7.179-5.39 11.099-7.7 3.98-2.35 8.06-4.53 12.12-6.76 0.92-0.5 1.91-0.86 2.82-1.38 0.36-0.2 1.07-0.52 1.3-0.89 0.34-0.54 0.22-2.04 0.29-2.69 0.15-1.33 0.41-2.71 0.42-4.04 0.02-1.32-0.78-2.46-1.35-3.61-2.52-5.05-4.97-10.11-7.16-15.32-1.73 6.04-3.54 12.06-5.24 18.11-0.89 3.17-1.95 6.28-2.99 9.39-0.53 1.59-1.06 3.18-1.6 4.77-0.41 1.23-0.62 3.05-1.82 3.8zm36.19-113.92c-1.33 0.01-2.55-0.19-3.85-0.46-0.48-0.11-0.9-0.15-1.39-0.19-0.55-0.05-1.05-0.35-1.53-0.41-0.37-0.04-1 0.11-1.35 0.23-0.81 0.27-0.79 0.13-0.82 1.07-0.05 1.45-0.09 2.9-0.17 4.36-0.32 5.71-0.92 11.36-1.75 17.02-0.17 1.14-0.64 2.64-0.38 3.78 0.23 1.02 1.12 2.12 1.7 2.97 1.2 1.77 4.02 2.64 6.01 3.14 2.09 0.53 4.27 0.73 6.26 1.2 0.55 0.13 1.18-0.1 1.77 0.03 0.55 0.12 0.97 0.42 1.47 0.63 1.23 0.53 2.61 0.63 3.88 1.04 2.52 0.81 5.22 0.76 7.74 1.54 0.64 0.2 1.2 0.7 1.82 0.87 0.57 0.16 1.15-0.03 1.75 0.06 1.26 0.19 2.43 0.62 2.72 1.97 0.77-0.61 0.88-0.45 0.74-1.39-0.08-0.61-0.42-1.34-0.6-1.93-0.47-1.49-0.94-2.97-1.41-4.46-0.93-2.94-1.85-5.89-2.71-8.85-0.76-2.66-1.46-5.33-2.07-8.02-0.31-1.37-0.57-2.75-0.83-4.13-0.08-0.4 0-1.03-0.4-1.3-0.37-0.24-1.21 0.63-1.6 0.91-2.68 1.94-8.83 7.7-12.18 4.3-1.81-1.82-1.7-5.04-1.51-7.4 0.13-1.45 0.38-2.89 0.66-4.31 0.08-0.36 0.51-1.51 0.35-1.76-0.17-0.27-1.96-0.43-2.32-0.51zm94.21 31.76c0.72 0.08 1.43 0.16 2.14 0.24-0.06-0.57 0-1.44-0.22-1.98-0.3-0.74-1.04-0.83-1.86-1.14-1.28-0.48-2.59-0.91-3.87-1.43-2.76-1.14-5.5-2.29-8.27-3.43-1.2-0.5-2.63-1.32-3.94-0.91-1.42 0.44-2.82 1.34-4.14 1.99-1.5 0.74-3 1.49-4.5 2.23-0.7 0.35-1.41 0.7-2.11 1.05-1.11 0.55-1.25 0.61-1.34 1.86-0.44 6.4-0.41 13.06-0.22 19.48 0.1 3.27-0.01 6.56 0.23 9.83 0.01 0.25-0.01 1.67 0.15 1.86 0.22 0.28 1.78 0.37 2.15 0.44 1.45 0.26 2.91 0.35 4.38 0.48-0.35-7.45-1.62-16.26 2.2-23.08 3.84-6.85 12.04-8.33 19.22-7.49zm-66.69-73.309c0.43-0.981 1.17-1.81 1.8-2.671 0.34-0.466 0.93-1.022 1.15-1.567 0.32-0.775 0.32-0.609-0.15-1.288-0.44-0.642-0.43-0.69-1.11-0.805-0.58-0.097-1.19 0.067-1.78-0.038-0.59-0.106-2.22-0.606-1.84-1.551-0.02 0.041 0.92-0.424 1-0.505 0.23-0.258 0.31-0.809 0.42-1.121 0.38-1.001 0.51-1.649 0.1-2.714-0.63-1.591-3.11-2.062-4.65-1.527-0.77 0.268-1.21 0.834-1.56 1.547-0.22 0.452-0.27 1.106-0.55 1.5-0.43 0.593-0.46 0.527-1.35 0.422-1.13-0.133-2.06-0.569-3.13-0.873-1.17-0.331-1.93 0.343-2.95 0.886-1.85 0.982-3.63 1.322-5.69 1.478-2.3 0.174-4.43-0.382-6.71-0.525 0.59 2.727 2.12 4.941 3.34 7.41 0.21 0.434 0.56 0.878 0.57 1.381 0.01 0.473-0.68 1.117-0.6 1.508 0.17 0.836 2 1.504 2.7 1.74 1.96 0.664 4.2 1.965 6.36 1.442 1.19-0.286 1.83-2.163 2.95-2.301 1.49-0.186 0.37 1.747 0.1 2.411 2.12 0.324 4.82 0.05 6.85-0.673 1.02-0.361 1.88-0.902 2.82-1.437 1.16-0.667 1.4-0.85 1.91-2.129zm-37.21 40.589c-3.79 0.06-7.63-0.49-11.43 0.01-0.88 0.12-1.75 0.31-2.62 0.51-0.62 0.14-2.59 0.26-3.01 0.72-0.37 0.43-0.38 2.37-0.45 2.92-0.18 1.22-0.13 1.64 0.65 2.58 2.55 3.11 5.21 6.12 7.73 9.26 2.42 3.02 4.41 6.38 6.85 9.36 1.3-3.81 1.38-8.38 1.74-12.37 0.19-2.13 0.37-4.26 0.53-6.39 0.16-2.04 0.69-4.67 0.01-6.6zm-49.057 40.13c0.439 0 1.138 0.14 1.564 0 0.586 0.19 0.781-0.03 0.588-0.66 0.009-0.22 0.018-0.44 0.028-0.66 0.061-1.41 0.128-2.83 0.193-4.24 0.06-1.29 0.119-2.59 0.17-3.88 0.035-0.88 0.48-3.07 0.124-3.87-0.239-0.54-0.806-0.42-1.496-0.49-0.656-0.08-1.313-0.15-1.966-0.25-0.828-0.13-1.745-0.42-2.588-0.24-0.846 0.19-1.461 0.97-2.125 1.47-1.051 0.79-2.125 1.55-3.185 2.32-1.926 1.41-3.833 2.85-5.743 4.28-0.789 0.59-0.941 0.38-0.556 1.23 0.238 0.53 0.779 1.12 1.108 1.59 0.656 0.95 1.309 2.38 2.151 3.14 1.224 1.12 4.621 0.41 6.247 0.4 1.855-0.01 3.642 0.02 5.486-0.14zm4.8-0.09c1.608-0.16 3.233-0.09 4.831-0.31 1.738-0.23 3.463-0.58 5.197-0.84 1.729-0.26 6.989-1.32 6.469-3.9-0.55-2.74-4.58-4.37-6.803-5.29-3.479-1.44-7.112-2.2-10.773-3.02-0.459 2.45-0.393 5.08-0.476 7.57-0.046 1.35-0.086 2.69-0.085 4.05 0 0.32-0.112 0.99 0.021 1.3 0.311 0.71 0.672 0.44 1.619 0.44zm-5.288 1.17h-10.264c1.519 3.15 2.954 6.36 4.592 9.45 1.631 3.08 3.731 5.98 5.581 8.94 0.469-0.51 1.217-1.06 1.535-1.67 0.353-0.68 0.343-1.67 0.401-2.45 0.15-2.02 0.218-4.06 0.269-6.08 0.044-1.78 0.122-3.54 0.258-5.31 0.03-0.39 0.457-2.4 0.213-2.73-0.218-0.3-2.136-0.14-2.585-0.15zm42.275-61.856c1.73 0 3.46-0.022 5.19 0.007 1.57 0.027 3.62-0.247 5.06 0.563 2.93 1.652-2.93 5.892-4.12 6.959 1.92 0.698 4.92-0.687 6.8-1.322 2.33-0.784 4.7-1.311 7.08-1.926 0.59-0.153 3.13-0.454 3.46-0.909 0.32-0.451-0.4-3.175-0.47-3.749-0.07-0.54-0.01-1.383-0.24-1.891 0.14-0.61-0.07-0.824-0.64-0.64-0.19-0.001-0.39-0.002-0.58-0.003-1.45 0.012-2.89 0.079-4.33 0.127-4.96 0.165-9.8 0.386-14.72 1.162-2.29 0.36-4.59 0.804-6.86 1.246-1.92 0.372-1.6 0.685 0.19 0.69 1.4 0.003 2.79-0.205 4.18-0.314zm142.25-36.539c0.3-0.339 0.59-0.678 0.89-1.017-0.72-0.206-1.44-0.411-2.16-0.617-0.76-0.218-1.17-0.168-0.83-1.023 0.42-1.07 2.37-1.193 3.3-1.233 3.21-0.139 6.59 0.885 9.64 1.788 1.49 0.44 2.66 1.122 3.92 2.028 0.55 0.396 1.19 0.768 1.67 1.243 0.5 0.495 0.71 1.128 1.19 1.623 0.81 0.812 1.84 1.217 2.23 2.389 0.45 1.346-0.09 2.886-0.76 4.06-0.68 1.191-1.68 2.092-2.5 3.174-0.65 0.858-2.01 3.204 0.11 2.932 1.12-0.144 2.58-2.058 3.38-2.821 1.16-1.093 2.3-2.212 3.52-3.231 1.08-0.903 2.33-1.829 3.79-1.988 1.53-0.167 2.29 0.814 3.03 2.007 0.71 1.125 0.82 2.223 1.32 3.375 0.23 0.555 0.54 0.865 0.68 1.47 0.21 0.931 0.24 1.947 0.35 2.896 0.17 1.49 0.33 2.662 0.04 4.123-0.27 1.367-0.34 2.819-0.57 4.209-0.26 1.575-0.47 3.158-0.72 4.733-0.22 1.335-1.04 3.236-0.23 4.477 1.92 2.983 4.23-1.408 4.84-3.048 1.07-2.883 1.62-6.034 2.56-8.976 0.51-1.573 0.95-3.161 1.24-4.79 0.24-1.347 0.12-2.988 0.86-4.188 0.57-0.932 1.59-1.64 2.71-1.356 1.4 0.357 1.93 2.383 2.35 3.614 1.08 3.249 0.68 6.174 0.24 9.487-0.21 1.534-0.4 3.07-0.75 4.579-0.24 1.018-1.22 3.077 0.24 3.631 2.07 0.785 4.27-5.169 4.86-6.513 1.54-3.522 2.13-7.014 2.77-10.787 0.15-0.867 0.26-1.753 0.48-2.606 0.19-0.742 0.76-1.492 0.81-2.234 0.05-0.743-0.44-1.261 0.06-1.991 0.42-0.607 1.18-0.643 1.86-0.649 1.6-0.012 3.14 0.694 4.63 1.206 1.39 0.477 3.45 1.523 4.95 1.186-4.7-4.781-9.39-9.509-15-13.232-2.6-1.73-5.21-3.392-8.02-4.802-2.85-1.428-6.12-2.393-9.17-3.257-1.66-0.47-3.31-1.003-4.95-1.543-1.46-0.48-2.93-0.571-4.36-1.116-3.1-1.183-6.57-1.641-9.78-2.48-1.42-0.37-2.86-0.687-4.28-1.03-1.5-0.361-3.6-0.987-5.12-0.926-1.3 0.052-1.74 1.546-2.36 2.585-0.91 1.508-1.69 3.076-2.4 4.685-1.47 3.297-3.01 6.702-4.06 10.147-0.57 1.891-1.14 3.784-1.7 5.678-0.49 1.64-1.72 4.005-1.39 5.688 2.41-3.717 4.65-7.578 6.59-11.559zm-112.07 33.564c-1.28 0.058-2.55 0.116-3.83 0.174 1.27 4.194 1.1 8.66 1.1 13.007 5.95-0.7 11.94-0.82 17.93-0.78-1.1-2.12-0.67-4.878-0.36-7.155 0.18-1.332 0.29-2.616 0.26-3.96-0.03-1.261 0.34-2.322-1-2.712-1.05-0.309-1.72 0.206-2.73 0.441-1.21 0.282-2.52 0.316-3.75 0.469-2.56 0.319-5.03 0.505-7.62 0.516zm-34.29 8.167c3.83-1.066 7.91-0.673 11.76-1.483-0.87-0.802-2.52-0.327-3.69-0.26-1.32 0.075-2.65 0.131-3.97 0.195-1.29 0.063-4.87-0.035-5.34 1.611 0.42-0.021 0.83-0.042 1.24-0.063zm140.33-59.425c-5.02 0.441-10.28 0.373-15.26 1.25-5.7 1.005-11.65 1.635-17.19 3.406-5.42 1.737-10.96 2.953-16.31 4.993-5.2 1.983-10.21 4.093-15.1 6.745-2.4 1.298-4.73 2.675-7.02 4.165-2.23 1.456-4.67 2.649-6.84 4.192-1.92 1.374-3.58 2.633-5.26 4.316-1.79 1.799-3.54 3.647-5.33 5.443-1.5 1.499-0.55 5.163-0.46 7.157 0.13 2.765 0.36 5.491 0.7 8.237 0.32 2.618 0.65 5.431 0.23 8.043-0.18 1.098-0.8 2.994-0.5 4.091 0.23 0.881 1.79 1.521 2.59 1.811 0.98 0.35 1.97 0.2 2.97 0.64 1.12 0.5 2.06 1.12 3.25 1.38 1.46 0.33 3.11 0.6 4.61 0.61 1.39 0.01 2.78 0.46 4.17 0.74 2.26 0.45 4.46 0.59 4.32 3.31-0.17 3.15-1.41 5.84-2.15 8.83 1 0 1.7 0.06 2.62-0.3 1.07-0.41 2.21-0.52 3.34-0.7 2.48-0.4 4.91-0.52 7.41-0.78 4.59-0.46 9.26-0.4 13.85-0.36 2.32 0.03 4.84 0.21 7.13 0.57 2.36 0.37 4.79 0.61 7.07 1.32 1.92 0.6 3.91 1.01 5.87 1.54 0.88 0.24 1.94 0.44 2.78 0.7 1.2 0.39 1.85 1.22 3.25 1.2-0.39-2.59-1.32-5-1.87-7.57-0.59-2.68-1.75-5.06-3.03-7.59-0.57-1.13-0.99-2.33-1.54-3.47-0.61-1.269-1.48-2.319-2.22-3.504-1.51-2.425-3.13-4.757-4.61-7.199-1.3-2.132-2.78-4.175-4.2-6.233-1.56-2.263-3.74-3.97-5.51-6.046-0.75-0.877-1.46-1.691-2.3-2.496-0.77-0.741-1.87-2.38-3.05-2.457-0.68-0.045-1.85 0.338-2.5 0.544-1.2 0.38-2.47 0.629-3.71 0.963-1.36 0.367-2.69 0.844-4.05 1.193-0.54 0.139-1.19 0.073-1.7 0.231-0.54 0.165-0.97 0.53-1.56 0.696-2.91 0.827-5.8 1.765-8.72 2.517-3.02 0.774-6.08 1.434-9 2.531-0.56 0.209-1.18 0.704-1.61 0.379-0.31-0.243-0.52-0.929-0.44-1.329 0.28-1.332 2.41-1.813 3.43-2.348 2.75-1.433 5.47-2.444 8.42-3.417 1.46-0.479 2.9-0.991 4.38-1.404 1.23-0.346 2.51-0.931 3.77-1.108 1.12-0.157 1.91-0.599 3.02-0.99 1.64-0.577 3.32-1.05 4.99-1.542 2.84-0.842 5.86-1.196 8.77-1.761 6.74-1.308 13.73-1.963 20.61-1.882 3.47 0.041 7.1-0.06 10.53 0.511 0.82 0.138 2.56 0.111 3.13 0.855 0.31 0.398 0.14 0.992 0.22 1.424 0.13 0.73 0.53 1.07 0.87 1.735 0.73-3.597 1.57-7.118 2.52-10.662 0.85-3.208 1.65-6.474 2.79-9.637 1.2-3.346 2.67-6.894 4.47-9.957 0.37-0.63 1.3-1.631 1.38-2.337 0.08-0.727-0.93-1.291-1.63-1.372-1.57-0.181-3.25 0.13-4.79 0.183zm33.71 51.397c0.51-4.99 2-10.209 1.17-15.219-0.35-2.12-0.63-4.145-1.69-6.059-0.53-0.968-0.75-1.679-1.77-1.108-1.03 0.577-1.99 2.004-2.84 2.832-1.58 1.52-3.23 3.086-5.12 4.215-1.48 0.889-4.44 1.731-5.55-0.192-1.07-1.833 0.35-4.39 1.37-5.903 1.17-1.73 3.38-3.332 2.14-5.466-0.54-0.919-1.3-1.16-2.11-1.763-0.7-0.522-1.28-1.198-1.98-1.729-2.03-1.54-4.25-2.199-6.59-3.079-1.08-0.406-1.22-0.789-1.85 0.141-0.67 1.008-1.04 2.423-1.53 3.539-0.99 2.235-2.03 4.353-3.3 6.437-1.27 2.104-2.4 4.301-3.61 6.446-0.46 0.81-0.88 1.632-1.42 2.392-0.29 0.413-0.66 0.782-0.9 1.234-0.35 0.669-0.19 1.279-0.41 1.945-0.95 2.874-2.33-1.138-2.59-2.076-0.3-1.067-1.02-1.899-1.49-2.894-0.39-0.822-0.65-2.043-1.59-2.43-0.76-0.317-1.75 0.118-2.53 0.16-1.44 0.078-2.88-0.038-4.33 0.052-1.34 0.084-2.69 0.213-4.04 0.296s-2.69-0.145-4.02-0.003c-2.4 0.255-4.84 0.214-7.22 0.568-2.8 0.415-5.57 0.857-8.37 1.203 0.65 1.235 2 1.771 3.07 2.652 0.95 0.788 1.71 1.697 2.67 2.447 0.98 0.76 1.56 1.885 2.36 2.799 0.8 0.896 1.53 1.647 2.22 2.648 3.35 4.837 6.8 9.496 9.56 14.724 1.4 2.643 2.73 5.473 3.69 8.313 1.02 3.05 1.52 6.31 2.13 9.46 0.3 1.57 0.46 2.9 0.13 4.48-0.09 0.37-0.18 0.75-0.27 1.12-0.29 0.45-0.18 0.74 0.32 0.87 0.3 0.43 0.7 0.6 0.73 1.19 0.02 0.45-0.23 0.97-0.62 1.22-0.74 0.49-0.74-0.17-1.51-0.02-0.29 0.15-0.58 0.31-0.87 0.47-0.15-0.24-0.31-0.47-0.47-0.69-0.49-0.47-0.88-0.43-1.52-0.54 0.33 3.76-0.19 7.12-1.02 10.78-0.4 1.77-1.08 3.49-1.42 5.26-0.38 1.97 0.45 2.87 1.75 4.19-0.33 0.17-0.9 0.36-1.18 0.61-0.43 0.41-0.32 0.46-0.32 1.1 0 1.18-0.22 2.34-0.41 3.49-0.34 2.14-0.65 4.35-1.38 6.4-1.34 3.72-3.49 7.58-5.69 10.85-1.23 1.84-2.46 3.92-4.01 5.5-1.54 1.59-3.08 3.19-4.62 4.78-3.04 3.13-6.36 5.3-10 7.64-1.44 0.93-2.96 1.95-4.19 3.11-1.26 1.17-2.94 2-4.44 2.85-0.68 0.38-1.16 0.93-1.88 1.24-0.68 0.3-1.16 0.39-1.73 0.78-1.42 0.95-2.95 1.77-4.51 2.49-1.9 0.88-3.78 1.9-5.73 2.65-0.89 0.34-1.73 0.71-2.59 1.11-0.94 0.43-1.94 0.72-2.9 1.18-0.81 0.39-1.63 0.61-2.46 0.93-0.67 0.26-1.2 0.68-1.88 0.96-1.43 0.56-2.72 0.86-4.11 1.53-1.84 0.88-4.02 1.29-5.95 1.93-2.17 0.71-4.41 1.42-6.63 1.92-0.95 0.21-1.75 0.49-2.67 0.82-0.59 0.21-1.27 0.32-1.93 0.52-1.82 0.56-3.64 1.1-5.47 1.57-3.57 0.92-7.22 2.03-10.69 3.29-1.82 0.65-3.66 1.44-5.4 2.28-1.97 0.95-4.1 1.49-6.08 2.43-3.82 1.81-7.63 3.67-11.4 5.57-1.99 1-3.94 2.02-5.88 3.11-0.7 0.39-1.47 0.56-2.17 0.94-0.91 0.51-1.66 1.25-2.6 1.75-3.6 1.93-7.28 3.74-10.59 6.18-1.73 1.28-3.593 2.59-5.09 4.14-0.494 0.52-1.351 1.31-1.44 2.06-0.132 1.1-0.008 0.08 0.372 0.76 0.528 0.07 0.647 0.27 0.359 0.61-0.133 0.16-0.303 0.24-0.509 0.25-0.666 0.13-1.912-0.57-2.447-0.87-0.927-0.51-1.419-1.16-2.015-2.02-1.293-1.86-2.555-3.75-3.886-5.58-1.198-1.66-2.371-3.48-3.734-4.99-0.924-1.04-0.993-0.58-2.021 0-0.765 0.43-1.653 0.61-2.446 1.02-3.019 1.55-6.339 2.69-9.437 3.77-0.705 0.25-1.081 0.64-1.701 0.98-0.789 0.43-1.789 0.64-2.634 0.95-2.326 0.85-4.64 1.73-6.95 2.62-1.783 0.69-3.497 1.23-4.892 2.5-0.556 0.51-1.228 0.87-1.802 1.38-0.668 0.6-1.571 1.56-2.413 1.9l-0.512 0.4c-0.346-0.24-0.693-0.48-1.041-0.72-0.344-0.24-0.689-0.48-1.033-0.72-0.864-0.6-1.722-1.21-2.58-1.82-1.947-1.38-3.907-2.75-5.718-4.31-3.217-2.77-6.556-5.4-9.92-7.99-3.531-2.73-6.973-5.58-10.625-8.14-3.31-2.32-6.922-4.28-10.131-6.73-1.6154-1.23-3.2268-2.48-4.8762-3.67-0.0898-0.07-1.4319-0.89-1.4453-0.98-0.0229-0.17 0.4188-0.61 0.5491-0.75 0.6173-0.68 1.3012-1.27 1.9162-1.95 2.866-3.17 6.6082-3.06 10.563-3.21 1.794-0.07 3.739 0.76 5.443 1.33 2.083 0.69 4.092 1.7 6.104 2.57 4.147 1.81 8.427 3.35 12.616 5.01 1.647 0.66 3.288 0.98 4.962 1.43 1.699 0.46 3.449 0.02 5.266 0.06 0.943 0.01 1.835 0.07 2.784 0.01 0.564-0.03 1.214-0.14 1.77-0.12 0.452 0 0.92 0.19 1.335 0.14 1.818-0.2 3.738-0.49 5.613-0.73 1.861-0.24 3.782-0.35 5.619-0.72 0.925-0.19 1.837-0.45 2.727-0.76 0.773-0.27 2.177-0.59 2.811-1.14 0.567-0.49 0.319-0.5 0.003-1.31-0.126-0.31-0.255-0.8-0.44-1.1-0.502-0.84-0.986-1.1-0.695-2.14 0.514-1.82 2.266-2.99 3.766-3.9 3.378-2.03 6.467-4.63 10.024-6.35 7.329-3.55 14.009-8.17 21.161-12.06 7.85-4.29 15.28-9.31 23.25-13.42 7.41-3.82 14.79-7.66 22.27-11.36 3.65-1.81 7.78-3.46 11.09-5.83-1.83-0.22-3.67-0.52-5.51-0.68-0.86-0.08-1.72-0.01-2.57-0.14-0.95-0.16-1.85-0.54-2.8-0.7-1.63-0.28-3.09-0.84-4.73-1.04-1.74-0.22-3.46-0.74-5.22-0.88-3.67-0.31-6.99-1.66-10.21-3.38-0.8-0.42-1.46-0.18-2.22-0.47-0.42-0.15-0.87-0.79-1.34-1.13-1.31-0.94-2.43-2.04-3.66-3.07-2.61 5.86-7.72 9.84-12.59 13.76-2.48 1.99-5.16 3.68-7.65 5.63-1.94 1.51-3.69 2.86-5.761 4.07-1.983 1.15-3.847 2.71-5.738 4.1-1.281 0.94-2.783 1.65-4.146 2.46-1.114 0.67-3.288 1.67-3.592 2.87-0.248 0.99 0.236 2.17-1.269 1.71-1.347-0.4-2.324-1.9-3.109-2.96-2.03-2.73-3.924-5.55-5.809-8.39-1.012 1.98-2.758 3.41-4.372 4.88-0.981 0.89-1.999 1.72-3.058 2.51-0.514 0.39-1.033 0.77-1.548 1.15-0.203 0.15-0.662 0.39-0.793 0.6-0.307 0.5-0.121 0.28-0.073 0.88 0.075 0.95 0.391 1.7-0.146 2.61-0.503 0.85-1.601 1.22-2.371 1.8-1.831 1.39-3.757 2.87-5.789 3.95-0.461 0.25-0.897 0.46-1.326 0.76-0.717 0.5-0.586 0.68-1.309 0.2-1.13-0.75-2.106-2-3.125-2.91-2.137-1.9-4.297-3.78-6.484-5.63-4.17-3.51-8.462-6.86-12.579-10.43-3.913-3.4-8.108-6.33-12.147-9.56-1.108-0.89-2.203-1.8-3.296-2.7-0.974-0.81-2.554-1.69-3.274-2.72-1.046-1.5 3.045-3.55 4.28-3.85 2.128-0.53 4.881-0.23 7.013 0.2 2.238 0.46 4.517 1.97 6.606 2.91 2.356 1.06 4.755 1.97 7.128 2.97 1.058 0.45 2.18 0.81 3.162 1.41 1.043 0.63 1.973 1.36 3.082 1.9 1.277 0.61 2.604 1.19 3.948 1.64 0.608 0.21 1.263 0.42 1.903 0.5 0.906 0.12 0.783-0.3 1.535-0.53 0.64-0.2 0.792 0.32 1.367 0.47 0.541 0.14 0.946 0 1.414-0.29 1.045-0.65 1.976-1.55 3.021-2.23 0.97-0.63 2.039-1.21 2.948-1.92 0.405-0.32 0.705-0.75 1.104-1.08 0.64-0.51 0.894-0.31 1.641-0.66 0.611-0.29 1.166-0.83 1.747-1.19 0.361-0.22 1.236-0.51 1.468-0.87 0.612-0.94-0.432-1.6-1.366-1.32-0.14-0.82-0.859-2.75-0.549-3.52 0.275-0.68 0.996-0.55 1.602-0.91 2.279-1.35 3.961-3.8 6.093-5.38 2.01-1.49 3.783-3.28 5.774-4.8 1.706-1.3 3.569-2.57 5.123-3.98 1.836-1.66 4.187-2.95 6.183-4.43 2.062-1.53 3.979-3.24 6.019-4.79 1.963-1.49 3.891-3.04 5.908-4.46 1.81-1.28 3.71-2.44 5.49-3.73 0.97-0.71 2.03-1.33 3.14-1.8 1.11-0.46 2.07-1 3.15-1.5 2.14-0.99 4.93-1.67 7.26-1.96 2.56-0.31 5.13-0.59 7.72-0.59 1.37 0 2.71 0.26 4.08 0.34 1.26 0.08 2.62 0.4 3.87 0.36 0.56-0.02 1.06-0.26 1.6-0.18 0.46 0.06 0.86 0.34 1.35 0.39 1.09 0.1 2.19 0 3.29 0.14 2.54 0.32 5.08 0.79 7.62 1.04 2.71 0.28 5.4 0.33 8.09 0.79 2.63 0.46 5.29 0.92 7.9 1.45 5.57 1.11 11.19 2.19 16.67 3.84 1.28 0.39 2.56 0.76 3.79 1.29 0.6 0.25 1.17 0.56 1.8 0.75 0.89 0.28 1.07 0.38 1.53-0.37 0.79-1.29 1.22-2.99 1.8-4.4 0.56-1.39 1.25-2.79 1.58-4.24-0.96-0.15-2.16 0.14-3.15 0.18-1.21 0.04-2.4 0.01-3.61 0.01-2.43-0.02-4.33-0.74-6.63-1.49-1.94-0.64-4.52-1-5.99-2.46-0.8-0.78-1.06-0.92-2.25-0.78-1.21 0.14-2.39 0.38-3.61 0.42-4.57 0.16-9.12 0.96-13.72 1.11-1.24 0.05-4.35 0.64-4.15-1.48 0.05-0.43 0.38-0.81 0.45-1.27 0.07-0.48-0.06-0.97-0.13-1.44-0.18-1.123-0.37-2.241-0.55-3.36-4.19 1.347-8.43 2.44-12.7 3.51-1.77 0.44-4.62 1.46-6.44 0.9-1.77-0.54-0.75-3.038-0.2-4.233-3.51 0.803-7.26 2.118-10.84 2.423-1.1 0.09-2.16 0.33-2.41-0.991-0.2-1.052 0.56-2.339 0.94-3.263-2.75-0.246-5.59-0.223-5.08-3.755 0.48-3.241 3.16-3.886 6.03-4.478 3.53-0.731 7.13-0.975 10.69-1.567 3.09-0.515 6.46-1.089 9.62-0.829 1.67 0.137 3.35 0.169 5.02 0.324 0.79 0.073 1.55 0.195 2.31 0.411 0.71 0.198 1.69 0.814 2.41 0.825 1.09 0.017 2.41-1.459 3.58-1.8 1.45-0.422 3.01-0.499 4.51-0.603 1.7-0.116 3.4-0.181 5.1-0.319 0.39-0.032 1.85 0.064 2.16-0.163 0.44-0.331 0.15-2.029 0.12-2.727-0.03-0.645 0.09-1.853-0.36-2.106-0.42-0.238-1.64 0.088-2.05 0.154-1.71 0.275-3.33 0.243-5.04 0.173-0.79-0.032-1.54 0.178-2.32 0.075-0.84-0.111-1.68-0.393-2.51-0.549-1.81-0.34-3.45-0.763-5-1.776-1.37-0.888-2.98-1.49-3.74-3.046-0.56-1.14-0.79-3.339 0.85-3.663-1.12-1.617-1.89-3.432-2.48-5.3-0.11-0.339-0.18-0.849-0.34-1.144-0.57-1.044-0.04-0.118-0.85-0.536-0.8-0.412-1.38-0.739-2-1.456-1-1.144-1.42-2.552-1.55-4.043-0.17-2.024-0.49-4.307-0.19-6.321 0.51-3.489 3.05-6.11 5.64-8.22 1.4-1.146 3.25-1.572 4.9-2.267 1.59-0.672 3.36-1.376 5.04-1.533 1.51-0.142 2.98-0.637 4.49-0.836 2.08-0.275 4.17-0.172 6.25-0.255 0.97-0.039 1.93-0.175 2.88-0.278 0.54-0.059 1.46 0.004 1.95-0.211 0.81-0.352 0.38 0.387 0.67-0.689 0.55-2.047 1-3.967 1.83-5.957 0.78-1.853 1.72-3.625 2.97-5.21 1.17-1.486 2.68-2.573 4.06-3.843 1.02-0.94 2.18-1.79 3.35-2.551 0.66-0.435 1.41-0.67 2.06-1.054 0.8-0.476 1.52-0.837 2.43-1.129 1.95-0.626 3.88-1.29 5.96-1.257 2.23 0.035 4.47-0.486 6.64 0.175 4.04 1.226 6.02 5.611 5.95 9.638 1.38-0.346 2.59-1.01 4.05-1.067 1.35-0.053 2.95 0.065 4.27 0.315 2.57 0.487 5.21 1.917 6.75 4.086 1.46 2.068 1.68 4.813 0.78 7.16-0.43 1.123-1.11 2.122-1.84 3.071-0.53 0.696-1.72 1.466-1.78 2.398 9.95-3.011 19.93-5.134 30.21-6.507 5.22-0.697 10.44-0.348 15.66-0.746 2.23-0.17 4.65 0.068 6.96 0.077 0.97 0.004 1.73-0.132 2.43-0.763 0.72-0.638 1.29-1.42 2.12-0.499 0.21 0.235 0.26 0.804 0.54 0.981 0.35 0.215 1.36 0.067 1.77 0.093 1.45 0.089 2.86 0.335 4.29 0.619 2.61 0.521 5.2 1.047 7.78 1.708 4.91 1.259 9.76 2.477 14.6 3.972 4.94 1.525 9.94 3.406 14.49 5.875 2.21 1.195 4.41 2.688 6.44 4.167 0.94 0.688 1.79 1.432 2.61 2.261 0.87 0.887 1.94 1.485 2.81 2.379 1.89 1.943 3.77 4.004 5.49 6.109 0.89 1.099 1.71 2.258 2.51 3.43 0.56 0.821 2.03 2.326 1.69 3.388-0.18 0.567-0.81 0.963-1.39 0.824-0.19-0.046-0.35-0.297-0.52-0.321-0.56-0.08-0.05-0.277-0.7-0.012-1.29 0.527-1.71 1.584-3.35 1.343-2.8-0.409-5.44-1.733-7.98-2.887-0.73 2.784-0.83 5.671-1.47 8.489-0.62 2.75-1.65 5.372-2.9 7.893-1.1 2.213-2.51 4.571-4.45 6.152-1.48 1.207-5.13 2.706-6.22 0.137-0.46-1.091 0.23-2.786 0.42-3.909 0.26-1.507 0.55-3.018 0.71-4.54 0.13-1.237 0.19-2.481 0.31-3.718 0.1-1.066 0.39-3.352-0.21-4.292-0.36-0.567-0.39-0.011-0.6 0.555-0.26 0.686-0.47 1.367-0.65 2.074-0.4 1.501-0.76 3.013-1.13 4.521-0.67 2.692-1.4 5.326-2.79 7.748-1.24 2.15-2.98 4.508-5.63 4.861-1.23 0.164-2.85-0.403-3.79-1.239-1.06-0.937-0.75-2.484-0.74-3.758z"/>
  <path fill="#000" d="m234.66 198.7c1.45-0.29 2.67-1.45 3.86-2.32 1.51-1.12 2.95-2.33 4.42-3.5 2.77-2.2 5.28-4.62 7.67-7.25 4.72-5.19 8.27-11.87 9.88-18.69 0.81-3.45 1.83-7.5 1.36-11.06-0.16-1.24-0.41-1.47-1.62-1.61-0.55-0.06-1.93-0.22-2.43-0.01-1.28 0.56-1.97 2.95-2.34 4.14-1.12 3.54-1.78 7.19-2.8 10.76-0.99 3.49-2.58 7.03-4.17 10.29-3.51 7.27-8.4 13.35-13.83 19.25zm28.82-40.11c-0.86 9.89-3.6 19.32-9.75 27.29-2.92 3.78-6.36 7.08-10.08 10.07-3.85 3.09-7.77 6-12.13 8.3-1.17 0.62-2.33 1.23-3.5 1.81-0.66 0.33-2.3 1.52-3.05 1.33-0.6-0.15-0.76-0.61-0.85-1.22-0.22-1.37 0.67-2.05 1.56-2.92 3.59-3.52 7.19-7.05 10.55-10.79 6.63-7.38 11.61-16.23 14.37-25.77 0.86-2.94 1.62-5.91 2.54-8.83 0.56-1.78 1.35-4.94 3.22-5.83 0.99-0.48 2.16-0.01 3.21-0.3 0.98-0.27 1.64-0.81 2.48 0.1 1.47 1.61 1.53 4.75 1.43 6.76z"/>
  <path fill="#000" d="m0.89456 215.67c-0.73574 0.26-0.76644 0.52-1.1034-0.24-0.16971-0.38-0.12383-0.91-0.08389-1.3 0.09572-0.95 0.59546-1.83 1.0061-2.68 3.8645 3.2 7.8773 6.08 12.021 8.9 4.432 3.02 8.663 6.37 12.855 9.71 3.753 3 7.552 5.9 11.266 8.94 1.791 1.46 3.833 2.59 5.536 4.1 1.376 1.22 3.658 1.76 4.831 3.19-1.859 1.12-4.34 2.01-6.4 1.05-2.273-1.06-4.016-2.45-6.039-3.89-1.042-0.74-2.125-1.41-3.184-2.13-0.93-0.63-1.588-1.55-2.53-2.14-1.979-1.25-4.01-2.62-5.889-4.04-1.93-1.46-4.062-2.62-5.924-4.17-1.909-1.59-4.045-2.65-6.038-4.09-4.2226-3.07-7.9413-6.52-10.323-11.21z"/>
  <path fill="#000" d="m114.83 52.742c-0.05 0.283-0.1 0.565-0.16 0.848 0.04 0.007 2.56-4.884 2.98-5.475 1.42-2.002 3.27-3.669 5.05-5.341 3.78-3.543 8.19-6.402 11.89-10.008 1.22-1.187 3.39-2.984 2.91-4.99-0.47-1.994-4.51-1.588-5.89-1.012-2.17 0.905-3.93 2.797-5.55 4.445-1.76 1.798-3.54 3.576-5.03 5.611-1.61 2.194-3.14 4.571-4.13 7.118-1.1 2.853-1.53 5.805-2.07 8.804zm0.83 8.753c-1.71 0.53 0.44 0.887-0.24 1.806-0.73 1.006-1.97-2.096-2.16-2.681-1.09-3.461-0.6-7.665 0-11.178 0.3-1.772 0.49-3.574 0.9-5.327 0.4-1.709 1.26-3.334 2.05-4.889 1.6-3.112 3.71-6.01 6.11-8.548 2.4-2.545 5.08-5.092 8.26-6.658 2.62-1.295 6.78-0.397 8 2.43 1.26 2.889-0.44 6.035-2.45 8.066-2.61 2.649-5.46 5.28-8.4 7.564-1.51 1.174-2.78 2.594-4.24 3.819-1.57 1.304-2.92 2.616-4.07 4.302-1.12 1.634-2.27 3.267-3 5.122-0.79 2.031-0.76 4.023-0.76 6.172z"/>
  <path fill="#000" d="m47.073 186.06c-3.941-2.54-7.895-4.77-11.326-8.02-3.388-3.2-6.348-6.81-10.119-9.58-1.881-1.39-3.823-2.69-5.671-4.12-1.754-1.36-3.771-2.52-5.356-4.07-2.113-2.07-6.0693-5.91-3.37-8.99 3.351 4 7.949 7.14 12.141 10.18 4.419 3.19 8.476 6.92 12.668 10.4 4.039 3.36 8.064 6.74 12.005 10.19 1.035 0.9 2.033 1.85 3.08 2.74 0.128 0.11 1.213 0.8 1.213 0.98 0 0.44-0.841 0.72-1.141 0.84-0.473 0.19-1.752 0.67-2.289 0.51-0.281-0.08-0.286-0.31-0.488-0.45-0.117-0.22-0.253-0.43-0.407-0.62-0.314 0-0.627 0.01-0.94 0.01z"/>
  <path fill="#000" d="m279.05 141.74c-2.81-0.08-7.09-0.09-6.93 3.76 0.08 1.9 1.11 3.3 1.95 4.93 0.89 1.71 1.55 3.47 1.81 5.39 1.05 7.76-1.78 15.34-4.33 22.52 5.49-4.44 9.46-10.63 11.55-17.41 1-3.29 1.4-7.51 1.07-10.93-0.16-1.72-0.79-3.25-1.55-4.78-0.38-0.76-0.76-1.64-1.37-2.26s-1.45-0.83-2.2-1.22zm-9.8 41.04c-1.82-2.98 1.04-7.39 1.97-10.3 1.12-3.49 2.15-7.12 2.63-10.75 0.5-3.81-0.15-6.77-1.91-10.14-1.57-3.01-2.51-7.01-0.76-10.19 0.71-1.28 1.75-1.44 2.99-1.95 1.52-0.63 1.93-1.69 3.8-1.52 3.33 0.3 4.87 3.46 6.11 6.15 2.88 6.29 2.1 14.39-0.36 20.7-1.42 3.63-3.04 7.4-5.44 10.48-1.18 1.52-2.57 2.83-4.01 4.1-1.55 1.36-2.95 3.01-5.02 3.42z"/>
  <path fill="#000" d="m79.229 73.744c-4.387 0.883-8.39 2.864-9.093 7.804-0.639 4.489 2.413 8.642 6.161 10.744 4.053 2.273 9.132 2.651 13.171 0.132 4.252-2.653 5.216-7.968 2.629-12.138-2.888-4.654-7.725-6.028-12.868-6.542zm2.819-2.154c5.224 0.767 10.073 4.492 11.833 9.509 1.814 5.171 0.147 10.857-4.656 13.691-9.706 5.73-22.678-3.817-20.336-14.788 0.595-2.785 2.284-4.942 4.579-6.573 2.533-1.801 5.597-1.85 8.58-1.839z"/>
  <path fill="#000" d="m267.78 19.072c-6.3-2.852-12.59-5.704-18.89-8.555-0.25 2.859-0.51 5.717-0.77 8.576-0.07 0.773-0.36 1.826-0.24 2.589 0.14 0.815-0.14 0.728 0.92 0.612 1.35-0.148 2.71-0.484 4.05-0.724 2.41-0.431 4.98-0.554 7.34-1.188 1.21-0.324 2.36-0.365 3.58-0.56 1.34-0.215 2.65-0.614 4.01-0.75zm-21.3 5.526c0-3.22 0.36-6.397 0.66-9.603 0.26-2.884 0.36-5.6327 1.3-8.3804 0.88 1.597 3.31 2.2354 4.81 3.0572 2.08 1.1322 4.28 1.9662 6.4 2.9982 2.09 1.013 4.09 2.176 6.18 3.186 1.06 0.513 2.13 0.991 3.19 1.508 0.66 0.323 2.22 0.844 2.64 1.444 1.24 1.824-3.03 2-3.85 2.16-2.47 0.484-4.98 0.756-7.44 1.253-2.31 0.463-4.61 0.894-6.92 1.314-2.29 0.416-4.64 1.063-6.97 1.063z"/>
  <path fill="#000" d="m52.405 104.32c2.478-0.26 4.946-0.63 7.422-0.88 2.344-0.23 4.418-0.48 6.559-1.55-2.925-0.89-5.856-1.72-8.806-2.52-1.462-0.396-2.922-0.815-4.392-1.185-1.137-0.287-2.128-0.451-2.565-1.694-0.508-1.448 0.906-1.228 1.788-0.861 1.216 0.507 2.54 0.823 3.801 1.244 2.812 0.941 5.643 1.807 8.482 2.662 0.883 0.266 5.997 1.254 4.154 2.964-0.789 0.73-2.548 1.13-3.512 1.66-1.237 0.67-2.584 0.94-3.959 1.2-2.868 0.56-5.843 0.78-8.746 1.26-1.483 0.25-2.965 0.5-4.447 0.75-0.868 0.14-1.202 0.13-1.429-0.84-0.165-0.71 0.05-1.41 0.209-2.1 0.402-1.73 0.849-3.46 1.291-5.183 0.169-0.658 0.467-3.551 1.053-3.868 1.329-0.718 0.303 3.287 0.205 3.778-0.373 1.853-0.816 3.683-1.016 5.563 1.306-0.12 2.608-0.24 3.908-0.4z"/>
  <path fill="#000" d="m87.545 119.05c0.491 1.24-0.325 1.51-1.316 1.94-1.285 0.56-2.55 1.15-3.858 1.65-2.754 1.05-5.527 2.03-8.214 3.24-5.126 2.33-10.321 4.56-15.367 7.04-1.254 0.62-2.509 1.24-3.774 1.83-1.309 0.62-2.809 1.65-4.209 2.01-1.221 0.3-1.349-0.57-0.625-1.37 0.933-1.03 2.375-1.81 3.546-2.53 4.822-2.96 10.083-5.37 15.349-7.4 6.086-2.36 12.189-4.62 18.468-6.41z"/>
  <path fill="#000" d="m100.93 48.86c-0.18-3.762 0.32-7.534 0.02-11.286-5.144 4.573-2.608 11.64 0.35 16.601l-0.37-5.315zm2.23-0.215c0.03 1.837 0.13 3.674-0.05 5.502-0.18 1.919 0.72 2.908 1.89 4.321-1 1.012-3.28-1.346-3.91-2.042-1.298-1.431-2.263-3.333-3.122-5.052-1.83-3.661-3.09-7.581-1.626-11.601 0.543-1.49 1.207-3.516 2.645-4.383 1.573-0.953 2.783 0.391 3.443 1.772 1.6 3.372 0.38 7.864 0.73 11.483z"/>
  <path fill="#000" d="m157.69 235.63c2.37 0.19 4.71 0.38 7.09 0.53l-1.23-9.78c-1.37 0.31-2.75 0.63-4.12 0.95-0.65 0.15-1.65 0.19-2.22 0.52-0.22 0.05-0.43 0.09-0.65 0.15 0 0.42-0.01 0.84-0.01 1.26-0.02 1.26-0.05 2.51-0.11 3.76-0.02 0.52-0.2 1.29-0.07 1.81-0.23 0.53-0.09 0.75 0.42 0.67 0.3 0.04 0.6 0.09 0.9 0.13zm-1.63 2.36c-1.86-0.93-1.36-3.77-1.35-5.57 0-1.15 0.08-2.29 0.11-3.44 0.02-0.79-0.16-1.76 0.11-2.52 0.49-1.36 2.84-1.32 4.05-1.23 0.9 0.07 1.65 0.03 2.57-0.03 0.46-0.03 0.96 0.06 1.41-0.08 0.1-0.03 1-0.66 0.96-0.66 1.63 0.06 1.65 3.97 1.76 4.96 0.26 2.45 0.5 4.9 0.71 7.35 0.05 0.65 0.3 1.38-0.32 1.75-0.55 0.34-2.02 0-2.64-0.01-2.47-0.08-4.93-0.47-7.37-0.52z"/>
  <path fill="#000" d="m272.21 92.695c1.07 0.97 0.55 1.971 0.2 3.182-0.21 0.728-1.37 3.115-1.05 3.796 0.37 0.787 2.11 0.977 2.86 1.227 1.3 0.43 2.6 0.87 3.83 1.48 0.55 0.27 2.51 0.89 2.88 1.4 0.21 0.29 0.29 0.51 0.13 0.89-0.28 0.65-0.68 0.31-1.36 0.17-3.1-0.65-6.18-1.47-9.06-2.83-0.8 1.87-1.48 3.78-2.16 5.69-0.2 0.57-0.39 1.84-1.15 1.93-0.92 0.11-0.93-1.12-0.87-1.79 0.09-0.98 0.59-2.02 0.9-2.94 0.25-0.76 1.13-2.35 1.02-3.13-0.08-0.54-0.4-0.51-0.99-0.72-0.55-0.2-1.11-0.4-1.66-0.6-0.89-0.33-1.77-0.652-2.63-1.037-0.48-0.212-1.47-0.459-1.81-0.899-0.2-0.254-0.42-1.172-0.17-1.426 0.59-0.595 4.49 1.006 5.3 1.225 0.53 0.145 1.06 0.256 1.58 0.446 0.2 0.073 0.43 0.366 0.64 0.377 0.9 0.046 0.97-0.646 1.25-1.389 0.65-1.725 1.35-3.485 2.32-5.052z"/>
  <path fill="#000" d="m48.288 127.02c-0.479-1.17 4.604-2.6 5.548-2.99 2.303-0.97 4.771-1.55 7.156-2.29 2.345-0.72 4.68-1.51 6.986-2.35 0.714-0.26 5.85-2.76 6.119-2.39 0.89 1.21-9.889 5.02-10.939 5.4-4.877 1.75-9.913 3.1-14.87 4.62z"/>
  <path fill="#000" d="m266.93 35.025c-1.32 0.013-3.22 0.388-4.43-0.148 1.48 0.049 2.96 0.099 4.43 0.148z"/>
  <path fill="#000" d="m82.048 71.59l-2.93-0.01c0.978-0.228 1.955-0.365 2.93 0.01z"/>
  <path fill="#000" d="m234.63 70.806c0.69-0.004 1.39-0.008 2.07-0.012l-2.07 0.012z"/>
  <path fill="#000" d="m295.04 88.738c0 0.74-0.01 1.481-0.02 2.218 0.01-0.741 0.02-1.48 0.02-2.218z"/>
  <path fill="#000" d="m158.98 225.23c-0.73 0.06-1.46 0.11-2.2 0.16 0.74-0.05 1.47-0.1 2.2-0.16z"/>
  <path fill="#000" d="m163.12 84.101c-0.75 0.061-1.49 0.121-2.24 0.182 0.75-0.061 1.49-0.121 2.24-0.182z"/>
  <path fill="#000" d="m240.23 70.562c0.53-0.001 1.06-0.002 1.58-0.003-0.53 0.001-1.05 0.002-1.58 0.003z"/>
  <path fill="#000" d="m134.13 85.546c-0.66 0.059-1.31 0.118-1.97 0.177 0.66-0.059 1.31-0.118 1.97-0.177z"/>
  <path fill="#000" d="m163.07 38.674c-0.65 0.004-1.31 0.008-1.96 0.011 0.65-0.347 1.31-0.257 1.96-0.011z"/>
  <path fill="#000" d="m43.429 152.26c-0.545-0.03-0.989 0.24-1.297-0.28 0.503-0.4 0.794 0.06 1.297 0.28z"/>
  <path fill="#000" d="m144.56 108.4l-1.7-0.19 1.7 0.19z"/>
  <path fill="#000" d="m156.06 237.99c0.37 0.01 0.75 0.02 1.12 0.03-0.38-0.01-0.75-0.02-1.12-0.03z"/>
  <path fill="#000" d="m243.39 36.097c-0.59 0.053-1.17 0.106-1.76 0.158 0.59-0.053 1.17-0.105 1.76-0.158z"/>
  <path fill="#000" d="m57.72 214.18h-1.687 1.687z"/>
  <path fill="#000" d="m12.487 204.18h-1.704 1.704z"/>
  <path fill="#000" d="m156.01 84.571c-0.57 0.056-1.15 0.113-1.73 0.17 0.58-0.057 1.16-0.114 1.73-0.17z"/>
  <path fill="#000" d="m139.92 85.508c-0.56-0.066-1.13-0.131-1.7-0.196 0.56 0.11 1.19-0.325 1.7 0.196z"/>
  <path fill="#000" d="m191.31 108.33c0.35-0.04 0.85-0.17 1.21-0.11-0.05 0.21-1.08 0.11-1.21 0.11z"/>
  <path fill="#000" d="m155.32 152.92c0.38 0.01 0.76 0.02 1.14 0.02-0.39 0-0.76-0.01-1.14-0.02z"/>
  <path fill="#000" d="m120.94 107.51c-0.55 0.05-1.11 0.1-1.66 0.16 0.55-0.06 1.11-0.11 1.66-0.16z"/>
  <path fill="#000" d="m58.711 105.61c0.303 0.01 0.606 0.01 0.905 0.02-0.304-0.01-0.605-0.01-0.905-0.02z"/>
  <path fill="#000" d="m140.63 107.92c-0.48 0-0.95-0.01-1.43-0.02 0.48 0.01 0.95 0.02 1.43 0.02z"/>
  <path fill="#000" d="m52.405 104.32c-0.481 0.06-0.961 0.12-1.441 0.18 0.481-0.06 0.961-0.12 1.441-0.18z"/>
  <path fill="#000" d="m118.33 100.23c0.3 0.01 0.59 0.02 0.89 0.04-0.3-0.01-0.6-0.03-0.89-0.04z"/>
  <path fill="#000" d="m140.97 150.24c0.3-0.01 0.61-0.03 0.9-0.05-0.3 0.01-0.6 0.04-0.9 0.05z"/>
  <path fill="#000" d="m164.03 111.08c-0.49-0.06-0.97-0.12-1.46-0.18 0.49 0.06 0.97 0.12 1.46 0.18z"/>
  <path fill="#000" d="m47.073 186.06c0.314 0 0.629-0.01 0.94-0.01-0.316 0-0.628 0.01-0.94 0.01z"/>
  <path fill="#000" d="m21.245 146.9c-0.501-0.05-1.002-0.1-1.503-0.16 0.501 0.06 1.002 0.11 1.503 0.16z"/>
  <path fill="#000" d="m10.554 204.25c-0.493 0.06-0.9851 0.11-1.4779 0.17 0.4931-0.06 0.9849-0.11 1.4779-0.17z"/>
  <path fill="#000" d="m279.02 70.726c-0.04 0.426-0.08 0.853-0.12 1.278 0.04-0.427 0.08-0.853 0.12-1.278z"/>
  <path fill="#000" d="m60.664 213.75c-0.496 0.06-0.991 0.11-1.486 0.17 0.495-0.06 0.991-0.11 1.486-0.17z"/>
  <path fill="#000" d="m55.803 214.24c-0.501 0.35-1.003 0.37-1.504 0h1.504z"/>
  <path fill="#000" d="m46.297 214.66h-1.458 1.458z"/>
  <path fill="#000" d="m103.16 48.645c-0.05-0.433-0.09-0.865-0.13-1.295 0.04 0.433 0.08 0.864 0.13 1.295z"/>
  <path fill="#000" d="m156.25 38.992c-0.49 0.061-0.98 0.121-1.46 0.181 0.49-0.06 0.97-0.12 1.46-0.181z"/>
  <path fill="#000" d="m157.98 38.763c-0.49 0.056-0.99 0.112-1.49 0.168 0.5-0.056 1-0.112 1.49-0.168z"/>
  <path fill="#000" d="m80.877 96.362c0.305-0.005 0.611-0.01 0.912-0.014-0.307 0.004-0.609 0.009-0.912 0.014z"/>
  <path fill="#000" d="m125.11 91.574c1.62-0.267 3.24-0.357 4.86 0h-4.86z"/>
  <path fill="#000" d="m168.34 73.303c0.34-0.883 0.42-1.215 1.25-1.672-0.35 0.859-0.4 1.317-1.25 1.672z"/>
  <path fill="#000" d="m207.87 160.69c0.04 0.92 0.07 1.84 0.1 2.76-0.03-0.92-0.06-1.84-0.1-2.76z"/>
  <path fill="#000" d="m266.66 37.146c-0.73 0.016-1.46 0.033-2.19 0.05 0.73-0.017 1.46-0.034 2.19-0.05z"/>
  <path fill="#000" d="m168.97 177.01c0.03 0.77 0.05 1.53 0.08 2.3-0.03-0.77-0.05-1.53-0.08-2.3z"/>
  <path fill="#000" d="m79.102 152.49c0.741 0.01 1.482 0.01 2.223 0.02-0.741-0.01-1.482-0.01-2.223-0.02z"/>
  <path fill="#000" d="m142.07 113.18c-0.45 0-0.89 0-1.33 0.01 0.44 0 0.89-0.01 1.33-0.01z"/>
  <path fill="#000" d="m140.62 88.847c-0.37-0.013-0.74-0.025-1.1-0.037 0.37 0.013 0.73 0.025 1.1 0.037z"/>
  <path fill="#000" d="m88.123 152.26c0.579-0.06 1.158-0.11 1.738-0.17-0.58 0.06-1.159 0.11-1.738 0.17z"/>
  <path fill="#000" d="m75.503 152.52c0.567-0.01 1.135-0.02 1.702-0.03-0.567 0.01-1.135 0.02-1.702 0.03z"/>
  <path fill="#000" d="m81.56 152.5c0.588-0.05 1.175-0.1 1.763-0.15-0.587 0.05-1.175 0.1-1.763 0.15z"/>
  <path fill="#000" d="m83.703 153.44c-0.292 0-0.584 0-0.873-0.01 0.294 0.01 0.583 0.01 0.873 0.01z"/>
  <path fill="#000" d="m207.62 140.28c0.04-0.43 0.09-0.86 0.13-1.29-0.04 0.43-0.09 0.86-0.13 1.29z"/>
  <path fill="#000" d="m119.89 96.671c0.37 0.032 0.74 0.063 1.11 0.095-0.41 0.021-0.82 0.042-1.24 0.063 0.01-0.085 0.05-0.137 0.13-0.158z"/>
  <path fill="#000" d="m214.57 169.24c-0.03-0.39-0.05-0.79-0.07-1.18 0.02 0.4 0.04 0.79 0.07 1.18z"/>
  <path fill="#000" d="m126.51 95.172c-0.3 0.006-0.59 0.012-0.89 0.017 0.3-0.005 0.59-0.011 0.89-0.017z"/>
  <path fill="#000" d="m234.8 144.77c0.5 0.06 0.99 0.12 1.48 0.17-0.49-0.05-0.98-0.11-1.48-0.17z"/>
  <path fill="#000" d="m132.38 112.22c-0.3 0-0.6 0-0.9 0.01 0.3-0.01 0.6-0.01 0.9-0.01z"/>
  <path fill="#000" d="m114.83 52.742c0.32 0.171 0.15 0.92-0.16 0.848 0.06-0.283 0.11-0.565 0.16-0.848z"/>
  <path fill="#000" d="m279.05 141.74c-0.3-0.01-0.59-0.02-0.88-0.03 0.29 0.01 0.59 0.02 0.88 0.03z"/>
  <path fill="#000" d="m100.93 48.86c-0.03-0.66-0.06-1.32-0.09-1.978 0.03 0.661 0.06 1.319 0.09 1.978z"/>
  <path fill="#000" d="m156.34 235.43c0.45 0.07 0.9 0.14 1.35 0.2-0.45-0.06-0.9-0.13-1.35-0.2z"/>
  <path fill="#000" d="m153.36 65.576c-1.59 0.328-3.22 0.499-4.77 0.982-0.39 0.12-1.66 0.86-2.13 0.665-0.7-0.297-0.34-1.058-0.05-1.464 0.8-1.086 2.22-1.695 3.52-1.681s3.09-0.034 3.43 1.498z"/>
  <path fill="#000" d="m148.94 68.49c1.76 1.227 3.09 1.832 3.24-0.927 1.9 0.259 1.05 3.32-0.39 3.551-1.56 0.251-2.6-1.313-2.85-2.624z"/>
 </g>
 <defs>
  <clipPath id="clip0">
   <rect width="338" fill="#fff" height="254"/>
  </clipPath>
 </defs>
</svg>
