<?xml version="1.0" encoding="UTF-8" standalone="no"?>
<svg width="120" xmlns="http://www.w3.org/2000/svg" fill="none" viewBox="0 0 120 120" height="120">
 <mask id="mask0" mask-type="alpha" height="120" width="120" y="0" x="0" maskUnits="userSpaceOnUse">
  <path d="m120 60c0 33.137-26.863 60-60 60s-60-26.863-60-60 26.863-60 60-60 60 26.863 60 60z" fill="#76B2A4"/>
 </mask>
 <g mask="url(#mask0)">
  <circle cy="60" cx="60" r="60" fill="#EF3F51"/>
  <path d="m60.068 68.219h-10.725v13.873c0 2.06 3.401 8.594 10.725 8.594v-22.467z" fill="#EDBD9F"/>
  <path d="m60.068 40.741c-12.084 0-13.874 8.332-13.874 19.01 0 11.815 7.068 19.657 13.874 19.657v-38.667z" fill="#F5D0B5"/>
  <path d="m46.357 58.329c-0.851-3.177-2.014-3.177-2.507-2.372-0.492 0.806-0.121 2.732 0.715 5.808 0.669 2.462 1.341 3.617 2.282 2.686 0.942-0.931-0.49-6.122-0.49-6.122z" fill="#F5D0B5"/>
  <path d="m44.679 84.555l-0.105 0.016c-1.201 0.179-18.969 1.897-20.773 9.113-1.108 4.431-3.357 26.316-3.357 26.316h39.624v-28.875l-15.389-6.57z" fill="#F2F1F0"/>
  <path d="m60.068 99.089h-3.272l-0.702 20.911h3.974v-20.911z" fill="#991E3A"/>
  <path d="m60.068 91.125h-2.879l-2.484 4.372 2.091 3.592h3.272v-7.964z" fill="#C62444"/>
  <path d="m56.795 99.114l-12.116-14.559 10.537 11.819 1.58 2.715-0.001 0.025z" fill="#BEBCBA"/>
  <path d="m57.386 99.825l-0.591-0.711 0.001-0.025h0.817l-0.227 0.736z" fill="#791A2F"/>
  <path d="m57.613 99.089h-0.817l-1.58-2.715 2.17 2.435 2.682-7.684-2.455 7.964z" fill="#9B1F37"/>
  <path d="m53.307 84.555l-3.964-3.491c-1.912 1.074-4.664 3.491-4.664 3.491l12.707 14.254 2.682-7.684v-0.617l-6.761-5.953z" fill="#fff"/>
  <path d="m60.068 68.219h10.725v13.873c0 2.06-3.401 8.594-10.725 8.594v-22.467z" fill="#DCAD95"/>
  <path d="m60.068 40.741c12.084 0 13.873 8.332 13.873 19.01 0 11.815-7.068 19.657-13.873 19.657v-38.667z" fill="#DFBBA5"/>
  <path d="m73.779 58.329c0.85-3.177 2.014-3.177 2.506-2.372 0.492 0.806 0.121 2.732-0.715 5.808-0.669 2.462-1.34 3.617-2.282 2.686-0.941-0.931 0.491-6.122 0.491-6.122z" fill="#DFBBA5"/>
  <path d="m75.457 84.555l0.105 0.016c1.201 0.179 18.968 1.897 20.772 9.113 1.108 4.431 3.357 26.316 3.357 26.316h-39.623v-28.875l15.389-6.57z" fill="#E2DCD4"/>
  <path d="m60.068 99.089h3.271l0.703 20.911h-3.974v-20.911z" fill="#86152F"/>
  <path d="m60.068 91.125h2.878l2.485 4.372-2.092 3.592h-3.271v-7.964z" fill="#AF2144"/>
  <path d="m60.068 91.125l0.201-0.225 0.242-0.222c0.243-0.009 0.482-0.025 0.716-0.048l-1.159 0.495zm7.165-3.059c2.407-2.06 3.56-4.775 3.56-5.974v-1.028c1.911 1.119 4.664 3.491 4.664 3.491l-8.224 3.511z" fill="#5C8C84"/>
  <path d="m60.511 90.678l6.519-5.978 3.763-3.636v1.028c0 1.199-1.153 3.914-3.56 5.974l-6.006 2.564c-0.234 0.023-0.473 0.039-0.716 0.048z" fill="#AD8A77"/>
  <path d="m63.34 99.115l-0.001-0.026 2.092-3.592-2.485-4.372h-2.878l1.159-0.495 6.006-2.564 8.224-3.511-12.117 14.56z" fill="#B0ACA4"/>
  <path d="m62.749 99.825l-0.227-0.736h0.817l0.001 0.026-0.591 0.71z" fill="#6A1226"/>
  <path d="m63.339 99.089h-0.817l-2.454-7.964h2.878l2.485 4.372-2.092 3.592z" fill="#891C36"/>
  <path d="m66.828 84.555l3.965-3.491c1.911 1.074 4.664 3.491 4.664 3.491l-12.708 14.254-2.681-7.684v-0.617l6.76-5.953z" fill="#fff"/>
  <path d="m51.847 51.571s4.096-0.605 8.221-2.16v-1.305c-3.657 2.259-8.221 3.465-8.221 3.465z" fill="#534D42"/>
  <path d="m49.402 49.405c0.108-0.158 0.221-0.313 0.34-0.465 1.549-1.982 4.12-3.538 6.708-4.34-2.005 2.445-5.341 4.082-7.048 4.805zm-3.785-6.829c-2.146 8.924 0.268 17.078 0.556 17.887 1.221 0.244 0.149-6.248 3.053-10.789 2.018-0.375 7.019-1.464 10.842-3.625v-13.051c-7.788 0-12.966 3.399-14.451 9.578z" fill="#534D42"/>
  <path d="m52.853 50.319s3.771-0.725 7.215-2.631v-1.621c-2.893 2.764-7.215 4.252-7.215 4.252z" fill="#534D42"/>
  <path d="m60.068 46.049v0.018l0.044-0.042-0.044 0.024z" fill="#534D42"/>
  <path d="m67.002 45.106c1.666 0.682 2.994 1.703 3.988 3.144 4.467 6.478 1.684 12.471 2.973 12.213 0.288-0.809 4.561-8.402 1.494-18.275-0.888-2.856-3.829-3.266-3.829-3.266 0.472-3.358-1.869-6.515-1.869-6.515s0.368 1.478 0.337 3.064c-0.775-1.673-2.204-3.516-4.816-4.144 0 0 1.354 1.255 2.407 2.947l-0.056-0.028c-1.755-1.778-3.553-3.229-6.983-3.13 0 0 0.527 0.786 2.413 2.024-0.956-0.097-1.957-0.142-2.993-0.142v13.051l0.044-0.024-0.044 0.042v1.621c1.291-0.714 2.537-1.594 3.52-2.666-0.827 1.18-2.106 2.211-3.52 3.085v1.304c2.666-1.006 5.343-2.408 6.934-4.305z" fill="#423C34"/>
 </g>
</svg>
