<?xml version="1.0" encoding="UTF-8" standalone="no"?>
<svg width="120" xmlns="http://www.w3.org/2000/svg" viewBox="0 0 120 120" height="120">
 <path d="m120 60c0 33.137-26.862 60-60 60s-60-26.863-60-60 26.862-60 60-60 60 26.863 60 60z" fill="#4E6DBE"/>
 <path d="m73.301 78.199c0.008 0.029 0.014 0.057 0.022 0.086-0.046-0.022-0.1-0.046-0.145-0.066 0.039-0.006 0.083-0.014 0.123-0.02zm-13.301 41.801c16.334 0 31.135-6.54 41.95-17.12-0.93-5.705-2.247-10.572-4.163-13.073-2.084-2.724-10.958-5.584-16.944-7.418-1.406-1.016-3.126-1.975-4.709-2.773 4.175 0.259 8.444-1.055 11.714-3.696-1.469 0.166-2.99-0.165-4.262-0.926 0.51-0.143 1.021-0.286 1.531-0.428-3.508-0.714-6.547-3.348-7.84-6.71 1.143-1.645 2.626-3.03 4.11-4.382 0.013 0.235 0.028 0.47 0.041 0.705 1.641-2.074 3.308-4.19 4.242-6.664 1.365-3.618 0.982-7.853-1.013-11.167 0.345 0.123 0.691 0.244 1.035 0.366-3.224-3.602-5.336-8.185-5.981-12.976-0.367-2.727-0.295-5.608-1.546-8.059-1.482-2.906-4.863-4.668-8.09-4.378 0.261-0.261 0.517-0.526 0.797-0.766-0.96 0.167-1.888 0.515-2.718 1.023 0.239-0.573 0.563-1.11 0.957-1.59-0.67 0.368-1.279 0.847-1.793 1.414 0.353-1.185 0.861-2.324 1.507-3.379-1.202 0.896-2.211 2.043-2.969 3.336-3.161-3.257-7.736-5.129-12.279-4.932-5.149 0.223-10.111 3.094-12.871 7.445 0.571-0.108 1.141-0.216 1.711-0.324-4.984 5.608-7.756 13.132-7.599 20.633 0.371-0.482 0.742-0.964 1.111-1.447 1.595 5.59 0.73 11.835-2.323 16.78 0.909-0.072 1.82-0.145 2.729-0.218 0.294 2.931 1.403 5.773 3.171 8.13 0.054-0.867 0.108-1.732 0.162-2.598 0.835 2.425 2.075 4.701 3.617 6.751-1.493 1.521-3.41 2.632-5.503 3.054 0.511 0.141 1.021 0.283 1.532 0.424-1.273 0.754-2.794 1.081-4.263 0.918 2.543 2.035 5.694 3.273 8.933 3.604-1.617 0.81-3.384 1.786-4.827 2.83-5.986 1.834-14.86 4.694-16.945 7.418-1.915 2.501-3.233 7.368-4.166 13.073 10.819 10.58 25.62 17.12 41.954 17.12z" fill="#233C70"/>
</svg>
