<?xml version="1.0" encoding="UTF-8" standalone="no"?>
<svg width="120" xmlns="http://www.w3.org/2000/svg" viewBox="0 0 120 120" height="120">
 <path d="m120 60c0 33.138-26.862 60-60 60-33.137 0-60-26.862-60-60s26.863-60 60-60c33.138 0 60 26.862 60 60z" fill="#F24E69"/>
 <path d="m105.61 86.812c-3.78-5.083-27.621-12.628-28.668-13.478-1.046-0.85-4.383-5.364-4.383-5.364h-0.229v-4.945c1.433-1.797 2.539-3.629 3.248-5.096 0.474-0.984 0.883-3.083 1.23-5.76 3.928-1.802 4.405-8.082 4.569-11.601 0.065-1.395-0.463-1.761-1.157-1.667 1.236-3.981 2.329-8.944 1.914-13.126 0.111-0.692 0.207-1.386 0.272-2.083 0.73 0.108 1.459 0.215 2.19 0.323-1.756-4.396-4.74-8.293-8.528-11.133 0.702-0.181 1.404-0.363 2.106-0.544-4.164-1.412-8.456-2.4411-12.809-3.0706 0.624-0.422 1.247-0.8431 1.871-1.2651-2.47-0.0082-4.938 0.466-7.236 1.3704-2.299-0.9044-4.767-1.3786-7.236-1.3704 0.623 0.422 1.246 0.8431 1.871 1.2651-4.352 0.6295-8.646 1.6586-12.81 3.0706 0.702 0.181 1.404 0.363 2.107 0.544-3.787 2.84-6.773 6.737-8.528 11.133 0.73-0.108 1.459-0.215 2.19-0.323 0.065 0.697 0.161 1.391 0.272 2.082-0.416 4.18 0.677 9.138 1.911 13.118-0.649-0.05-1.13 0.341-1.067 1.676 0.165 3.521 0.64 9.804 4.573 11.604 0.348 2.675 0.757 4.774 1.232 5.757 0.693 1.436 1.767 3.22 3.154 4.981v5.06h-0.229s-3.336 4.514-4.383 5.364c-1.046 0.85-24.887 8.395-28.672 13.478-1.42 1.905-2.587 4.514-3.553 7.557 10.849 15.491 28.819 25.631 49.168 25.631 20.348 0 38.319-10.14 49.17-25.631-0.97-3.043-2.14-5.652-3.56-7.557z" fill="#641A24"/>
</svg>
