<?xml version="1.0" encoding="UTF-8" standalone="no"?>
<svg width="120" xmlns="http://www.w3.org/2000/svg" viewBox="0 0 120 120" height="120">
 <path d="m120 59.999c0 33.138-26.863 60.001-60 60.001s-60-26.863-60-60.001c0-33.136 26.863-59.999 60-59.999 33.137 0.0000076294 60 26.863 60 59.999z" fill="#635CB3"/>
 <path d="m103.36 89.211c-2.7-3.621-16.107-8.559-23.072-11.144-2.372-0.889-3.635-1.362-4.183-1.667-0.995-0.808-4.166-5.099-4.166-5.099h-0.218v-3.767c2.196-2.384 3.854-5.02 4.82-7.02 0.671-1.387 1.337-6.126 1.337-6.126 4.216-1.904 4.725-8.626 4.901-12.387 0.089-1.901-0.856-2.01-1.88-1.595 0.041-0.354 0.061-0.689 0.092-1.035 1.491-3.852 2.561-7.841 2.656-11.951 0.146-6.299-2.395-12.983-7.736-16.327-4.966-3.1096-11.25-2.8459-17.097-2.478-3.281 0.2064-6.657 0.4373-9.615 1.873-2.958 1.435-5.031 4.593-4.873 7.877-1.422-1.699-4.326-1.337-5.911 0.21s-2.142 3.852-2.439 6.046c-0.489 3.628-0.453 7.38 0.622 10.879 0.532 1.73 1.338 3.396 2.393 4.867-0.98-0.362-1.856-0.199-1.771 1.634 0.176 3.756 0.685 10.466 4.887 12.379 0.372 2.848 0.806 5.087 1.311 6.134 0.972 2.013 2.644 4.669 4.86 7.064v3.723h-0.217s-3.172 4.291-4.167 5.099c-0.121 0.098-0.565 0.292-1.256 0.563-0.767 0.301-1.79 0.68-2.985 1.126-6.981 2.592-20.325 7.511-23.015 11.122-1.483 1.992-2.675 4.789-3.643 8.055 10.991 13.844 27.955 22.734 47.005 22.734s36.014-8.89 47-22.734c-0.96-3.266-2.16-6.063-3.64-8.055z" fill="#2E2C63"/>
</svg>
