<?xml version="1.0" encoding="UTF-8" standalone="no"?>
<svg width="120" xmlns="http://www.w3.org/2000/svg" viewBox="0 0 120 120" height="120">
 <path d="m120 60c0 33.137-26.863 60-60 60s-60-26.863-60-60 26.863-60 60-60 60 26.863 60 60z" fill="#29B573"/>
 <path d="m60 120c16.921 0 32.195-7.02 43.1-18.28-0.94-5.159-2.22-9.488-4.013-11.823-2.157-2.817-27.196-12.723-27.196-12.723s-0.287-1.564-0.288-1.78v-2.825l4.016 4.017c6.197-5.966 9.108-14.723 9.572-23.313 0.432-7.999-1.174-16.293-5.69-22.909-4.377-6.414-11.723-10.999-19.463-11.086 0-0.004-0.001-0.007-0.001-0.009-0.123-0.004-0.245 0.005-0.368 0.004-0.122 0.001-0.244-0.008-0.367-0.004 0 0.002-0.002 0.005-0.002 0.009-4.523 0.051-8.908 1.647-12.649 4.237-0.991 0.647-1.883 1.358-2.681 2.128-1.557 1.409-2.955 2.995-4.132 4.721-4.515 6.616-6.122 14.91-5.69 22.909 0.464 8.59 3.376 17.347 9.572 23.313l4.721-4.722v3.464h-0.044l-0.289 1.846s-25.039 9.906-27.196 12.723c-1.788 2.335-3.072 6.664-4.015 11.823 10.908 11.26 26.182 18.28 43.103 18.28z" fill="#0C6C40"/>
</svg>
