<?xml version="1.0" encoding="UTF-8" standalone="no"?>
<svg width="120" xmlns="http://www.w3.org/2000/svg" viewBox="0 0 120 120" height="120">
 <path d="m120 60c0 33.138-26.862 60-60 60s-60-26.862-60-60 26.862-60 60-60 60 26.862 60 60z" fill="#B0DD42"/>
 <path d="m105.62 86.811c-3.79-5.083-27.631-12.627-28.678-13.477-1.047-0.851-4.383-5.364-4.383-5.364h-0.229v-4.945c1.433-1.798 2.539-3.63 3.249-5.096 0.474-0.985 0.881-3.083 1.23-5.761 3.927-1.801 4.403-8.082 4.569-11.601 0.08-1.71-0.733-1.873-1.646-1.539 0.035-0.069 0.063-0.133 0.099-0.2 0.873-1.408 1.522-2.954 1.912-4.563 3.017-9.495-1.469-15.201-3.753-17.359-0.367-0.408-0.764-0.77-1.198-1.079-0.281-0.517-0.626-0.997-1.056-1.408-1.894-1.805-4.76-1.985-7.372-2.138-2.611-0.153-5.51-0.524-7.186-2.5322 0.402 0.6192 0.803 1.2382 1.206 1.8572-3.716-0.993-6.943-3.6844-8.585-7.1628-0.073 0.7245-0.147 1.449-0.221 2.1735-0.968-0.8195-1.634-1.9876-1.844-3.2383-5.423 3.3027-8.777 9.6026-8.804 15.92-1.698 1.519-3.042 3.43-3.926 5.531-0.256 0.446-0.442 0.976-0.564 1.577-0.349 1.174-0.563 2.389-0.613 3.614-0.121 2.964 0.688 5.942 2.218 8.482 0.046 0.155 0.089 0.313 0.135 0.467-0.84-0.248-1.546-0.001-1.47 1.598 0.165 3.521 0.641 9.805 4.573 11.604 0.348 2.676 0.756 4.775 1.231 5.758 0.694 1.435 1.768 3.22 3.156 4.98v5.061h-0.23s-3.336 4.513-4.383 5.364c-1.046 0.85-24.887 8.394-28.672 13.477-1.42 1.906-2.587 4.515-3.554 7.558 10.849 15.491 28.82 25.631 49.169 25.631s38.319-10.14 49.17-25.631c-0.97-3.043-2.14-5.652-3.55-7.558z" fill="#3F5B23"/>
</svg>
