<?xml version="1.0" encoding="UTF-8" standalone="no"?>
<svg width="120" xmlns="http://www.w3.org/2000/svg" viewBox="0 0 120 120" height="120">
 <path d="m120 60c0 33.138-26.863 60-60 60s-60-26.862-60-60 26.863-60 60-60 60 26.862 60 60z" fill="#F8A037"/>
 <path d="m60 120c16.28 0 31.036-6.49 41.85-17.02-0.94-6.155-2.293-11.484-4.323-14.135-2.071-2.705-10.883-5.546-16.827-7.368-3.598-2.598-9.283-4.848-9.283-4.848s-0.036 0.095-0.101 0.266c0.032-0.085 0.058-0.153 0.074-0.196-0.226-0.853-0.25-1.571-0.251-1.779v-2.992c0.789-1.016 1.489-2.075 2.114-3.153 10.808-4.704 7.638-19.523 7.638-19.523 1.404 1.405 4.412 1.004 4.412 1.004-0.911-0.207-1.479-1.257-1.934-2.835 2.531 0.909 5.246 1.306 7.95 1.077-4.215-2.048-6.659-6.542-8.19-10.971s-2.459-9.139-4.906-13.136c-2.427-3.961-6.309-7.01-10.735-8.426s-9.356-1.189-13.633 0.63c-2.629 1.118-4.785 3.082-5.917 5.706-2.28-0.237-4.549 0.899-6.11 2.576-1.561 1.679-2.5 3.842-3.176 6.031-1.728 5.603-1.906 11.576-1.494 17.424 0.387 5.47 1.354 11.105 4.443 15.636 1.537 2.256 3.719 4.166 6.178 5.353 0.352 0.581 0.722 1.158 1.124 1.723v3.812h-0.042s0.019 0.826-0.25 1.844c-0.018-0.045-0.028-0.071-0.028-0.071s-5.684 2.25-9.282 4.848c-5.944 1.822-14.757 4.663-16.827 7.368-2.03 2.651-3.385 7.98-4.319 14.135 10.809 10.53 25.565 17.02 41.845 17.02z" fill="#5B3613"/>
</svg>
