<?xml version="1.0" encoding="UTF-8" standalone="no"?>
<svg width="26" xmlns="http://www.w3.org/2000/svg" fill="none" viewBox="0 0 26 20" height="20">
 <path d="m25.675 10c0 0.733-0.6 1.333-1.333 1.333h-19.467l6.033 6.067c0.534 0.533 0.534 1.367 0 1.9-0.266 0.267-0.6 0.4-0.9328 0.4-0.3334 0-0.7-0.133-0.9334-0.4l-8.3-8.333c-0.5333-0.534-0.5333-1.367 0.00003-1.867l8.3-8.3334c0.5334-0.5333 1.3662-0.5333 1.9002 0.00003 0.533 0.53337 0.533 1.3667 0 1.9l-6.0668 6h19.467c0.733 0 1.333 0.6 1.333 1.3334z" fill="#000"/>
</svg>
