<svg width="338" height="254" viewBox="0 0 338 254" fill="none" xmlns="http://www.w3.org/2000/svg">
<g clip-path="url(#clip0)">
<path fill-rule="evenodd" clip-rule="evenodd" d="M262.413 37.2617C262.533 38.2958 263.814 37.5061 263.934 38.0667C264.009 38.4189 262.69 39.293 262.406 39.5338C263.325 40.0887 264.498 38.8101 265.187 38.2744C265.542 38.6603 265.662 38.863 265.336 39.3046C264.761 40.0841 264.787 39.0512 264.103 39.5936C264.388 40.0732 264.638 39.7983 265 39.6694C264.842 40.5921 265.195 40.008 265.471 40.5924C265.696 41.0677 265.668 41.4189 265.735 41.9497C265.411 42.6972 265.086 43.445 264.761 44.1924C264.371 45.0917 264.487 45.3807 263.532 45.0801C263.639 44.8936 264.354 43.9814 264.296 43.7572C264.23 43.5009 263.253 43.1463 262.994 42.931C262.54 42.5523 262.545 42.2276 262.255 41.8208C262.371 41.4424 262.281 41.2655 261.986 41.2909L261.661 42.1677C261.688 42.7898 262.212 42.7316 262.522 43.3259C262.996 44.2354 262.73 43.6986 262.343 44.4305C261.963 45.1495 261.92 46.0673 261.295 46.4288C261.631 46.5766 261.967 46.7245 262.303 46.872C261.519 47.7345 263.15 47.3145 263.42 47.2308C263.144 47.8179 262.868 48.4049 262.592 48.992C261.765 48.5283 261.357 47.6492 260.807 46.9233L259.549 49.2655C259.966 49.2268 260.383 49.1884 260.8 49.1497C260.742 49.2598 260.208 50.0152 260.253 50.1832C260.44 50.8682 261.859 50.4819 261.702 51.3778C261.682 51.4926 260.41 52.7781 260.192 52.9022C260.831 53.1899 261.12 53.0705 260.891 53.8262L260.001 53.2868C259.748 53.7416 259.455 54.1857 259.294 54.6838C259.325 55.0096 259.267 55.3181 259.12 55.6099C258.945 55.8708 258.748 56.1142 258.528 56.3398C258.355 56.7978 258.299 59.2981 258.508 59.7059C258.975 59.1017 260.018 60.1683 258.257 60.1683C257.486 60.1683 257.538 60.0076 257.243 60.6862C257.012 61.2203 256.886 61.6863 257.544 61.7376C257.049 62.7129 257.155 63.4643 257.11 64.5038C257.074 65.3459 256.838 66.1829 256.664 67.0091C256.82 66.7839 256.977 66.559 257.133 66.3337C257.555 67.2347 257.234 67.9933 257.033 68.9574C256.596 68.3783 256.542 69.4115 256.168 69.3047C255.404 69.0864 255.976 68.9257 255.666 68.424C255.397 67.9894 255.425 67.8647 254.928 67.5991C254.268 67.2469 253.112 67.2337 252.366 67.1093C251.112 66.8996 249.856 66.847 248.587 66.7918C243.837 66.5854 239.104 66.5325 234.355 66.7941C229.986 67.0349 225.51 67.6487 221.226 68.4802C216.665 69.3652 212.203 70.1814 207.786 71.6787C206.932 71.968 206.077 72.5716 205.224 72.7836C204.414 72.985 203.603 72.9824 202.759 73.2761C200.738 73.9792 198.647 74.5123 196.61 75.1834C194.416 75.9067 192.04 76.5099 189.952 77.5111C189.045 77.946 188.221 78.5357 187.314 78.9762C186.46 79.3913 185.023 79.7699 184.572 80.7284C184.396 81.1021 184.426 81.373 184.535 81.7603C184.755 82.5375 184.928 82.4535 185.523 82.4009C186.352 82.3275 187.424 81.6816 188.228 81.4276C190.43 80.7324 192.659 80.1757 194.899 79.6188C198.921 78.6183 202.958 76.847 206.927 76.1541C209.281 75.7433 211.511 74.6261 213.878 74.2041C214.397 74.1118 215.9 73.3693 216.326 73.626C216.439 73.6938 216.716 74.5087 216.813 74.7035C217.163 75.4033 217.563 76.079 218.033 76.7057C219.448 78.5955 221.345 80.1175 223.039 81.7461C224.973 83.6064 226.654 85.6586 228.44 87.6555C228.595 87.4753 228.75 87.295 228.905 87.1151C228.741 88.3762 229.684 89.2857 230.455 90.1419C231.369 91.1593 232.105 92.1154 232.826 93.2753C233.418 94.2265 234.175 95.0592 234.844 95.9257C235.502 96.7784 235.939 97.8073 236.544 98.726C237.933 100.836 239.3 102.987 240.701 105.069C241.36 106.049 241.881 107.152 242.403 108.268C242.817 109.153 244.064 110.963 244.064 111.822C243.974 112.243 244.885 114.774 243.912 113.581C243.756 113.822 243.601 114.063 243.445 114.303C243.712 114.192 243.977 114.08 244.244 113.968C243.436 114.701 244.945 114.795 244.978 115.205C244.843 115.335 244.709 115.465 244.575 115.595C244.345 116.069 244.046 116.131 243.679 115.78C243.274 115.805 243.193 115.578 242.741 115.729C243.172 116.403 243.728 115.977 243.946 116.909C244.138 117.73 243.529 117.906 242.886 118.392L242.846 118.422L242.832 118.471C242.692 118.891 242.294 118.712 241.851 118.62C240.791 118.402 239.621 117.983 238.589 117.66C236.358 116.963 234.111 116.376 231.805 115.899C226.544 114.812 221.324 114.863 216.015 114.519C216.155 113.936 216.156 113.988 215.99 113.626C216.203 114.089 214.92 113.485 215.887 114.508C213.42 114.912 210.755 114.608 208.253 114.743C208.369 114.483 208.637 114.184 208.387 113.995C207.202 115.712 203.244 114.976 201.287 115.221C200.139 115.366 199.003 115.643 197.858 115.825L197.376 115.901C196.974 115.965 196.572 116.035 196.18 116.142C195.674 116.278 194.831 116.839 194.351 116.709C195.053 115.291 194.243 116.519 194.133 116.535C193.8 116.584 193.226 116.697 192.747 116.697C193.293 114.5 194.229 112.476 194.606 110.214C194.842 108.804 195.488 106.533 194.097 105.533C193.334 104.985 192.084 104.867 191.201 104.68C190.234 104.476 188.543 104.485 187.701 103.937C187.043 103.508 186.904 103.115 186.043 102.787C185.049 102.41 184.591 102.035 183.587 102.34C183.996 101.828 184.568 101.454 183.766 100.93C183.438 100.716 182.794 101.004 182.679 100.536C182.084 100.957 182.225 101.297 182.066 101.874C182.081 102.118 182.145 102.351 182.259 102.572C181.944 102.699 181.629 102.826 181.315 102.953C181.515 102.414 180.927 102.735 180.81 102.471C180.636 102.075 180.739 101.47 180.739 101.041C180.09 101.246 179.412 101.5 179.128 102.177C178.333 101.702 178.649 101.67 179.056 100.958C178.389 100.8 178.248 101.144 178.146 101.697C177.795 101.588 177.442 101.479 177.09 101.371C177.884 101.365 178.074 100.744 178.093 100.069C177.784 100.17 177.476 100.271 177.167 100.371C177.103 100.697 177.04 101.024 176.977 101.35C176.49 101.763 175.226 101.018 174.815 100.804C173.385 100.061 172.861 99.8462 173.063 98.1575C173.232 96.742 173.605 95.3195 173.688 93.8967C173.78 92.3162 173.596 90.6258 173.457 89.0502C173.189 86.0012 172.758 82.9965 172.607 79.935C172.525 78.2774 172.434 76.6194 172.369 74.9608C172.318 73.6425 171.863 72.1919 173.505 72.0749C173.304 71.4366 173.905 70.6984 174.526 70.3488C174.742 69.8537 174.979 69.8094 175.237 70.2165C175.461 70.2869 175.669 70.2539 175.861 70.1166C176.765 69.9112 177.849 68.6264 178.66 68.163C179.456 67.7089 181.19 67.0488 181.759 66.2841C182.308 65.5443 181.477 65.6276 181.645 64.9496C181.874 64.0229 182.709 65.3538 182.837 65.539C183.116 65.2582 184.181 64.7317 184.169 64.3236C183.908 64.2769 183.647 64.2303 183.386 64.1837C183.671 64.0186 184.304 63.5259 184.635 63.4607C185.199 63.3499 184.988 63.2067 185.44 63.8295C185.597 63.5854 185.979 62.7834 186.218 62.621C186.332 62.5433 187.011 62.4917 187.153 62.4414C187.892 62.1798 187.817 61.604 188.36 61.3301C188.624 61.1975 188.948 61.4012 189.169 61.3047C189.522 61.1499 189.523 60.6217 189.844 60.4302C190.121 60.2642 190.824 60.4021 191.155 60.2814C191.704 60.0806 191.68 59.8938 192.089 59.5273C192.663 59.0137 193.191 59.0881 193.831 58.6989C194.494 58.2954 194.392 57.3869 194.993 57.2136C195.796 56.9824 196.002 57.7444 196.439 56.9916C196.537 56.8226 196.092 56.57 196.371 56.2988C196.716 55.9647 196.858 56.3633 197.016 56.6229L197.562 55.592C198.436 56.0715 198.069 55.4531 198.736 55.1237C199.032 54.9775 199.276 55.2662 199.6 55.0896C199.839 54.96 199.88 54.6775 200.051 54.5026C200.381 54.1662 200.563 53.7045 201.073 53.5444C200.889 53.602 202.401 53.5583 202.266 53.4935C202.119 53.2772 201.972 53.0609 201.824 52.8446C202.616 52.8446 203.306 52.9233 204.072 52.6852C204.343 52.6012 204.766 52.4716 204.992 52.2989C205.611 51.8243 205.472 51.9401 205.472 51.0683C206.326 51.6133 207.414 51.4228 208.258 50.7908C208.698 50.4607 208.98 50.0658 209.463 49.7675C209.67 49.66 209.881 49.5595 210.095 49.4662C210.363 49.1884 210.631 49.1858 210.9 49.4586C211.281 49.3564 211.276 49.286 211.571 49.1011C211.656 48.9338 211.745 48.7694 211.842 48.6083C212.158 48.5752 212.47 48.518 212.777 48.4367C213.971 48.1149 214.692 47.3165 215.8 48.0239C215.942 47.7345 216.084 47.4448 216.225 47.1551C216.697 47.8933 217.019 47.1882 217.645 46.8892C217.907 46.7638 218.248 46.7328 218.485 46.6183L218.886 46.7132C218.999 46.3627 219.112 46.0121 219.225 45.6615C219.453 45.7505 220.357 46.237 220.629 46.2112C221.018 46.1745 221.483 45.514 221.861 45.3893C222.436 45.1992 222.23 45.4505 222.795 45.4545C223.23 45.4575 223.435 45.5193 223.811 45.1535C222.541 44.8231 224.143 44.6673 224.678 44.5556C225.511 44.3816 225.941 44.5675 226.52 43.9077H225.919C226.512 43.3669 226.312 43.5577 226.937 43.6107C227.133 43.6269 227.989 44.0975 227.991 43.4698C228.798 43.9464 228.807 43.9473 229.639 43.7324C230.007 43.6371 230.321 43.3272 230.726 43.32C231.121 43.313 231.404 43.4919 231.756 43.4536C231.967 43.4311 232.706 43.1536 232.955 43.0626C233.351 42.9181 233.612 42.6095 233.99 42.4902C234.407 42.3582 234.937 42.515 235.375 42.4187C236.676 42.1316 237.44 41.3511 238.849 41.7738C239 40.5101 240.572 40.7912 241.418 40.9215C242.006 41.0125 242.306 41.2512 242.916 40.9622C243.413 40.727 243.695 40.354 244.248 40.1661C244.672 40.0219 245.243 39.9171 245.685 39.8251C245.959 39.7385 246.239 39.7107 246.524 39.7421C246.811 39.7824 247.052 39.9075 247.245 40.1169L247.281 40.1582C247.325 40.0539 247.992 39.5589 247.915 39.6201C248.413 39.2209 248.647 39.3734 248.953 38.5962L247.886 38.3706C248.435 38.3336 248.848 38.2701 249.336 38.484C249.674 38.6319 250.241 39.4154 250.58 39.416C251.191 39.4167 251.405 38.5532 251.344 38.1037C251.858 39.3013 252.296 39.5007 253.448 38.8885C253.584 38.8164 253.719 38.7446 253.855 38.6725C254.129 38.3845 254.401 38.3898 254.673 38.6888L255.156 38.9523C255.35 38.6292 255.543 38.3064 255.737 37.9833C256.149 38.5508 256.539 38.5786 257.21 38.446C257.673 38.3544 258.622 37.5147 258.963 37.515C259.161 37.515 259.413 37.9979 259.743 38.0921C260.288 38.2489 261.136 37.8547 261.331 37.3314C261.434 37.5497 261.537 37.7683 261.64 37.9869C261.898 37.7455 262.157 37.5047 262.413 37.2617ZM242.828 118.418L242.828 118.437L242.846 118.422L242.846 118.422L242.828 118.418ZM242.159 117.279V118.296L242.503 118.359L242.828 118.418L242.832 118.363C242.846 117.873 242.596 117.511 242.159 117.279ZM211.785 113.233C211.678 113.562 211.571 113.892 211.464 114.221C211.825 114.251 212.186 114.28 212.547 114.31C212.293 113.951 212.039 113.592 211.785 113.233ZM169.394 87.1734C170.183 87.4042 170.172 87.3761 170.331 88.1077C171.232 92.2715 168.443 97.0473 170.491 101.005C164.505 100.957 158.506 101.077 152.555 101.779C152.555 99.5119 152.629 97.2493 152.458 94.9855C152.38 93.9579 152.265 92.934 152.16 91.9091C152.028 90.6083 152.07 90.6844 153.132 90.4605C153.69 90.3427 153.89 89.9882 154.423 89.7722C154.824 89.6098 155.003 89.8096 155.398 89.8652C156.104 89.965 156.113 89.8463 156.76 89.7081C158.148 89.4114 159.328 89.5172 160.425 88.4784C160.994 88.4291 160.809 88.957 161.206 88.9054C161.494 88.8677 161.677 88.3286 161.972 88.1999C162.886 87.7988 164.409 87.8967 165.41 87.7713C166.432 87.6437 167.337 87.1816 168.315 87.0447C168.718 86.9885 169.012 87.0616 169.394 87.1734ZM180.942 99.1907C180.748 99.9106 179.901 98.9734 179.888 99.5381L179.888 99.5882L179.89 99.5754C179.935 99.4802 180.792 100.617 180.742 100.579C181.202 100.927 181.47 100.894 181.992 100.495C181.058 100.46 181.161 99.8822 180.942 99.1907ZM183.545 100.208C183.886 100.396 183.99 99.9153 184.166 99.622C183.786 99.4318 183.729 99.8743 183.545 100.208ZM182.489 97.0757C182.622 97.5433 182.612 97.9018 182.612 98.3847C183.401 98.2729 183.649 98.2154 183.663 97.375L183.242 97.6406C183.021 97.2017 182.972 97.1676 182.489 97.0757ZM176.387 97.8585C176.565 97.7434 176.744 97.628 176.923 97.5126C176.659 97.1329 176.191 97.5843 176.387 97.8585ZM178.381 90.8715C178.609 90.7518 178.837 90.6321 179.065 90.5124C178.474 89.7566 178.43 90.0103 178.381 90.8715ZM177.557 84.8774H176.66C176.836 85.4549 177.557 85.5792 177.557 84.8774ZM265.392 51.2812C265.596 51.401 265.801 51.5207 266.006 51.6401C265.474 52.1259 264.82 52.6157 265.338 53.1852C265.749 53.6374 267.671 53.853 268.247 54.0177C268.047 54.2479 267.635 54.8769 267.363 55.0353C267.147 55.1607 266.95 54.6643 266.515 55.1587C267.237 55.5337 267.043 55.2497 266.856 56.0451C266.745 56.5144 266.349 57.0184 266.127 57.4394C265.584 58.4637 265.028 59.4813 264.459 60.491C263.291 62.5617 262.061 64.598 260.769 66.5937C260.551 65.4665 261.174 64.2035 261.497 63.116C261.904 61.7475 262.311 60.3796 262.72 59.012C263.51 56.3768 264.219 53.769 265.392 51.2812ZM234.039 54.7199C233.455 54.869 233.072 54.9662 232.468 55.1204C233.345 55.4002 233.345 55.4002 234.039 54.7199ZM259.892 49.6402C259.147 49.9894 259.068 50.2431 259.67 50.6704C259.742 50.338 259.794 50.0943 259.892 49.6402ZM259.802 41.3756C259.701 41.8191 259.074 41.3925 258.936 41.7166C258.618 42.4581 259.628 42.3575 259.991 42.3129C259.928 42.0003 259.865 41.6881 259.802 41.3756ZM264.021 40.8127C263.822 41.7609 263.822 41.7609 264.745 41.9034C264.503 41.5383 264.3 41.2321 264.021 40.8127ZM247.281 40.1582L247.28 40.1682C247.28 40.1721 247.283 40.1746 247.288 40.1756L247.297 40.176L247.281 40.1582Z" fill="#FFF98C"/>
<path fill-rule="evenodd" clip-rule="evenodd" d="M130.579 139.474C130.44 140.196 130.09 140.536 130.456 141.199C130.768 141.762 131.66 142.131 132.259 141.988L130.579 139.474ZM114.348 113.794L111.393 114.809C112.201 115.603 112.97 116.438 113.861 117.143L114.348 113.794ZM163.094 116.393C161.684 115.682 160.106 115.601 158.561 115.51C158.795 116.781 159.031 118.052 159.266 119.323C160.542 118.347 161.818 117.37 163.094 116.393ZM129.25 214.784C128.969 214.284 127.05 210.428 126.652 210.627C126.44 210.731 126.423 212.878 126.392 213.183C126.283 214.27 126.172 215.355 126.062 216.441C127.197 216.04 128.409 215.707 129.25 214.784ZM115.846 183.611C116.136 184.463 116.427 185.315 116.717 186.168C116.855 186.573 116.936 187.17 117.18 187.528C117.497 187.992 117.258 188.264 117.681 187.757C118.136 187.211 118.272 185.757 118.47 185.089C118.77 184.074 119.069 183.059 119.369 182.045C117.956 182.033 117.099 183.199 115.846 183.611ZM86.1516 133.426C84.4141 134.616 82.6551 135.796 81.1433 137.276C82.4732 137.192 84.325 138.109 85.5776 137.679C86.1559 137.802 86.347 137.582 86.1516 137.018V135.846V133.426ZM111.915 141.844V148.791C113.537 147.406 115.245 146.12 116.806 144.663C115.175 143.723 113.545 142.784 111.915 141.844ZM169.91 159.846C169.398 162.939 169.37 166.122 169.229 169.252C169.205 169.807 168.991 170.644 169.36 171.13C169.731 171.618 170.787 171.888 171.324 172.149C172.834 172.882 174.334 173.637 175.839 174.379C173.863 169.535 171.886 164.69 169.91 159.846ZM208.249 140.825C211.974 138.99 215.7 137.155 219.425 135.32C215.773 133.77 212.12 132.221 208.467 130.672C208.394 134.056 208.321 137.441 208.249 140.825ZM169.902 149.464C170.583 149.512 170.691 146.914 170.803 146.227C171.018 144.922 171.237 143.619 171.463 142.316C171.914 139.712 172.388 137.112 172.887 134.517C173.885 129.327 174.986 124.156 176.206 119.015C174.895 118.778 173.691 118.607 172.41 118.225C171.376 117.916 170.145 118.084 169.221 117.442C169.102 119.851 169.702 122.413 169.924 124.822C170.182 127.61 170.32 130.383 170.297 133.183C170.252 138.61 170.047 144.039 169.902 149.464ZM84.1537 222.991C84.7993 222.819 83.9203 213.951 83.881 212.672C83.7688 208.969 83.747 205.264 83.813 201.561C80.3347 203.746 76.7754 205.759 73.101 207.574C74.0453 208.802 74.9303 210.125 75.9753 211.268C77.052 212.444 78.2872 213.408 79.285 214.675C81.2939 217.227 82.67 220.123 84.1537 222.991ZM167.857 170.531C168.019 167.864 168.169 165.202 168.437 162.543C168.552 161.411 169.644 155.397 167.896 155.539C166.902 155.619 165.158 157.077 164.246 157.588C163.042 158.263 161.836 158.935 160.626 159.6C158.238 160.911 155.835 162.193 153.438 163.488C158.245 165.836 163.051 168.184 167.857 170.531ZM157.48 115.068C155.489 114.92 153.565 114.771 151.601 114.4C150.543 114.2 149.484 114.227 148.419 114.092C147.657 113.995 146.166 113.368 145.456 113.573C144.564 113.831 144.239 118.313 144.117 119.438C143.919 121.249 143.786 123.447 144.593 125.149C146.15 128.43 150.344 125.869 152.385 124.493C154.134 123.313 156.115 122.118 157.667 120.686C159.041 119.417 157.807 116.708 157.48 115.068ZM167.804 150.746C169.304 150.138 169.28 149.375 169.345 147.802C169.425 145.892 169.471 143.979 169.525 142.068C169.622 138.662 169.714 135.255 169.684 131.847C169.654 128.518 169.492 125.195 169.111 121.886C168.977 120.717 169.111 118.719 168.496 117.721C167.934 116.811 166.191 116.801 165.24 116.857C164.168 116.92 163.3 117.941 162.509 118.586C161.632 119.3 159.832 120.306 159.688 121.372C159.527 122.562 160.18 124.26 160.432 125.414C161.357 129.627 162.482 133.798 163.667 137.943C164.896 142.244 166.142 146.588 167.804 150.746ZM129.697 140.663C129.794 139.716 130.145 138.926 129.67 138.024C129.262 137.249 128.597 136.47 128.098 135.736C126.668 133.634 125.066 131.62 123.509 129.612C122.083 127.773 120.622 125.953 119.127 124.17C118.295 123.177 117.436 122.205 116.583 121.229C115.959 120.515 115.367 119.512 114.483 119.138C113.832 123.238 113.294 127.356 112.874 131.486C112.671 133.483 112.496 135.483 112.349 137.484C112.308 138.049 111.87 139.957 112.15 140.483C112.444 141.036 114.241 141.775 114.792 142.114C116.33 143.061 117.525 144.488 118.988 142.931C119.995 141.859 120.806 140.348 121.931 139.412C122.518 138.925 123.07 138.947 123.728 138.658C124.493 138.322 124.517 137.998 125.431 138.456C126.971 139.226 127.906 140.364 129.697 140.663ZM52.6078 161.758C52.6078 164.597 52.414 166.93 54.3344 169.228C56.0125 171.236 57.7563 171.701 60.1167 172.494C61.5067 172.96 61.6037 172.53 62.7299 171.742C63.8004 170.994 64.9659 170.394 66.0215 169.622C68.2967 167.958 70.5703 166.242 72.7815 164.493C73.5248 163.904 73.4152 164.105 73.3023 163.399C73.199 162.756 72.7382 161.937 72.4864 161.325C72.0309 160.218 71.4942 159.147 70.9571 158.077C70.3475 156.864 69.8164 155.547 69.0592 154.416C68.7449 153.946 68.372 153.522 68.0052 153.094C67.2332 152.192 67.2606 152.226 66.3374 152.962C64.3882 154.518 62.5748 156.201 60.3811 157.418C57.7857 158.857 55.1966 160.306 52.6078 161.758ZM111.378 139.77C111.659 135.694 111.977 131.642 112.464 127.585C112.715 125.502 113.006 123.425 113.29 121.346C113.406 120.5 113.851 119.079 113.603 118.257C113.359 117.448 112.282 116.677 111.691 116.092C111.533 115.935 111.044 115.274 110.835 115.244C110.61 115.213 109.764 115.834 109.52 115.974C108.657 116.469 107.81 116.991 106.975 117.533C105.403 118.555 103.879 119.652 102.388 120.79C99.2617 123.177 96.2801 125.744 93.2199 128.214C96.0236 130.676 99.4746 132.588 102.609 134.582C104.463 135.761 106.326 136.927 108.213 138.051C109.17 138.621 110.279 139.492 111.378 139.77ZM73.0511 212.643C70.7871 214.143 68.6251 215.726 66.0647 216.689C63.5159 217.647 60.9967 218.016 58.3623 218.585C57.0338 218.873 55.7851 219.187 54.4291 219.388C53.6693 219.5 52.4932 219.457 51.8004 219.779C51.1835 219.647 50.9636 219.858 51.1416 220.411C51.1482 220.583 51.1548 220.755 51.1614 220.927C51.336 223.319 52.8705 226.198 54.209 228.142C54.9903 229.278 55.9858 230.335 56.975 231.289C58.092 232.367 58.736 233.127 60.293 232.676C62.9174 231.914 65.2336 230.382 67.8937 229.706C69.9979 229.172 71.7457 228.052 73.7978 227.472C76.3285 226.757 78.8328 225.942 81.3985 225.345C80.2525 223.128 79.2276 220.82 77.7604 218.79C76.2555 216.706 74.5962 214.704 73.0511 212.643ZM86.9365 138.058C91.6712 139.002 96.8029 139.876 101.04 142.325C102.694 143.281 104.79 144.758 105.275 146.735C105.854 149.098 103.577 150.561 101.676 151.299C99.3934 152.184 96.9085 152.523 94.4897 152.803C93.2093 152.95 91.923 153.031 90.6367 153.104C89.5956 153.164 87.8301 152.935 86.8784 153.348C86.2823 153.229 86.0757 153.471 86.2586 154.075C86.2473 154.291 86.2365 154.508 86.2256 154.725L86.1269 156.673C86.0612 157.97 85.9955 159.267 85.9295 160.564C85.7866 163.39 85.6433 166.216 85.5004 169.042C87.9802 167.503 89.9789 165.298 92.4026 163.656C93.5549 162.875 94.699 162.092 95.8467 161.314C96.3279 160.988 96.622 160.531 97.0957 160.227C97.7238 159.824 98.2807 159.581 98.8699 159.053C101.276 156.897 103.952 155.033 106.504 153.053C107.663 152.154 108.933 151.327 110.036 150.362C111.191 149.351 111.031 148.519 111.003 147.066C110.973 145.528 111.537 143.618 111.275 142.135C111.495 141.632 111.326 141.318 110.77 141.195C110.398 140.957 110.027 140.719 109.655 140.481C108.914 140.006 108.173 139.531 107.432 139.056C104.484 137.168 101.537 135.279 98.5886 133.39C97.1161 132.446 95.6437 131.503 94.1709 130.559C93.7596 130.296 92.4182 129.105 91.9567 129.14C91.486 129.176 90.6694 130.097 90.3165 130.39C89.7752 130.839 89.2497 131.311 88.6648 131.705C88.3734 131.907 88.069 132.088 87.7522 132.247C87.2455 132.296 87.0696 132.575 87.2237 133.083C86.7788 134.513 87.0233 136.556 86.9365 138.058ZM152.593 205.475C151.521 200.453 150.138 194.507 145.956 191.09C141.715 187.626 135.515 188.964 132.197 193.033C130.536 195.071 129.505 197.48 128.74 199.977C127.955 202.54 126.797 205.878 127.009 208.588C127.102 209.776 128.118 211.053 128.698 212.09C129.297 213.16 129.695 214.695 131.107 214.324C133.297 213.749 135.523 212.429 137.572 211.484C139.644 210.528 141.826 209.742 143.975 208.818C145.402 208.205 146.883 207.739 148.306 207.117C149.655 206.528 151.435 206.386 152.593 205.475ZM215.945 175.563C218.936 176.636 220.49 174.919 222.594 172.986C224.588 171.155 226.747 169.395 228.583 167.405C230.476 165.353 231.973 162.928 233.429 160.558C234.9 158.163 236.889 155.576 237.795 152.908C238.256 151.551 238.453 150.048 238.743 148.645C238.813 148.307 239.282 147.051 239.133 146.767C238.928 146.376 237.622 146.335 237.264 146.278C234.41 145.826 231.386 145.803 228.524 146.208C222.986 146.989 218.355 150.101 216.605 155.542C214.553 161.921 215.539 169.01 215.945 175.563ZM196.555 120.238C196.509 121.343 199.151 121.65 199.836 121.907C201.419 122.502 202.992 123.13 204.529 123.834C207.693 125.283 211.067 126.227 214.097 127.979C220.629 131.757 227.72 134.419 234.319 138.032C235.348 138.595 237.357 139.952 238.531 139.837C239.155 139.776 238.69 140.28 239.095 139.285C239.241 138.927 239.289 138.462 239.371 138.079C239.615 136.93 239.805 135.771 240.079 134.629C240.531 132.748 240.993 131.004 241.183 129.072C241.264 128.253 241.352 127.435 241.362 126.611C241.372 125.777 241.564 123.685 241.188 122.963C240.938 122.483 240.888 122.648 240.265 122.512C239.908 122.435 239.533 122.274 239.189 122.166C238.381 121.914 237.572 121.672 236.724 121.598C235.887 121.525 235.352 121.27 234.567 121.121C233.743 120.966 232.897 121.154 232.057 120.937C231.151 120.703 230.719 120.489 229.772 120.579C228.854 120.665 228.59 120.462 227.691 120.211C226.941 120.002 226.047 120.148 225.265 120.085C224.319 120.007 223.376 119.889 222.429 119.814C218.171 119.476 213.862 119.977 209.594 119.937C207.273 119.916 205.003 120.259 202.685 120.153C200.66 120.06 198.566 120.082 196.555 120.238ZM207.633 142.724C205.561 143.515 203.641 144.799 201.72 145.904C199.506 147.179 197.386 148.534 195.337 150.063C191.891 152.634 187.87 155.717 186.963 160.203C186.033 164.807 190.023 168.58 193.765 170.464C198.032 172.612 202.996 173.723 207.67 174.543C207.17 163.944 207.287 153.327 207.633 142.724ZM145.666 167.678C144.41 168.026 143.346 168.771 142.18 169.323C141.136 169.817 140.126 170.189 139.15 170.825C137.561 171.861 135.718 172.748 134.057 173.549C129.945 175.531 125.954 177.993 121.883 180.19C120.805 180.772 120.451 181.14 120.086 182.338C119.689 183.64 119.315 184.951 118.933 186.257C118.576 187.476 118.007 188.778 118.157 190.065C118.288 191.183 118.865 192.239 119.301 193.259C120.397 195.828 121.586 198.355 122.814 200.862C123.916 203.113 124.922 205.502 126.337 207.571C127.436 201.825 128.423 195.386 132.685 191.008C136.944 186.633 143.739 186.571 147.843 191.087C149.793 193.233 150.979 195.935 151.912 198.65C152.402 200.076 152.731 201.53 153.046 203.003C153.383 204.576 153.3 205.411 155.033 204.934C156.409 204.556 157.868 204.253 159.217 203.822C159.917 203.598 160.599 203.346 160.631 202.792C160.671 202.092 159.731 200.66 159.454 200.002C158.02 196.605 156.586 193.208 155.152 189.811C153.595 186.122 152.038 182.434 150.481 178.745C149.704 176.905 148.926 175.065 148.149 173.224C147.44 171.547 146.849 169.056 145.666 167.678ZM207.749 138.993C207.772 137.316 207.8 135.639 207.822 133.962C207.835 132.962 208.28 131.029 207.411 130.315C206.872 129.873 205.274 129.533 204.593 129.231C203.248 128.633 201.793 128.367 200.441 127.773C195.144 125.449 189.632 123.513 184.179 121.639C183.003 121.235 181.801 120.904 180.618 120.506C179.979 120.292 177.612 119.03 177.02 119.36C176.503 119.649 176.112 123.089 175.946 123.803C175.554 125.493 175.179 127.188 174.818 128.886C173.418 135.478 172.244 142.117 171.152 148.766C174.053 147.663 176.833 145.75 179.574 144.272C182.421 142.737 185.258 141.205 188.124 139.704C188.933 139.281 191.78 137.334 192.446 138.098C193.514 139.324 190.968 140.762 190.3 141.287C187.715 143.319 184.984 145.09 182.219 146.862C179.354 148.699 176.373 150.321 173.493 152.125C172.454 152.775 170.795 153.568 170.386 154.667C169.86 156.081 170.24 157.8 170.718 159.151C171.893 162.471 173.18 165.751 174.541 168.998C175.16 170.475 175.795 171.945 176.441 173.41C177.212 175.154 178.222 175.523 179.9 176.325C187.047 179.745 194.471 182.991 201.337 186.948C200.188 188.275 197.387 186.096 196.253 185.544C194.154 184.522 192.052 183.504 189.953 182.479C186.044 180.569 182.155 178.622 178.224 176.759C180.743 182.5 183.716 188.033 187.013 193.362C186.181 193.645 186.384 193.66 185.861 193.158C185.421 192.735 185.126 191.908 184.828 191.378C184.212 190.282 183.604 189.182 182.983 188.089C181.695 185.82 180.36 183.586 179.184 181.256C178.299 179.504 177.614 176.44 175.796 175.557C173.531 174.456 171.235 173.384 168.97 172.267C168.97 180.997 169.596 189.532 170.515 198.208C170.561 198.646 170.98 199.937 170.136 199.81C169.755 199.753 169.627 197.359 169.56 196.86C169.253 194.568 168.993 192.271 168.78 189.969C168.356 185.375 168.125 180.763 168.095 176.15C167.552 180.635 167.008 185.12 166.465 189.605L165.692 195.981C165.557 197.097 165.421 198.213 165.286 199.33C165.224 199.843 165.263 200.513 165.083 201.002C164.8 201.772 164.895 201.713 164.008 202.064C164.856 196.223 165.64 190.373 166.333 184.512C166.671 181.652 166.988 178.79 167.28 175.926C167.358 175.155 167.435 174.384 167.511 173.614C167.549 173.221 167.887 171.957 167.699 171.631C167.513 171.308 166.281 170.97 165.926 170.805C165.15 170.444 164.373 170.083 163.597 169.72C161.078 168.54 158.561 167.351 156.069 166.114C154.979 165.572 153.836 164.736 152.651 164.447C151.471 164.16 150.613 164.983 149.604 165.506C148.818 165.913 146.968 166.455 146.444 167.147C145.955 167.79 147.472 170.366 147.87 171.315C148.993 173.994 150.117 176.674 151.24 179.353C153.518 184.784 155.796 190.216 158.075 195.649C158.631 196.976 159.188 198.304 159.745 199.632C160.102 200.483 160.698 202.908 161.564 203.003C161.947 203.045 162.576 202.627 162.946 202.507C163.499 202.328 164.009 202.331 164.564 202.236C165.58 202.064 166.635 201.538 167.632 201.17C170.197 200.223 172.855 199.611 175.44 198.727C178.037 197.838 180.592 196.84 183.179 195.951C185.529 195.144 187.899 194.224 190.156 193.173C192.54 192.062 194.984 191.083 197.307 189.853C201.537 187.61 205.721 185.517 209.459 182.767C210.338 182.12 211.274 181.471 212.143 180.779C212.906 180.171 214.36 179.421 214.879 178.623C215.076 178.318 215.246 177.721 215.015 177.359C214.768 176.971 213.67 177.006 213.157 176.937C211.539 176.72 209.922 176.502 208.304 176.284C208.428 177.35 208.554 178.415 208.644 179.485C208.707 180.24 209.153 182.236 208.552 182.827C207.726 182.041 207.991 179.689 207.917 178.641C207.878 178.081 208.02 176.985 207.77 176.488C207.496 175.944 206.738 175.951 206.051 175.802C203.138 175.171 200.252 174.641 197.433 173.641C192.672 171.951 186.981 169.098 185.917 163.595C184.808 157.857 189.68 152.887 193.782 149.687C196.238 147.771 198.851 146.113 201.554 144.573C202.817 143.853 204.079 143.134 205.35 142.43C205.813 142.174 207.331 141.646 207.574 141.198C207.824 140.74 207.696 139.515 207.749 138.993ZM105.881 227.101C105.65 227.214 105.418 227.327 105.188 227.441C107.757 220.103 110.303 212.799 112.452 205.324C113.489 201.716 114.539 198.112 115.612 194.514C116.075 192.962 117.212 190.825 116.896 189.218C116.554 187.478 115.734 185.627 115.1 183.972C111.039 186.53 106.893 188.957 102.764 191.398C99.0629 193.588 95.2991 195.535 91.5718 197.702C89.662 198.812 87.6918 199.562 85.6984 200.469C84.0787 201.206 84.7075 203.459 84.731 204.964C84.8128 210.278 84.8089 215.611 85.1307 220.918C85.2479 222.851 85.0967 225.071 86.3249 226.68C87.8957 228.737 89.3527 230.834 90.7852 232.999C91.322 233.811 93.5767 238.203 94.4174 238.107C94.9663 238.044 95.4717 236.266 95.7463 235.844C96.3382 234.935 97.2033 234.153 97.9909 233.421C101.392 230.259 105.166 228.032 109.088 225.721C113.073 223.374 117.152 221.188 121.212 218.962C122.129 218.459 123.117 218.096 124.028 217.583C124.389 217.379 125.102 217.057 125.329 216.694C125.668 216.151 125.553 214.647 125.624 213.997C125.769 212.671 126.028 211.293 126.042 209.957C126.056 208.638 125.264 207.504 124.69 206.353C122.17 201.3 119.722 196.235 117.529 191.029C115.801 197.074 113.986 203.091 112.291 209.145C111.405 212.306 110.338 215.415 109.299 218.528C108.769 220.118 108.235 221.706 107.705 223.296C107.292 224.534 107.078 226.347 105.881 227.101ZM142.071 113.176C140.735 113.191 139.524 112.994 138.218 112.715C137.739 112.612 137.317 112.569 136.831 112.526C136.281 112.477 135.78 112.178 135.297 112.12C134.932 112.076 134.295 112.229 133.946 112.346C133.138 112.618 133.164 112.481 133.13 113.421C133.077 114.873 133.038 116.325 132.958 117.776C132.645 123.488 132.04 129.144 131.21 134.8C131.042 135.943 130.572 137.443 130.831 138.578C131.064 139.602 131.946 140.695 132.529 141.553C133.728 143.319 136.553 144.192 138.539 144.692C140.634 145.221 142.81 145.415 144.8 145.886C145.351 146.017 145.985 145.786 146.572 145.917C147.116 146.039 147.538 146.337 148.041 146.554C149.271 147.083 150.647 147.181 151.918 147.59C154.438 148.4 157.137 148.352 159.66 149.13C160.305 149.329 160.862 149.83 161.482 150.002C162.05 150.159 162.634 149.974 163.228 150.062C164.486 150.247 165.659 150.678 165.949 152.032C166.719 151.421 166.826 151.582 166.693 150.638C166.607 150.033 166.271 149.296 166.087 148.712C165.618 147.225 165.146 145.738 164.677 144.251C163.749 141.307 162.826 138.361 161.971 135.395C161.206 132.742 160.51 130.069 159.902 127.376C159.593 126.006 159.334 124.631 159.069 123.254C158.992 122.854 159.069 122.219 158.668 121.953C158.304 121.712 157.456 122.578 157.072 122.856C154.391 124.802 148.241 130.558 144.889 127.163C143.084 125.335 143.189 122.12 143.385 119.758C143.506 118.306 143.76 116.873 144.045 115.446C144.116 115.09 144.55 113.945 144.391 113.692C144.219 113.419 142.43 113.256 142.071 113.176ZM236.281 144.944C236.995 145.024 237.709 145.105 238.422 145.185C238.357 144.607 238.416 143.738 238.197 143.2C237.895 142.456 237.156 142.373 236.343 142.065C235.057 141.578 233.746 141.154 232.474 140.63C229.714 139.492 226.967 138.337 224.205 137.199C222.995 136.7 221.572 135.884 220.258 136.291C218.841 136.731 217.442 137.627 216.117 138.283C214.617 139.025 213.117 139.77 211.618 140.514C210.915 140.864 210.211 141.213 209.508 141.562C208.404 142.11 208.257 142.166 208.17 143.418C207.726 149.825 207.759 156.481 207.952 162.896C208.051 166.17 207.94 169.462 208.175 172.73C208.193 172.981 208.174 174.4 208.331 174.593C208.552 174.866 210.109 174.958 210.481 175.026C211.931 175.292 213.392 175.38 214.858 175.511C214.512 168.059 213.244 159.25 217.064 152.433C220.9 145.585 229.101 144.102 236.281 144.944ZM169.587 71.6314C170.017 70.6498 170.758 69.821 171.391 68.9598C171.733 68.4941 172.325 67.9375 172.545 67.3928C172.857 66.6175 172.855 66.7836 172.389 66.1046C171.948 65.463 171.957 65.4147 171.276 65.2999C170.702 65.2033 170.091 65.3674 169.505 65.2622C168.913 65.1557 167.284 64.6556 167.658 63.7111C167.642 63.7524 168.584 63.2871 168.657 63.2064C168.894 62.9481 168.969 62.3974 169.085 62.0852C169.462 61.0844 169.594 60.4365 169.175 59.3709C168.548 57.7798 166.072 57.3088 164.53 57.8443C163.76 58.1115 163.32 58.6784 162.974 59.3908C162.754 59.8432 162.703 60.4971 162.418 60.891C161.989 61.484 161.963 61.4181 161.073 61.3133C159.941 61.18 159.012 60.7441 157.939 60.4402C156.77 60.1088 156.01 60.7828 154.988 61.3262C153.145 62.3078 151.364 62.6485 149.299 62.8042C146.999 62.9779 144.867 62.4222 142.59 62.279C143.181 65.0059 144.708 67.2198 145.93 69.689C146.144 70.1233 146.491 70.5671 146.499 71.0695C146.508 71.5428 145.824 72.1867 145.901 72.5783C146.066 73.4137 147.901 74.0824 148.596 74.3176C150.562 74.982 152.801 76.2828 154.965 75.7602C156.152 75.4738 156.79 73.5966 157.907 73.4587C159.405 73.2728 158.284 75.2056 158.006 75.8703C160.132 76.1941 162.826 75.9196 164.861 75.1973C165.881 74.8355 166.745 74.2954 167.676 73.76C168.836 73.0932 169.076 72.91 169.587 71.6314ZM132.382 112.215C128.592 112.278 124.746 111.732 120.947 112.234C120.067 112.35 119.199 112.537 118.334 112.736C117.713 112.88 115.738 113.001 115.324 113.464C114.946 113.886 114.944 115.83 114.866 116.378C114.692 117.599 114.739 118.02 115.515 118.964C118.071 122.069 120.732 125.081 123.25 128.22C125.669 131.236 127.655 134.605 130.1 137.578C131.405 133.77 131.484 129.199 131.842 125.206C132.033 123.077 132.207 120.946 132.37 118.815C132.526 116.785 133.055 114.151 132.382 112.215ZM83.3232 152.351C83.7615 152.351 84.4606 152.489 84.8868 152.351C85.4726 152.538 85.6684 152.318 85.4746 151.691C85.4839 151.472 85.4931 151.252 85.5027 151.033C85.5638 149.618 85.6311 148.204 85.6964 146.789C85.7565 145.496 85.8149 144.203 85.8658 142.909C85.9008 142.026 86.346 139.837 85.9899 139.04C85.7506 138.504 85.1838 138.625 84.4943 138.547C83.8384 138.472 83.1806 138.404 82.5284 138.302C81.7005 138.172 80.7829 137.875 79.9405 138.061C79.0942 138.248 78.479 139.031 77.8148 139.529C76.7639 140.317 75.6901 141.075 74.6302 141.85C72.7039 143.26 70.797 144.695 68.8869 146.126C68.098 146.717 67.9465 146.512 68.331 147.361C68.569 147.886 69.11 148.479 69.4394 148.953C70.0953 149.897 70.7485 151.328 71.5899 152.094C72.8141 153.208 76.211 152.501 77.8373 152.493C79.6917 152.483 81.4794 152.512 83.3232 152.351ZM88.1232 152.259C89.7313 152.101 91.3559 152.17 92.9542 151.953C94.6917 151.717 96.4167 151.368 98.1509 151.107C99.8799 150.846 105.14 149.793 104.62 147.207C104.072 144.474 100.045 142.837 97.8172 141.918C94.3375 140.483 90.7047 139.715 87.0445 138.904C86.5853 141.354 86.6513 143.984 86.5675 146.467C86.522 147.815 86.482 149.165 86.4827 150.515C86.4827 150.84 86.3714 151.514 86.5038 151.816C86.8147 152.526 87.1765 152.259 88.1232 152.259ZM82.8347 153.433H72.5706C74.0896 156.584 75.5254 159.793 77.1629 162.884C78.7938 165.963 80.8938 168.864 82.7442 171.82C83.2129 171.309 83.9606 170.755 84.2791 170.146C84.6319 169.474 84.622 168.484 84.6798 167.705C84.8297 165.683 84.898 163.644 84.9488 161.618C84.9934 159.844 85.0713 158.081 85.2073 156.311C85.237 155.923 85.6644 153.907 85.4198 153.575C85.2017 153.28 83.2836 153.436 82.8347 153.433ZM125.106 91.5744C126.838 91.574 128.571 91.5522 130.303 91.5813C131.874 91.6081 133.921 91.3339 135.36 92.1445C138.292 93.7955 132.431 98.0358 131.242 99.1031C133.164 99.8009 136.163 98.4158 138.045 97.7811C140.371 96.9967 142.743 96.4698 145.116 95.8553C145.709 95.7019 148.254 95.4012 148.576 94.9461C148.895 94.4947 148.18 91.7711 148.109 91.1967C148.042 90.6566 148.098 89.8145 147.874 89.3065C148.011 88.6964 147.797 88.4824 147.232 88.6656C147.036 88.6649 146.842 88.6639 146.646 88.6633C145.203 88.6749 143.758 88.742 142.315 88.7899C137.356 88.9553 132.517 89.1759 127.6 89.9515C125.314 90.312 123.008 90.7555 120.735 91.198C118.82 91.5704 119.143 91.8829 120.93 91.8876C122.328 91.8912 123.715 91.6832 125.106 91.5744ZM267.363 55.0354C267.657 54.6964 267.952 54.3571 268.247 54.0177C267.529 53.8124 266.811 53.6067 266.093 53.4013C265.33 53.183 264.919 53.2329 265.258 52.3783C265.683 51.3078 267.626 51.1851 268.559 51.1447C271.773 51.0055 275.149 52.0301 278.202 52.9326C279.692 53.3732 280.86 54.0548 282.12 54.9613C282.671 55.3572 283.306 55.7289 283.788 56.2045C284.288 56.6986 284.496 57.3316 284.985 57.8271C285.788 58.6394 286.815 59.0438 287.208 60.2163C287.66 61.562 287.121 63.1025 286.452 64.276C285.774 65.4669 284.767 66.3675 283.949 67.4496C283.3 68.3082 281.944 70.6541 284.063 70.3822C285.183 70.2384 286.636 68.3241 287.442 67.5614C288.598 66.4677 289.735 65.3489 290.959 64.3302C292.044 63.427 293.294 62.5009 294.746 62.3422C296.275 62.1749 297.04 63.1558 297.785 64.3487C298.488 65.4739 298.601 66.5722 299.096 67.7238C299.334 68.2791 299.638 68.5887 299.778 69.1939C299.994 70.1249 300.016 71.1406 300.126 72.0898C300.299 73.5804 300.462 74.7525 300.174 76.213C299.904 77.5799 299.83 79.0318 299.603 80.4225C299.345 81.9974 299.131 83.5796 298.877 85.1552C298.662 86.4901 297.845 88.3911 298.647 89.6323C300.574 92.6152 302.885 88.2241 303.494 86.5836C304.564 83.701 305.109 80.5498 306.053 77.608C306.559 76.0347 307 74.4466 307.29 72.8177C307.53 71.4707 307.412 69.8296 308.149 68.6297C308.721 67.6977 309.74 66.9899 310.858 67.2744C312.257 67.6306 312.794 69.6566 313.206 70.8882C314.292 74.1367 313.892 77.0623 313.45 80.3752C313.245 81.9091 313.05 83.4454 312.698 84.9538C312.461 85.9715 311.478 88.0313 312.939 88.5846C315.011 89.3697 317.206 83.4159 317.796 82.0715C319.342 78.5502 319.933 75.0581 320.57 71.2851C320.717 70.4176 320.829 69.5316 321.047 68.679C321.238 67.9368 321.807 67.1867 321.858 66.4446C321.909 65.7017 321.418 65.1835 321.921 64.4542C322.34 63.8473 323.096 63.8106 323.779 63.8053C325.384 63.7928 326.919 64.4989 328.412 65.0112C329.802 65.4878 331.857 66.5335 333.355 66.1968C328.655 61.4155 323.967 56.6884 318.361 52.9647C315.758 51.2353 313.153 49.5734 310.34 48.1632C307.49 46.7348 304.224 45.77 301.172 44.9058C299.512 44.4355 297.861 43.9027 296.222 43.3633C294.763 42.8831 293.294 42.7921 291.865 42.2474C288.76 41.0644 285.292 40.606 282.077 39.7673C280.658 39.3972 279.223 39.0797 277.801 38.7367C276.305 38.3762 274.205 37.7502 272.681 37.811C271.38 37.8629 270.941 39.3569 270.315 40.396C269.407 41.9045 268.632 43.4718 267.917 45.0808C266.454 48.3775 264.909 51.7833 263.862 55.2276C263.287 57.1187 262.719 59.0118 262.155 60.9058C261.666 62.5456 260.444 64.911 260.769 66.5937C263.176 62.8767 265.417 59.0164 267.363 55.0354ZM155.29 88.5991C154.013 88.6573 152.736 88.7152 151.459 88.7734C152.732 92.9671 152.555 97.4326 152.555 101.779C158.506 101.077 164.505 100.957 170.491 101.005C169.391 98.8795 169.817 96.1216 170.131 93.8451C170.314 92.5126 170.417 91.2291 170.39 89.8847C170.365 88.6236 170.728 87.5633 169.394 87.1733C168.336 86.8641 167.667 87.3794 166.66 87.6145C165.453 87.896 164.138 87.93 162.909 88.0832C160.351 88.4017 157.885 88.5885 155.29 88.5991ZM120.999 96.7661C124.834 95.7002 128.91 96.0931 132.764 95.2828C131.887 94.4811 130.236 94.9561 129.071 95.0229C127.748 95.0983 126.425 95.1535 125.101 95.218C123.811 95.2812 120.23 95.1833 119.764 96.829C120.175 96.8081 120.587 96.787 120.999 96.7661ZM261.328 37.3407C256.31 37.7819 251.054 37.7135 246.072 38.5909C240.366 39.5956 234.418 40.226 228.885 41.9967C223.458 43.7341 217.924 44.9501 212.574 46.9901C207.373 48.9731 202.364 51.0829 197.466 53.7353C195.069 55.0334 192.736 56.4096 190.451 57.9005C188.22 59.356 185.776 60.5493 183.614 62.0922C181.69 63.4657 180.03 64.7254 178.352 66.4082C176.558 68.2073 174.813 70.0551 173.018 71.8513C171.519 73.3499 172.468 77.0137 172.563 79.008C172.694 81.7729 172.922 84.4987 173.26 87.2454C173.582 89.8628 173.913 92.676 173.488 95.2878C173.309 96.3858 172.693 98.2825 172.987 99.3786C173.223 100.256 174.785 100.9 175.582 101.186C176.557 101.536 177.553 101.388 178.554 101.834C179.671 102.331 180.613 102.952 181.8 103.213C183.262 103.536 184.907 103.807 186.41 103.817C187.8 103.826 189.194 104.277 190.58 104.555C192.835 105.007 195.035 105.148 194.895 107.872C194.733 111.016 193.488 113.713 192.747 116.697C193.749 116.697 194.448 116.761 195.366 116.405C196.437 115.989 197.58 115.879 198.706 115.699C201.194 115.303 203.619 115.176 206.123 114.923C210.71 114.459 215.376 114.515 219.966 114.564C222.29 114.588 224.811 114.768 227.104 115.131C229.455 115.503 231.89 115.735 234.169 116.448C236.092 117.05 238.077 117.461 240.038 117.992C240.922 118.232 241.98 118.426 242.815 118.694C244.025 119.083 244.672 119.911 246.069 119.893C245.676 117.299 244.752 114.894 244.195 112.323C243.614 109.637 242.453 107.261 241.172 104.728C240.601 103.598 240.178 102.398 239.627 101.259C239.015 99.9911 238.154 98.941 237.414 97.7557C235.9 95.3311 234.285 92.9988 232.798 90.557C231.501 88.4252 230.018 86.3816 228.597 84.3238C227.035 82.0613 224.864 80.3537 223.091 78.2781C222.343 77.4013 221.631 76.5867 220.792 75.782C220.02 75.0412 218.925 73.4015 217.743 73.3247C217.064 73.2804 215.887 73.6634 215.239 73.8688C214.039 74.2494 212.767 74.4975 211.528 74.8325C210.172 75.1993 208.84 75.6765 207.482 76.0251C206.939 76.1644 206.293 76.0982 205.778 76.256C205.239 76.4213 204.809 76.7855 204.22 76.9525C201.314 77.7786 198.424 78.7166 195.496 79.4687C192.482 80.2432 189.421 80.9027 186.499 81.9997C185.942 82.2091 185.322 82.7039 184.894 82.3788C184.575 82.136 184.369 81.4504 184.453 81.0502C184.733 79.718 186.86 79.2368 187.884 78.702C190.628 77.2687 193.354 76.258 196.303 75.2846C197.756 74.8057 199.203 74.2944 200.676 73.8807C201.907 73.5351 203.188 72.9503 204.447 72.7734C205.567 72.616 206.362 72.1741 207.473 71.7829C209.111 71.2064 210.794 70.7331 212.458 70.2407C215.302 69.3986 218.316 69.0448 221.226 68.4802C227.967 67.1722 234.965 66.5173 241.844 66.5984C245.312 66.6394 248.939 66.5378 252.366 67.1093C253.193 67.2469 254.93 67.2205 255.5 67.9636C255.806 68.3625 255.64 68.9561 255.719 69.3884C255.851 70.118 256.248 70.458 256.593 71.1227C257.325 67.5257 258.165 64.0051 259.11 60.4607C259.964 57.2529 260.755 53.987 261.896 50.8242C263.104 47.4779 264.568 43.9298 266.373 40.8673C266.745 40.2369 267.671 39.2355 267.751 38.5304C267.834 37.8028 266.816 37.2392 266.117 37.1582C264.548 36.9766 262.869 37.2875 261.328 37.3407ZM295.042 88.7377C295.552 83.748 297.045 78.5287 296.211 73.5192C295.858 71.3986 295.583 69.3742 294.524 67.4599C293.989 66.4919 293.774 65.7808 292.752 66.3516C291.718 66.9294 290.765 68.3565 289.908 69.1837C288.332 70.704 286.681 72.2697 284.794 73.3988C283.307 74.2878 280.354 75.1305 279.236 73.2073C278.172 71.3744 279.592 68.8166 280.612 67.3045C281.778 65.5744 283.989 63.972 282.748 61.8375C282.214 60.9187 281.446 60.678 280.639 60.0751C279.94 59.5532 279.355 58.8771 278.655 58.346C276.63 56.8064 274.409 56.147 272.07 55.2672C270.99 54.8608 270.848 54.4785 270.225 55.4075C269.547 56.4165 269.176 57.8307 268.686 58.9466C267.705 61.182 266.659 63.3 265.394 65.3842C264.118 67.4877 262.987 69.685 261.78 71.8302C261.325 72.6395 260.897 73.462 260.359 74.2217C260.066 74.6351 259.703 75.0035 259.465 75.4559C259.113 76.125 259.27 76.7349 259.05 77.401C258.104 80.275 256.725 76.2629 256.461 75.325C256.161 74.258 255.438 73.4263 254.969 72.4311C254.582 71.6092 254.318 70.3878 253.383 70.0009C252.618 69.6841 251.631 70.119 250.849 70.1613C249.414 70.2393 247.967 70.1229 246.525 70.2129C245.177 70.2969 243.831 70.4265 242.483 70.5092C241.134 70.5922 239.786 70.3637 238.455 70.5059C236.065 70.7612 233.622 70.7202 231.238 71.0741C228.44 71.4888 225.671 71.9314 222.866 72.2766C223.518 73.5119 224.869 74.0477 225.937 74.9291C226.892 75.7169 227.648 76.6261 228.61 77.3755C229.586 78.1362 230.166 79.2613 230.974 80.1754C231.766 81.0707 232.498 81.8215 233.192 82.8233C236.538 87.6605 239.99 92.3192 242.751 97.5473C244.148 100.193 245.482 103.025 246.437 105.864C247.461 108.909 247.963 112.174 248.571 115.323C248.874 116.892 249.033 118.217 248.701 119.795C248.614 120.171 248.523 120.546 248.429 120.92C248.138 121.367 248.246 121.658 248.753 121.791C249.049 122.224 249.454 122.386 249.48 122.978C249.499 123.428 249.249 123.949 248.863 124.203C248.117 124.693 248.117 124.031 247.347 124.178C247.059 124.334 246.77 124.491 246.482 124.647C246.33 124.414 246.173 124.185 246.012 123.959C245.522 123.491 245.132 123.534 244.491 123.42C244.817 127.18 244.297 130.536 243.471 134.203C243.074 135.967 242.393 137.693 242.049 139.459C241.666 141.433 242.504 142.332 243.8 143.648C243.471 143.82 242.895 144.007 242.623 144.264C242.192 144.674 242.302 144.724 242.302 145.365C242.303 146.539 242.078 147.696 241.894 148.851C241.553 150.989 241.242 153.202 240.507 155.249C239.173 158.967 237.016 162.829 234.818 166.104C233.588 167.937 232.355 170.019 230.814 171.601C229.267 173.188 227.733 174.789 226.19 176.381C223.152 179.514 219.833 181.679 216.193 184.025C214.752 184.954 213.234 185.972 211.995 187.129C210.735 188.304 209.06 189.127 207.555 189.981C206.883 190.362 206.405 190.91 205.68 191.222C204.999 191.515 204.523 191.611 203.951 191.996C202.534 192.951 201.002 193.768 199.441 194.488C197.537 195.367 195.664 196.389 193.709 197.138C192.818 197.48 191.98 197.853 191.117 198.252C190.183 198.684 189.176 198.968 188.218 199.429C187.408 199.818 186.589 200.044 185.765 200.362C185.092 200.622 184.564 201.043 183.878 201.315C182.453 201.879 181.156 202.182 179.772 202.847C177.932 203.731 175.752 204.143 173.815 204.778C171.651 205.488 169.407 206.195 167.187 206.698C166.242 206.913 165.438 207.193 164.525 207.517C163.931 207.728 163.249 207.844 162.591 208.045C160.771 208.601 158.952 209.137 157.123 209.609C153.549 210.533 149.898 211.642 146.431 212.896C144.614 213.553 142.771 214.344 141.027 215.181C139.056 216.127 136.932 216.673 134.954 217.61C131.133 219.419 127.325 221.281 123.547 223.18C121.564 224.177 119.608 225.205 117.672 226.29C116.969 226.683 116.201 226.846 115.502 227.232C114.589 227.737 113.84 228.478 112.905 228.978C109.301 230.907 105.622 232.724 102.311 235.164C100.579 236.442 98.717 237.75 97.2198 239.305C96.7257 239.818 95.8694 240.612 95.78 241.357C95.6483 242.458 95.7717 241.445 96.1523 242.124C96.6795 242.188 96.7986 242.391 96.5111 242.732C96.3784 242.893 96.2084 242.974 96.0015 242.978C95.3357 243.112 94.0903 242.406 93.5553 242.11C92.6281 241.598 92.1359 240.951 91.5405 240.091C90.2472 238.227 88.9853 236.345 87.6535 234.507C86.4556 232.853 85.2832 231.033 83.9203 229.515C82.9961 228.485 82.9268 228.935 81.8989 229.515C81.1341 229.947 80.2459 230.131 79.4533 230.538C76.4335 232.088 73.1139 233.232 70.0164 234.312C69.311 234.559 68.9351 234.949 68.3152 235.288C67.5256 235.721 66.5255 235.933 65.6812 236.241C63.3551 237.088 61.0406 237.968 58.731 238.859C56.948 239.548 55.2345 240.091 53.8386 241.362C53.2831 241.868 52.6107 242.23 52.0371 242.742C51.369 243.337 50.4656 244.305 49.6245 244.642L49.1122 245.043C48.7657 244.801 48.4187 244.56 48.0712 244.32C47.7266 244.081 47.3816 243.843 47.0377 243.603C46.1739 243.001 45.3163 242.391 44.4578 241.782C42.5107 240.399 40.551 239.03 38.7399 237.469C35.5226 234.697 32.1842 232.074 28.82 229.478C25.2892 226.753 21.8468 223.901 18.1948 221.34C14.8848 219.019 11.2734 217.058 8.06405 214.608C6.44865 213.375 4.83721 212.133 3.18781 210.939C3.09803 210.874 1.75593 210.049 1.74246 209.957C1.71962 209.789 2.16126 209.348 2.29165 209.207C2.90889 208.534 3.59281 207.936 4.20775 207.256C7.07382 204.089 10.8159 204.2 14.7712 204.05C16.5649 203.983 18.51 204.811 20.2136 205.376C22.2967 206.066 24.3062 207.078 26.3184 207.953C30.4651 209.755 34.7449 211.295 38.9336 212.964C40.5807 213.62 42.2215 213.94 43.896 214.391C45.5949 214.849 47.345 214.413 49.1621 214.446C50.1051 214.462 50.9967 214.518 51.9463 214.464C52.5101 214.432 53.1596 214.325 53.7165 214.335C54.1677 214.343 54.6361 214.529 55.0513 214.482C56.8691 214.276 58.7891 213.986 60.664 213.749C62.5253 213.514 64.446 213.397 66.2829 213.029C67.2078 212.844 68.1204 212.582 69.0103 212.268C69.7827 211.995 71.1869 211.685 71.8206 211.133C72.3877 210.638 72.1398 210.632 71.8236 209.825C71.6985 209.506 71.5691 209.023 71.3836 208.715C70.8822 207.885 70.3977 207.624 70.6894 206.585C71.2034 204.755 72.9551 203.586 74.4546 202.684C77.8327 200.653 80.9222 198.048 84.4791 196.326C91.8082 192.776 98.4876 188.165 105.635 184.267C113.492 179.983 120.924 174.955 128.889 170.851C136.304 167.032 143.685 163.19 151.161 159.49C154.812 157.684 158.941 156.032 162.253 153.664C160.418 153.436 158.578 153.141 156.736 152.978C155.882 152.902 155.017 152.972 154.168 152.836C153.218 152.684 152.32 152.299 151.372 152.139C149.742 151.863 148.276 151.303 146.644 151.097C144.895 150.875 143.182 150.36 141.424 150.216C137.747 149.914 134.429 148.555 131.206 146.843C130.408 146.419 129.752 146.662 128.988 146.373C128.567 146.215 128.119 145.581 127.646 145.241C126.344 144.303 125.225 143.197 123.987 142.173C121.384 148.026 116.273 152.007 111.395 155.934C108.925 157.922 106.243 159.608 103.747 161.559C101.812 163.071 100.055 164.425 97.9892 165.628C96.0058 166.783 94.1425 168.342 92.2514 169.728C90.9698 170.668 89.4676 171.378 88.1047 172.194C86.991 172.861 84.8168 173.855 84.5131 175.065C84.2646 176.053 84.7494 177.229 83.2443 176.774C81.8966 176.368 80.9196 174.869 80.1346 173.813C78.1046 171.08 76.211 168.255 74.3262 165.422C73.3139 167.402 71.5678 168.828 69.9537 170.296C68.973 171.187 67.9551 172.015 66.8959 172.811C66.3823 173.197 65.8627 173.576 65.3481 173.961C65.1454 174.113 64.686 174.347 64.5546 174.562C64.2476 175.063 64.4341 174.836 64.482 175.442C64.5566 176.392 64.8728 177.139 64.3364 178.048C63.8327 178.903 62.7346 179.268 61.9648 179.851C60.1335 181.24 58.2079 182.716 56.1762 183.8C55.7151 184.046 55.2791 184.26 54.8497 184.561C54.1327 185.063 54.2638 185.245 53.5412 184.764C52.4114 184.01 51.4353 182.759 50.4157 181.85C48.2794 179.946 46.1194 178.066 43.9317 176.221C39.7624 172.706 35.4701 169.365 31.3527 165.786C27.44 162.386 23.2453 159.459 19.2058 156.226C18.0978 155.339 17.0032 154.434 15.9097 153.529C14.9359 152.724 13.3559 151.836 12.6356 150.806C11.5896 149.309 15.6813 147.263 16.9158 146.959C19.0444 146.434 21.7969 146.734 23.9289 147.164C26.1669 147.616 28.4457 149.126 30.5354 150.066C32.8909 151.126 35.2899 152.043 37.6628 153.044C38.721 153.49 39.843 153.846 40.8253 154.447C41.8677 155.085 42.7982 155.813 43.9066 156.348C45.184 156.963 46.5112 157.538 47.8546 157.994C48.4633 158.2 49.1185 158.408 49.7582 158.491C50.6639 158.609 50.5411 158.191 51.2934 157.958C51.9328 157.759 52.0846 158.283 52.6596 158.429C53.2009 158.567 53.6056 158.428 54.0743 158.136C55.1193 157.486 56.0495 156.59 57.0948 155.913C58.0646 155.285 59.1337 154.698 60.0428 153.987C60.4481 153.67 60.7478 153.236 61.1472 152.914C61.7872 152.398 62.0411 152.603 62.7884 152.248C63.3993 151.957 63.9535 151.416 64.5348 151.058C64.8956 150.835 65.7706 150.554 66.0033 150.194C66.6146 149.248 65.5712 148.591 64.6368 148.87C64.4968 148.054 63.7783 146.115 64.0885 145.349C64.3632 144.672 65.0841 144.799 65.6904 144.44C67.9693 143.092 69.651 140.643 71.783 139.059C73.7928 137.566 75.566 135.783 77.557 134.262C79.2626 132.959 81.1265 131.688 82.6795 130.283C84.5157 128.622 86.8666 127.329 88.8629 125.847C90.9252 124.316 92.8416 122.612 94.8819 121.063C96.8448 119.573 98.7728 118.016 100.79 116.598C102.603 115.323 104.503 114.159 106.278 112.866C107.251 112.159 108.314 111.537 109.424 111.072C110.528 110.61 111.493 110.068 112.571 109.57C114.713 108.581 117.502 107.897 119.831 107.614C122.392 107.302 124.963 107.023 127.548 107.02C128.925 107.019 130.263 107.282 131.631 107.365C132.889 107.441 134.249 107.76 135.498 107.718C136.063 107.699 136.555 107.46 137.102 107.537C137.559 107.602 137.957 107.878 138.448 107.926C139.54 108.034 140.638 107.927 141.742 108.068C144.28 108.393 146.82 108.856 149.363 109.114C152.072 109.389 154.757 109.441 157.452 109.904C160.085 110.356 162.735 110.824 165.354 111.347C170.918 112.459 176.54 113.544 182.016 115.194C183.296 115.579 184.584 115.946 185.814 116.475C186.411 116.731 186.985 117.042 187.608 117.234C188.5 117.508 188.675 117.613 189.135 116.863C189.926 115.572 190.361 113.866 190.935 112.462C191.503 111.072 192.192 109.672 192.521 108.221C191.564 108.069 190.357 108.364 189.37 108.398C188.163 108.44 186.969 108.413 185.763 108.406C183.333 108.392 181.432 107.672 179.133 106.917C177.194 106.281 174.614 105.915 173.135 104.458C172.343 103.676 172.079 103.538 170.887 103.679C169.685 103.82 168.498 104.063 167.284 104.104C162.71 104.256 158.157 105.056 153.561 105.214C152.318 105.256 149.209 105.847 149.413 103.734C149.455 103.296 149.791 102.915 149.856 102.464C149.926 101.98 149.805 101.489 149.73 101.016C149.55 99.8972 149.362 98.779 149.183 97.6598C144.993 99.0072 140.75 100.099 136.48 101.166C134.709 101.609 131.865 102.626 130.035 102.068C128.266 101.529 129.291 99.032 129.842 97.8367C126.327 98.6404 122.579 99.9547 118.995 100.256C117.905 100.348 116.844 100.59 116.59 99.2694C116.388 98.217 117.147 96.9302 117.533 96.0058C114.783 95.7597 111.935 95.7832 112.453 92.251C112.927 89.0102 115.614 88.365 118.475 87.773C122.006 87.0417 125.612 86.798 129.166 86.2063C132.258 85.6913 135.632 85.1172 138.789 85.3772C140.461 85.5144 142.143 85.5458 143.814 85.7009C144.603 85.774 145.361 85.8964 146.124 86.112C146.828 86.3105 147.813 86.926 148.534 86.9369C149.624 86.9541 150.937 85.4784 152.108 85.1374C153.559 84.7147 155.123 84.638 156.622 84.5345C158.321 84.4177 160.023 84.3526 161.721 84.2146C162.108 84.1832 163.571 84.2791 163.877 84.0519C164.322 83.7209 164.026 82.0229 163.995 81.3254C163.966 80.6801 164.09 79.4717 163.644 79.2186C163.225 78.9812 162.003 79.3069 161.59 79.3731C159.88 79.6476 158.255 79.6162 156.551 79.5464C155.764 79.5143 155.008 79.7243 154.229 79.6208C153.393 79.51 152.551 79.2282 151.718 79.0715C149.914 78.7318 148.271 78.3091 146.717 77.2964C145.352 76.4078 143.737 75.8062 142.975 74.2498C142.416 73.1101 142.189 70.9107 143.831 70.5866C142.713 68.9703 141.941 67.1546 141.349 65.287C141.241 64.9483 141.17 64.4384 141.009 64.143C140.441 63.0986 140.968 64.0249 140.158 63.6072C139.358 63.1948 138.781 62.8684 138.155 62.151C137.158 61.007 136.738 59.5991 136.612 58.1085C136.441 56.0841 136.121 53.8014 136.417 51.7873C136.927 48.2984 139.472 45.6771 142.058 43.567C143.462 42.4214 145.31 41.9947 146.956 41.2996C148.546 40.6282 150.321 39.9244 151.996 39.767C153.507 39.6247 154.98 39.1303 156.494 38.9309C158.573 38.6564 160.655 38.7589 162.745 38.6756C163.706 38.6372 164.666 38.5013 165.624 38.3977C166.164 38.3392 167.079 38.4017 167.574 38.1871C168.384 37.8352 167.946 38.574 168.236 37.4978C168.786 35.4506 169.236 33.5307 170.07 31.5414C170.847 29.688 171.791 27.9159 173.038 26.3314C174.208 24.8451 175.725 23.758 177.103 22.4883C178.124 21.5477 179.282 20.6981 180.447 19.9374C181.113 19.5025 181.855 19.2674 182.506 18.8834C183.314 18.4071 184.027 18.046 184.936 17.7543C186.887 17.1285 188.823 16.4641 190.895 16.4969C193.128 16.5319 195.368 16.011 197.542 16.6715C201.58 17.8982 203.558 22.283 203.491 26.3096C204.872 25.9643 206.079 25.2995 207.542 25.2427C208.889 25.1904 210.49 25.3075 211.814 25.5582C214.382 26.0447 217.024 27.4754 218.556 29.6437C220.017 31.7117 220.235 34.4574 219.337 36.8036C218.908 37.9268 218.226 38.9259 217.5 39.8748C216.968 40.5706 215.78 41.3409 215.724 42.2732C225.666 39.2619 235.649 37.1393 245.934 35.7655C251.148 35.0693 256.37 35.4179 261.589 35.02C263.818 34.85 266.241 35.0878 268.546 35.0967C269.519 35.1007 270.276 34.9651 270.981 34.3341C271.695 33.6958 272.266 32.9139 273.099 33.8353C273.311 34.0705 273.356 34.6393 273.642 34.8163C273.988 35.0306 274.996 34.8834 275.41 34.9089C276.86 34.9975 278.274 35.2439 279.697 35.5277C282.308 36.0486 284.902 36.5751 287.482 37.2362C292.394 38.4953 297.242 39.713 302.083 41.2076C307.023 42.7326 312.015 44.6141 316.57 47.0827C318.776 48.2783 320.979 49.7709 323.008 51.2499C323.951 51.9378 324.796 52.6819 325.616 53.5114C326.493 54.3981 327.565 54.9964 328.434 55.8897C330.323 57.8327 332.204 59.8938 333.918 61.9989C334.813 63.0979 335.633 64.2571 336.43 65.4286C336.989 66.2504 338.463 67.7552 338.123 68.8169C337.942 69.3838 337.311 69.7803 336.732 69.6414C336.539 69.5951 336.378 69.3437 336.213 69.3199C335.654 69.2405 336.163 69.0434 335.51 69.3083C334.215 69.8352 333.801 70.8919 332.155 70.6514C329.356 70.2423 326.724 68.9181 324.179 67.7635C323.452 70.5482 323.349 73.4352 322.712 76.2533C322.092 79.0027 321.057 81.6247 319.808 84.1465C318.712 86.3591 317.305 88.7172 315.365 90.2984C313.885 91.5049 310.232 93.0038 309.144 90.435C308.683 89.3439 309.37 87.6486 309.564 86.5258C309.825 85.019 310.113 83.5079 310.27 81.9859C310.397 80.7493 310.462 79.5054 310.581 78.2675C310.683 77.2025 310.967 74.9162 310.369 73.9756C310.009 73.4087 309.978 73.965 309.768 74.5309C309.514 75.2172 309.303 75.8978 309.117 76.6046C308.722 78.1064 308.365 79.6185 307.991 81.1256C307.323 83.8184 306.587 86.4524 305.195 88.8736C303.959 91.0237 302.218 93.3825 299.574 93.7347C298.336 93.8994 296.722 93.3322 295.777 92.4964C294.716 91.5588 295.033 90.0123 295.042 88.7377Z" fill="black"/>
<path fill-rule="evenodd" clip-rule="evenodd" d="M234.655 198.699C236.108 198.411 237.331 197.249 238.518 196.376C240.032 195.262 241.468 194.049 242.938 192.879C245.708 190.675 248.221 188.257 250.611 185.628C255.326 180.441 258.875 173.764 260.489 166.942C261.305 163.49 262.315 159.445 261.852 155.878C261.691 154.639 261.445 154.412 260.232 154.271C259.685 154.207 258.295 154.049 257.802 154.265C256.524 154.825 255.834 157.206 255.455 158.402C254.335 161.935 253.676 165.594 252.665 169.156C251.673 172.647 250.075 176.189 248.494 179.454C244.978 186.718 240.09 192.795 234.655 198.699ZM263.485 158.593C262.616 168.485 259.875 177.91 253.729 185.876C250.808 189.662 247.372 192.956 243.649 195.949C239.804 199.039 235.877 201.949 231.515 204.254C230.354 204.867 229.191 205.478 228.016 206.063C227.364 206.388 225.719 207.582 224.968 207.393C224.366 207.242 224.209 206.775 224.115 206.168C223.904 204.805 224.788 204.125 225.681 203.249C229.271 199.733 232.872 196.204 236.228 192.464C242.856 185.076 247.835 176.23 250.603 166.686C251.456 163.747 252.216 160.775 253.137 157.857C253.697 156.079 254.492 152.915 256.355 152.029C257.354 151.553 258.518 152.016 259.568 151.731C260.554 151.464 261.206 150.919 262.046 151.833C263.52 153.437 263.585 156.583 263.485 158.593Z" fill="black"/>
<path fill-rule="evenodd" clip-rule="evenodd" d="M0.89456 215.668C0.158815 215.929 0.128118 216.188 -0.208892 215.43C-0.378552 215.047 -0.332671 214.524 -0.292732 214.127C-0.197009 213.175 0.302729 212.297 0.713347 211.453C4.5779 214.648 8.59066 217.526 12.7345 220.348C17.1661 223.366 21.3974 226.722 25.5887 230.065C29.342 233.059 33.1406 235.964 36.8546 238.996C38.6459 240.458 40.6881 241.591 42.391 243.098C43.7671 244.316 46.0493 244.861 47.2224 246.294C45.3633 247.407 42.8815 248.303 40.8215 247.34C38.5489 246.278 36.8057 244.893 34.7834 243.453C33.7413 242.712 32.6576 242.038 31.5991 241.321C30.6686 240.689 30.0114 239.768 29.0694 239.176C27.0896 237.931 25.0586 236.56 23.1801 235.139C21.2505 233.679 19.1175 232.518 17.2559 230.967C15.3474 229.377 13.2111 228.323 11.2184 226.875C6.99539 223.807 3.27673 220.356 0.89456 215.668Z" fill="black"/>
<path fill-rule="evenodd" clip-rule="evenodd" d="M114.832 52.7424C114.779 53.0248 114.727 53.3073 114.674 53.5901C114.706 53.5973 117.233 48.7058 117.652 48.1152C119.072 46.1126 120.92 44.4464 122.701 42.7739C126.475 39.2311 130.891 36.3716 134.589 32.7657C135.806 31.5794 137.985 29.7818 137.504 27.776C137.026 25.7823 132.988 26.1875 131.606 26.7643C129.438 27.6688 127.677 29.5606 126.062 31.2089C124.3 33.0071 122.524 34.7851 121.031 36.8201C119.421 39.0145 117.892 41.3911 116.905 43.9377C115.8 46.7906 115.368 49.743 114.832 52.7424ZM115.662 61.4948C113.947 62.0246 116.097 62.3825 115.425 63.3006C114.688 64.3073 113.45 61.2054 113.265 60.6197C112.173 57.1593 112.661 52.9554 113.257 49.442C113.558 47.6697 113.753 45.8682 114.159 44.115C114.555 42.4055 115.417 40.7809 116.214 39.2258C117.809 36.1143 119.922 33.2155 122.319 30.6785C124.724 28.1332 127.404 25.5865 130.577 24.0196C133.199 22.7254 137.355 23.6233 138.582 26.4501C139.836 29.3387 138.14 32.4852 136.134 34.5162C133.518 37.165 130.668 39.796 127.729 42.08C126.219 43.2541 124.953 44.6739 123.486 45.8989C121.924 47.203 120.573 48.5147 119.419 50.2011C118.3 51.8352 117.149 53.468 116.422 55.3231C115.627 57.3544 115.662 59.3457 115.662 61.4948Z" fill="black"/>
<path fill-rule="evenodd" clip-rule="evenodd" d="M47.0726 186.062C43.1321 183.52 39.1785 181.287 35.747 178.045C32.3591 174.844 29.3989 171.234 25.6281 168.457C23.7467 167.071 21.8048 165.77 19.9567 164.339C18.2027 162.981 16.1865 161.817 14.6012 160.268C12.488 158.202 8.5317 154.364 11.2314 151.285C14.5824 155.278 19.18 158.425 23.3717 161.457C27.7914 164.653 31.8481 168.382 36.0404 171.865C40.0789 175.22 44.1039 178.605 48.0447 182.049C49.0795 182.953 50.0777 183.903 51.1247 184.793C51.2527 184.902 52.338 185.591 52.338 185.774C52.338 186.214 51.497 186.489 51.1973 186.611C50.7243 186.804 49.4449 187.285 48.9085 187.122C48.6273 187.037 48.6223 186.807 48.4197 186.671C48.3031 186.451 48.1672 186.243 48.0127 186.048C47.6991 186.053 47.3859 186.058 47.0726 186.062Z" fill="black"/>
<path fill-rule="evenodd" clip-rule="evenodd" d="M279.046 141.735C276.237 141.663 271.961 141.654 272.118 145.498C272.196 147.401 273.226 148.798 274.072 150.426C274.96 152.137 275.619 153.904 275.88 155.821C276.934 163.583 274.105 171.165 271.546 178.34C277.042 173.895 281.011 167.71 283.095 160.931C284.105 157.644 284.499 153.419 284.172 149.996C284.009 148.283 283.378 146.747 282.619 145.221C282.238 144.455 281.857 143.579 281.249 142.959C280.64 142.337 279.795 142.13 279.046 141.735ZM269.247 182.785C267.432 179.795 270.289 175.392 271.223 172.477C272.34 168.991 273.371 165.361 273.848 161.726C274.348 157.917 273.703 154.956 271.941 151.592C270.366 148.585 269.43 144.58 271.182 141.398C271.887 140.117 272.929 139.96 274.167 139.449C275.686 138.822 276.105 137.762 277.97 137.93C281.297 138.229 282.837 141.391 284.075 144.085C286.961 150.366 286.176 158.471 283.715 164.778C282.298 168.407 280.683 172.175 278.277 175.265C277.098 176.78 275.712 178.093 274.273 179.357C272.717 180.724 271.322 182.372 269.247 182.785Z" fill="black"/>
<path fill-rule="evenodd" clip-rule="evenodd" d="M79.2288 73.7437C74.8421 74.6271 70.8389 76.6081 70.1361 81.5479C69.4974 86.0372 72.5493 90.1905 76.2971 92.292C80.3504 94.5654 85.4293 94.9431 89.4682 92.4236C93.7199 89.7712 94.6844 84.4557 92.0966 80.2855C89.209 75.6318 84.3718 74.2583 79.2288 73.7437ZM82.048 71.59C87.2718 72.3569 92.121 76.0819 93.8806 81.0988C95.6947 86.2704 94.0279 91.9563 89.2252 94.79C79.5193 100.517 66.5469 90.9727 68.8894 80.0024C69.4842 77.217 71.1732 75.06 73.468 73.4292C76.0013 71.6283 79.0648 71.5794 82.048 71.59Z" fill="black"/>
<path fill-rule="evenodd" clip-rule="evenodd" d="M267.777 19.0715C261.483 16.2199 255.188 13.3684 248.894 10.5168C248.636 13.3757 248.378 16.2341 248.119 19.093C248.049 19.8665 247.763 20.9189 247.885 21.6822C248.015 22.4968 247.737 22.4099 248.797 22.2941C250.152 22.1456 251.512 21.8102 252.854 21.5705C255.265 21.1392 257.83 21.0162 260.19 20.3818C261.395 20.058 262.548 20.0174 263.771 19.8216C265.114 19.6066 266.421 19.2084 267.777 19.0715ZM246.485 24.598C246.485 21.3776 246.842 18.2007 247.136 14.9952C247.401 12.1113 247.503 9.36226 248.442 6.61456C249.32 8.21165 251.75 8.84996 253.254 9.67182C255.326 10.8042 257.533 11.638 259.654 12.6696C261.738 13.6826 263.745 14.8457 265.83 15.8565C266.888 16.3691 267.962 16.8473 269.017 17.3639C269.678 17.6874 271.245 18.2079 271.656 18.8085C272.904 20.6315 268.633 20.8078 267.808 20.9685C265.336 21.4517 262.834 21.7239 260.366 22.2207C258.065 22.6844 255.76 23.1146 253.451 23.535C251.165 23.951 248.811 24.598 246.485 24.598Z" fill="black"/>
<path fill-rule="evenodd" clip-rule="evenodd" d="M52.4051 104.32C54.8834 104.062 57.3513 103.69 59.8269 103.445C62.1712 103.212 64.2447 102.965 66.3863 101.888C63.4614 101.005 60.53 100.168 57.5804 99.3696C56.1175 98.9737 54.6576 98.5547 53.1881 98.185C52.0513 97.8985 51.0604 97.7338 50.6234 96.4906C50.1147 95.0434 51.5291 95.2626 52.4107 95.6304C53.6268 96.1374 54.9514 96.4526 56.2116 96.8743C59.0245 97.8152 61.8546 98.6807 64.6939 99.5363C65.5766 99.8022 70.6908 100.786 68.848 102.495C68.0594 103.227 66.2998 103.629 65.3356 104.155C64.0988 104.829 62.7524 105.097 61.3767 105.365C58.5093 105.924 55.5336 106.139 52.6309 106.624C51.1485 106.872 49.6665 107.119 48.1844 107.367C47.316 107.512 46.9816 107.498 46.7549 106.527C46.5898 105.822 46.805 105.117 46.9635 104.434C47.3655 102.698 47.8128 100.972 48.2554 99.2469C48.4237 98.5888 48.7218 95.6956 49.3077 95.379C50.6369 94.661 49.6113 98.6665 49.5127 99.157C49.1397 101.007 48.6967 102.844 48.4973 104.722C49.8028 104.603 51.1046 104.481 52.4051 104.32Z" fill="black"/>
<path fill-rule="evenodd" clip-rule="evenodd" d="M87.5446 119.049C88.0364 120.287 87.2198 120.563 86.2289 120.992C84.9436 121.548 83.6794 122.135 82.3706 122.635C79.6174 123.688 76.8444 124.666 74.1569 125.884C69.0312 128.207 63.8361 130.437 58.7898 132.924C57.5359 133.542 56.2809 134.158 55.0157 134.753C53.7073 135.369 52.2067 136.405 50.8069 136.757C49.5859 137.064 49.4585 136.193 50.182 135.391C51.1148 134.356 52.557 133.583 53.7284 132.864C58.5495 129.903 63.8113 127.493 69.077 125.456C75.1634 123.101 81.2662 120.842 87.5446 119.049Z" fill="black"/>
<path fill-rule="evenodd" clip-rule="evenodd" d="M100.928 48.8596C100.751 45.0979 101.253 41.3259 100.954 37.5741C95.8061 42.1468 98.3424 49.2135 101.304 54.1751L100.928 48.8596ZM103.156 48.6446C103.189 50.4821 103.293 52.3187 103.114 54.147C102.927 56.0662 103.826 57.0547 104.997 58.4683C104.002 59.4796 101.72 57.1215 101.09 56.4263C99.7924 54.9949 98.827 53.0933 97.9678 51.3745C96.1378 47.713 94.8776 43.7928 96.3421 39.7728C96.8851 38.2829 97.5492 36.2572 98.9867 35.3896C100.565 34.4371 101.773 35.7806 102.427 37.1624C104.026 40.5338 102.807 45.0258 103.156 48.6446Z" fill="black"/>
<path fill-rule="evenodd" clip-rule="evenodd" d="M157.692 235.632C160.065 235.821 162.404 236.006 164.777 236.157C164.368 232.897 163.958 229.636 163.548 226.375C162.175 226.694 160.801 227.013 159.428 227.331C158.779 227.481 157.783 227.521 157.208 227.846C156.993 227.895 156.778 227.945 156.563 227.995C156.558 228.418 156.553 228.842 156.549 229.265C156.533 230.517 156.497 231.768 156.445 233.019C156.423 233.543 156.241 234.311 156.366 234.83C156.144 235.355 156.285 235.578 156.791 235.5C157.091 235.544 157.391 235.588 157.692 235.632ZM156.057 237.989C154.197 237.061 154.705 234.224 154.708 232.419C154.711 231.27 154.792 230.129 154.822 228.982C154.842 228.194 154.663 227.218 154.933 226.457C155.415 225.102 157.771 225.138 158.983 225.233C159.881 225.303 160.633 225.258 161.554 225.199C162.008 225.17 162.514 225.256 162.96 225.122C163.057 225.093 163.964 224.459 163.924 224.457C165.551 224.52 165.573 228.43 165.679 229.422C165.94 231.868 166.176 234.318 166.389 236.769C166.445 237.417 166.686 238.151 166.071 238.521C165.516 238.855 164.047 238.525 163.433 238.506C160.961 238.431 158.503 238.045 156.057 237.989Z" fill="black"/>
<path fill-rule="evenodd" clip-rule="evenodd" d="M272.206 92.6947C273.282 93.6647 272.765 94.6655 272.413 95.8773C272.201 96.6046 271.037 98.9924 271.358 99.6728C271.73 100.459 273.473 100.653 274.219 100.901C275.517 101.334 276.822 101.768 278.051 102.378C278.596 102.649 280.563 103.271 280.931 103.777C281.143 104.066 281.22 104.293 281.061 104.667C280.782 105.322 280.384 104.975 279.705 104.835C276.599 104.192 273.52 103.37 270.639 102.014C269.836 103.881 269.156 105.789 268.477 107.705C268.278 108.266 268.088 109.542 267.332 109.633C266.409 109.744 266.397 108.506 266.458 107.838C266.547 106.863 267.052 105.824 267.356 104.901C267.607 104.139 268.488 102.552 268.38 101.767C268.305 101.227 267.977 101.265 267.391 101.052C266.837 100.852 266.283 100.652 265.73 100.45C264.843 100.125 263.96 99.7984 263.097 99.4128C262.623 99.2011 261.632 98.9538 261.289 98.5145C261.09 98.2599 260.868 97.3421 261.119 97.0881C261.706 96.4931 265.612 98.0945 266.415 98.3131C266.948 98.4583 267.483 98.5691 268 98.7593C268.196 98.8317 268.427 99.1254 268.639 99.1363C269.538 99.182 269.609 98.4897 269.887 97.7473C270.535 96.0218 271.237 94.2617 272.206 92.6947Z" fill="black"/>
<path fill-rule="evenodd" clip-rule="evenodd" d="M48.2875 127.023C47.8086 125.846 52.8921 124.425 53.8358 124.029C56.1391 123.063 58.6068 122.479 60.9916 121.741C63.3368 121.015 65.6718 120.234 67.9784 119.394C68.6917 119.134 73.8283 116.628 74.097 116.995C74.9872 118.207 64.2082 122.016 63.1579 122.395C58.2807 124.154 53.2447 125.505 48.2875 127.023Z" fill="black"/>
<path fill-rule="evenodd" clip-rule="evenodd" d="M266.93 35.0252C265.613 35.0385 263.712 35.4129 262.503 34.8771C263.979 34.9264 265.455 34.976 266.93 35.0252Z" fill="black"/>
<path fill-rule="evenodd" clip-rule="evenodd" d="M82.048 71.5901L79.1179 71.5795C80.0956 71.3523 81.0726 71.215 82.048 71.5901Z" fill="black"/>
<path fill-rule="evenodd" clip-rule="evenodd" d="M234.634 70.8057C235.325 70.8021 236.016 70.7985 236.703 70.7945C236.01 70.7985 235.322 70.8021 234.634 70.8057Z" fill="black"/>
<path fill-rule="evenodd" clip-rule="evenodd" d="M295.042 88.7378C295.036 89.4783 295.032 90.2188 295.025 90.9563C295.03 90.2148 295.036 89.4763 295.042 88.7378Z" fill="black"/>
<path fill-rule="evenodd" clip-rule="evenodd" d="M158.983 225.233C158.249 225.286 157.515 225.339 156.782 225.392C157.516 225.339 158.25 225.286 158.983 225.233Z" fill="black"/>
<path fill-rule="evenodd" clip-rule="evenodd" d="M163.118 84.101C162.373 84.1615 161.627 84.2223 160.883 84.2829C161.628 84.222 162.373 84.1615 163.118 84.101Z" fill="black"/>
<path fill-rule="evenodd" clip-rule="evenodd" d="M240.233 70.5621C240.76 70.5611 241.287 70.5601 241.811 70.5591C241.282 70.5604 240.757 70.5614 240.233 70.5621Z" fill="black"/>
<path fill-rule="evenodd" clip-rule="evenodd" d="M134.126 85.5458C133.471 85.605 132.815 85.6642 132.16 85.7234C132.815 85.6642 133.471 85.605 134.126 85.5458Z" fill="black"/>
<path fill-rule="evenodd" clip-rule="evenodd" d="M163.072 38.6735C162.417 38.6775 161.761 38.6815 161.106 38.6854C161.76 38.3382 162.416 38.4278 163.072 38.6735Z" fill="black"/>
<path fill-rule="evenodd" clip-rule="evenodd" d="M43.4292 152.262C42.8839 152.233 42.4396 152.498 42.132 151.977C42.6353 151.584 42.9258 152.037 43.4292 152.262Z" fill="black"/>
<path fill-rule="evenodd" clip-rule="evenodd" d="M144.56 108.403L142.858 108.211L144.56 108.403Z" fill="black"/>
<path fill-rule="evenodd" clip-rule="evenodd" d="M156.057 237.989C156.433 237.998 156.809 238.006 157.181 238.015C156.803 238.006 156.43 237.998 156.057 237.989Z" fill="black"/>
<path fill-rule="evenodd" clip-rule="evenodd" d="M243.389 36.0974C242.803 36.15 242.217 36.2026 241.632 36.2552C242.217 36.2023 242.803 36.15 243.389 36.0974Z" fill="black"/>
<path fill-rule="evenodd" clip-rule="evenodd" d="M57.7205 214.176C57.1578 214.178 56.5953 214.18 56.0329 214.182C56.5956 214.18 57.1581 214.178 57.7205 214.176Z" fill="black"/>
<path fill-rule="evenodd" clip-rule="evenodd" d="M12.4866 204.181C11.9186 204.182 11.3508 204.183 10.7831 204.184C11.3512 204.183 11.9186 204.182 12.4866 204.181Z" fill="black"/>
<path fill-rule="evenodd" clip-rule="evenodd" d="M156.013 84.5706C155.437 84.6274 154.86 84.684 154.283 84.7409C154.86 84.684 155.437 84.6274 156.013 84.5706Z" fill="black"/>
<path fill-rule="evenodd" clip-rule="evenodd" d="M139.924 85.508C139.356 85.4425 138.789 85.377 138.222 85.3115C138.784 85.4217 139.409 84.9867 139.924 85.508Z" fill="black"/>
<path fill-rule="evenodd" clip-rule="evenodd" d="M191.308 108.327C191.661 108.287 192.157 108.163 192.521 108.221C192.474 108.43 191.444 108.327 191.308 108.327Z" fill="black"/>
<path fill-rule="evenodd" clip-rule="evenodd" d="M155.318 152.922C155.699 152.929 156.08 152.937 156.456 152.943C156.074 152.936 155.697 152.929 155.318 152.922Z" fill="black"/>
<path fill-rule="evenodd" clip-rule="evenodd" d="M120.942 107.506C120.386 107.56 119.831 107.614 119.275 107.667C119.831 107.613 120.386 107.56 120.942 107.506Z" fill="black"/>
<path fill-rule="evenodd" clip-rule="evenodd" d="M58.7108 105.608C59.0138 105.616 59.3168 105.624 59.6159 105.633C59.3115 105.624 59.0112 105.616 58.7108 105.608Z" fill="black"/>
<path fill-rule="evenodd" clip-rule="evenodd" d="M140.627 107.925C140.151 107.916 139.676 107.906 139.201 107.897C139.676 107.906 140.151 107.916 140.627 107.925Z" fill="black"/>
<path fill-rule="evenodd" clip-rule="evenodd" d="M52.4051 104.32C51.9245 104.38 51.444 104.439 50.964 104.498C51.4449 104.438 51.9249 104.379 52.4051 104.32Z" fill="black"/>
<path fill-rule="evenodd" clip-rule="evenodd" d="M118.33 100.229C118.627 100.241 118.924 100.253 119.217 100.266C118.918 100.255 118.624 100.242 118.33 100.229Z" fill="black"/>
<path fill-rule="evenodd" clip-rule="evenodd" d="M140.973 150.245C141.274 150.226 141.575 150.206 141.873 150.186C141.57 150.205 141.271 150.226 140.973 150.245Z" fill="black"/>
<path fill-rule="evenodd" clip-rule="evenodd" d="M164.026 111.08C163.541 111.019 163.057 110.959 162.573 110.898C163.057 110.959 163.541 111.019 164.026 111.08Z" fill="black"/>
<path fill-rule="evenodd" clip-rule="evenodd" d="M47.0726 186.062C47.3872 186.057 47.7018 186.054 48.0127 186.048C47.6971 186.053 47.3846 186.057 47.0726 186.062Z" fill="black"/>
<path fill-rule="evenodd" clip-rule="evenodd" d="M21.2453 146.897C20.7442 146.847 20.2432 146.796 19.7418 146.745C20.2428 146.796 20.7439 146.847 21.2453 146.897Z" fill="black"/>
<path fill-rule="evenodd" clip-rule="evenodd" d="M10.5539 204.249C10.0614 204.306 9.56892 204.363 9.07611 204.42C9.56925 204.363 10.0614 204.306 10.5539 204.249Z" fill="black"/>
<path fill-rule="evenodd" clip-rule="evenodd" d="M279.021 70.7256C278.982 71.1523 278.943 71.5789 278.904 72.0039C278.942 71.5766 278.981 71.1513 279.021 70.7256Z" fill="black"/>
<path fill-rule="evenodd" clip-rule="evenodd" d="M60.6638 213.749C60.1684 213.806 59.673 213.863 59.1778 213.92C59.6733 213.863 60.1687 213.806 60.6638 213.749Z" fill="black"/>
<path fill-rule="evenodd" clip-rule="evenodd" d="M55.8029 214.241C55.3015 214.592 54.8005 214.612 54.2988 214.243C54.8001 214.242 55.3015 214.242 55.8029 214.241Z" fill="black"/>
<path fill-rule="evenodd" clip-rule="evenodd" d="M46.2967 214.661C45.8105 214.661 45.3247 214.662 44.8388 214.662C45.325 214.662 45.8109 214.661 46.2967 214.661Z" fill="black"/>
<path fill-rule="evenodd" clip-rule="evenodd" d="M103.156 48.6446C103.114 48.2123 103.073 47.7804 103.031 47.3498C103.073 47.7827 103.114 48.2137 103.156 48.6446Z" fill="black"/>
<path fill-rule="evenodd" clip-rule="evenodd" d="M156.251 38.9924C155.763 39.053 155.274 39.1131 154.786 39.1733C155.275 39.1131 155.763 39.053 156.251 38.9924Z" fill="black"/>
<path fill-rule="evenodd" clip-rule="evenodd" d="M157.983 38.7634C157.486 38.819 156.99 38.8749 156.493 38.9308C156.99 38.8749 157.486 38.819 157.983 38.7634Z" fill="black"/>
<path fill-rule="evenodd" clip-rule="evenodd" d="M80.8766 96.3615C81.1823 96.3569 81.4879 96.3522 81.7893 96.3476C81.4823 96.3522 81.1796 96.3569 80.8766 96.3615Z" fill="black"/>
<path fill-rule="evenodd" clip-rule="evenodd" d="M125.106 91.5745C126.727 91.3066 128.348 91.2173 129.969 91.5735L125.106 91.5745Z" fill="black"/>
<path fill-rule="evenodd" clip-rule="evenodd" d="M168.342 73.3027C168.679 72.4197 168.763 72.0883 169.587 71.6312C169.244 72.4895 169.19 72.9485 168.342 73.3027Z" fill="black"/>
<path fill-rule="evenodd" clip-rule="evenodd" d="M207.874 160.694C207.907 161.612 207.94 162.531 207.972 163.448C207.939 162.529 207.907 161.612 207.874 160.694Z" fill="black"/>
<path fill-rule="evenodd" clip-rule="evenodd" d="M266.665 37.1458C265.932 37.1623 265.199 37.1792 264.468 37.1957C265.203 37.1792 265.934 37.1623 266.665 37.1458Z" fill="black"/>
<path fill-rule="evenodd" clip-rule="evenodd" d="M168.97 177.012C168.996 177.777 169.021 178.543 169.046 179.308C169.021 178.542 168.995 177.777 168.97 177.012Z" fill="black"/>
<path fill-rule="evenodd" clip-rule="evenodd" d="M79.1025 152.491C79.8431 152.496 80.5842 152.501 81.3249 152.506C80.5838 152.501 79.8431 152.496 79.1025 152.491Z" fill="black"/>
<path fill-rule="evenodd" clip-rule="evenodd" d="M142.071 113.176C141.624 113.18 141.178 113.184 140.736 113.19C141.184 113.186 141.627 113.181 142.071 113.176Z" fill="black"/>
<path fill-rule="evenodd" clip-rule="evenodd" d="M140.617 88.8466C140.25 88.8341 139.882 88.8215 139.519 88.8102C139.888 88.8231 140.252 88.8347 140.617 88.8466Z" fill="black"/>
<path fill-rule="evenodd" clip-rule="evenodd" d="M88.1232 152.259C88.7025 152.203 89.2814 152.146 89.8607 152.089C89.2814 152.146 88.7025 152.203 88.1232 152.259Z" fill="black"/>
<path fill-rule="evenodd" clip-rule="evenodd" d="M75.5028 152.52C76.0703 152.511 76.6377 152.502 77.2047 152.493C76.6377 152.502 76.0703 152.511 75.5028 152.52Z" fill="black"/>
<path fill-rule="evenodd" clip-rule="evenodd" d="M81.5603 152.505C82.1479 152.454 82.7354 152.403 83.3233 152.351C82.7357 152.402 82.1479 152.454 81.5603 152.505Z" fill="black"/>
<path fill-rule="evenodd" clip-rule="evenodd" d="M83.7029 153.439C83.4108 153.437 83.1187 153.435 82.8305 153.433C83.1239 153.435 83.4134 153.437 83.7029 153.439Z" fill="black"/>
<path fill-rule="evenodd" clip-rule="evenodd" d="M207.618 140.285C207.662 139.853 207.706 139.422 207.749 138.992C207.706 139.424 207.662 139.854 207.618 140.285Z" fill="black"/>
<path fill-rule="evenodd" clip-rule="evenodd" d="M119.893 96.6714C120.261 96.7028 120.63 96.7342 120.999 96.766C120.587 96.7871 120.175 96.808 119.764 96.8291C119.766 96.7445 119.809 96.6919 119.893 96.6714Z" fill="black"/>
<path fill-rule="evenodd" clip-rule="evenodd" d="M214.567 169.239C214.544 168.846 214.52 168.453 214.497 168.062C214.521 168.456 214.544 168.848 214.567 169.239Z" fill="black"/>
<path fill-rule="evenodd" clip-rule="evenodd" d="M126.507 95.1722C126.212 95.1782 125.916 95.1838 125.623 95.1894C125.921 95.1835 126.214 95.1779 126.507 95.1722Z" fill="black"/>
<path fill-rule="evenodd" clip-rule="evenodd" d="M234.802 144.771C235.295 144.829 235.789 144.886 236.281 144.944C235.788 144.886 235.295 144.829 234.802 144.771Z" fill="black"/>
<path fill-rule="evenodd" clip-rule="evenodd" d="M132.382 112.215C132.079 112.22 131.775 112.224 131.476 112.229C131.78 112.225 132.081 112.22 132.382 112.215Z" fill="black"/>
<path fill-rule="evenodd" clip-rule="evenodd" d="M114.832 52.7424C115.15 52.9127 114.985 53.6615 114.674 53.59C114.727 53.3073 114.779 53.0248 114.832 52.7424Z" fill="black"/>
<path fill-rule="evenodd" clip-rule="evenodd" d="M279.046 141.735C278.753 141.727 278.46 141.72 278.172 141.712C278.465 141.72 278.755 141.728 279.046 141.735Z" fill="black"/>
<path fill-rule="evenodd" clip-rule="evenodd" d="M100.928 48.8595C100.897 48.1997 100.866 47.5403 100.835 46.8824C100.866 47.5429 100.897 48.2011 100.928 48.8595Z" fill="black"/>
<path fill-rule="evenodd" clip-rule="evenodd" d="M156.34 235.434C156.791 235.5 157.242 235.566 157.692 235.632C157.241 235.566 156.791 235.5 156.34 235.434Z" fill="black"/>
<path fill-rule="evenodd" clip-rule="evenodd" d="M153.361 65.5762C151.771 65.904 150.139 66.0753 148.587 66.5578C148.2 66.6782 146.929 67.4177 146.465 67.2229C145.761 66.9263 146.117 66.1653 146.414 65.7591C147.208 64.673 148.629 64.0645 149.931 64.078C151.232 64.0919 153.017 64.0443 153.361 65.5762Z" fill="black"/>
<path fill-rule="evenodd" clip-rule="evenodd" d="M148.945 68.49C150.695 69.7173 152.032 70.3219 152.18 67.5633C154.077 67.8223 153.227 70.8828 151.792 71.1137C150.23 71.3647 149.188 69.8013 148.945 68.49Z" fill="black"/>
</g>
<defs>
<clipPath id="clip0">
<rect width="338" height="254" fill="white"/>
</clipPath>
</defs>
</svg>
