<?xml version="1.0" encoding="UTF-8" standalone="no"?>
<svg width="193" xmlns="http://www.w3.org/2000/svg" fill="none" viewBox="0 0 193 148" height="148">
 <g fill-rule="evenodd" clip-rule="evenodd" clip-path="url(#clip0)">
  <path fill="#999" d="m60.168 67.298c0.694 7.077 1.409 14.154 2.103 21.231 3.824-2.188 7.649-4.353 11.474-6.541v20.362c0 0.38-0.224 1.65 0 1.99 0.179 0.26 1.588 0.29 1.924 0.33 2.169 0.31 4.339 0.58 6.509 0.8 5.726 0.63 11.832 1.55 17.58 0.81 4.992-0.63 9.822-2.41 14.382-4.47 1.61-0.71 3.18-1.49 4.72-2.319 0.34-0.179 1.52-0.58 1.7-0.938 0.16-0.29-0.2-1.317-0.25-1.629-0.2-1.295-0.38-2.59-0.58-3.885l-2.68-18.061 5.08 5.068c0.4 0.402 1.16 1.518 1.69 1.696 0.41 0.134 1.42-0.268 1.82-0.357 2.88-0.558 5.75-1.116 8.63-1.652 0.67-0.134 2.19-0.134 2.75-0.536 0.32-0.223 0.32-0.669 0.43-1.071 0.69-2.746 1.41-5.492 2.1-8.238 0.13-0.492 0.83-2.054 0.65-2.545-0.07-0.179-0.38-0.291-0.56-0.425-4.34-2.656-8.68-5.291-13.04-7.947-2.37-1.452-4.76-2.903-7.14-4.354-1-0.603-2.21-1.697-3.35-2.054-0.69-0.201-1.72-0.044-2.44-0.067l-4.43-0.134c-0.22 0-1.03-0.178-1.23-0.044-0.15 0.111-0.09 0.268-0.15 0.535-0.11 0.674-0.17 1.352-0.21 2.032-0.04 0.536 0.05 1.518-0.2 2.009-0.15 0.313 0.05 0.179-0.15 0.335-0.25 0.179-1.06 0.112-1.35 0.157-1.45 0.178-2.88 0.334-4.33 0.513-1.728 0.201-3.45 0.58-5.194 0.402-2.618-0.268-5.436-0.246-8.008-0.804-0.671-0.134-0.917-0.513-1.432-1.027-1.006-1.004-1.99-2.009-3.019-3.014-0.492-0.491-0.291-0.402-0.805-0.223-0.649 0.223-1.298 0.781-1.879 1.139-2.237 1.361-4.474 2.723-6.688 4.063l-13.622 8.283c-0.249 0.218-0.519 0.412-0.805 0.58z"/>
  <path fill="#C1C1C1" d="m190.48 68.163c-2.82 10.649-8.46 22.258-19.84 25.629-2.77 0.826-5.46 1.451-8.34 1.139-0.26-0.015-0.51-0.008-0.76 0.022-0.47 0-0.07 0.179-0.59 0.022-0.4-0.134-0.78-0.446-1.2-0.58-1.12-0.38-2.33-0.447-3.49-0.737-2.86-0.74-5.69-1.627-8.46-2.657-1.3-0.468-2.46-1.138-3.67-1.763-1.23-0.648-2.52-1.05-3.78-1.652-0.98-0.469-2.66-1.072-3.35-1.965-0.74-0.938 0.29-2.947 0.58-3.929 0.98-3.394 2.17-6.742 2.91-10.203 2.57 2.969 6.15 4.822 9.84 6.006 2.01 0.645 4.06 1.115 6.15 1.406 1.9 0.268 3.94 0.581 5.84 0.201 1.43-0.29 3.22-0.938 4.25-2.032 0.36-0.379 0.8-1.094 0.6-1.674-0.27-0.714-1-0.38-1.43-0.915-0.36-0.469-0.29-1.563-0.42-2.121-0.2-1-0.47-1.985-0.81-2.947-0.65-1.875-1.48-3.773-1.65-5.76-0.17-1.705 0.21-3.419 1.09-4.889 0.4-0.715 1.43-2.657 2.44-2.568 1.1 0.09-0.38 4.733-0.43 5.671-0.2 3.751 0.32 7.769 2.24 11.051 0.74 1.25 1.81 2.724 3.38 2.88 1.68 0.156 3.02-1.139 3.82-2.478 1.95-3.237 0.96-7.68-0.02-11.096-1.21-4.175-4.36-7.032-6.35-10.783 2.97 0.29 4.56 2.188 6.08 4.577 1.73 2.717 2.95 5.718 3.63 8.863 0.33 1.54 0.11 3.103 0.11 4.666 0 0.513 0 2.433 0.85 2.366 0.92-0.089 1.21-2.232 1.34-2.902 0.31-1.518 0.63-3.014 0.9-4.554 0.46-2.679 0.67-5.448 1.22-8.105 0.1-0.446 0.3-1.696 0.97-1.361 0.51 0.268 0.44 2.187 0.44 2.656 0.05 1.117 0.12 2.211 0.12 3.327 0.02 1.652-0.32 3.349-0.16 4.978 0.11 1.072 0.67 2.255 1.39 0.804 0.71-1.429 0.85-3.215 1.25-4.755 0.42-1.608 0.85-3.26 1.72-4.689 0.25-0.401 0.52-1.026 1.05-0.848 0.4 0.134 0.7 1.072 0.81 1.384 0.56 1.474 0.45 3.126 0.42 4.689 0.02 1.897-0.21 3.789-0.69 5.626zm-54.76 2.768c-0.31-0.059-0.62-0.097-0.94-0.112-0.17-0.022 0.03-0.357-0.42-0.268 0.04 0.103 0.1 0.196 0.18 0.27s0.18 0.127 0.29 0.155c-0.67 0.223-1.16-0.335-1.63-0.402-0.45-0.067-0.47 0-0.9 0.469-0.47-0.581-0.38-0.224-0.76-0.224-0.13 0-0.16 0.224-0.38 0.179-0.2-0.022-0.22-0.335-0.33-0.357-0.65-0.201-1.3 0.781-2.04-0.067-0.18 0.893-2.21-0.224-2.97-0.067-0.83 0.156-0.47 0.446-1.12-0.045-0.63-0.469-0.45-0.156-1.19 0.223 0.02 0-0.4 0.291-0.38 0.291-0.51-0.067-0.47-0.581-1.12-0.558-0.67 0.022-0.96 0.558-1.59-0.09-0.13 0.491-0.15 0.268-0.49 0.402-0.08 0.023-0.17 0.023-0.25-0.001-0.08-0.023-0.16-0.069-0.22-0.133-0.01 0.062-0.05 0.119-0.1 0.162-0.04 0.044-0.1 0.073-0.16 0.084-0.36 0.022-1.01 0.089-1.32-0.09-0.48-0.245-0.1-0.357-0.43-0.625-0.16 0.782-0.47 0.603-1.14 0.692-0.51 0.045-0.63-0.111-1.12-0.178s-1.12 0.111-1.59 0.201c-0.2 0.022-0.47 0.178-0.65 0.111-0.17-0.044-0.26-0.178-0.35-0.223-0.14-0.045-0.12-0.156-0.34-0.223-0.16-0.045-0.42 0.111-0.58 0.134-1.12 0.178-2.17 0.178-3.22-0.246 0.51 0.915-1.21 0.424-1.52 0.045-0.38 0.603-0.85 0.178-1.64 0.223-0.76 0.045-1.87 0.268-2.19-0.67-0.16 0.316-0.38 0.597-0.65 0.826-0.49 0.246-0.56-0.111-1-0.268-0.63-0.201-0.5 0.179-0.88 0.268-0.644 0.134-1.002-0.335-1.583-0.58-0.023 0.379-0.045 0.603-0.358 0.848-0.291-1.049-1.32 0.089-1.141-1.317-0.402 0.246-0.962 0.446-1.073 0.982 0.671-0.178 0.067 0.246 0.044 0.268-0.089 0.045-0.38-0.357-0.447-0.424-0.026 0.192-0.041 0.386-0.045 0.58-0.249-0.147-0.488-0.311-0.715-0.491-0.202-0.111 0.089-0.335-0.247-0.335-0.179 0-0.357 0.358-0.536 0.402-0.269 0.045-0.135-0.334-0.269-0.334-0.179 0.022-0.47 0.267-0.604 0.267-0.425-0.022-0.134-0.223-0.469-0.312-0.604-0.157-0.56 0.223-0.985 0.357-0.984 0.313-0.872-1.161-1.878-0.179-0.246 0.246-0.381 0.603-0.716 0.581-0.671-0.045-0.448-0.848-0.291-1.228 0.134 0.067-2.46 1.406-2.438 1.362 0.022-0.313 0.425-0.558 0.067-0.848-0.291 0.647-0.604 0.647-1.297 0.781-0.336 0.067-0.403 0.134-0.761 0-0.223-0.089-0.38-0.447-0.604-0.469-0.142 0.127-0.291 0.247-0.447 0.357-0.38 0.179-0.604-0.022-0.984 0.045-0.313 0.067-0.425 0.335-0.738 0.246-0.425-0.09-0.179-0.581-0.738-0.447-0.202 0.045-0.313 0.424-0.627 0.491-0.469 0.112-1.073-0.112-1.565 0.022-0.346 0.082-0.697 0.134-1.052 0.157-0.29 0.022-0.156-0.201-0.693 0.044l-0.224-0.558c-0.268 0.246-0.514 0.469-0.782 0.715-0.054-0.212-0.084-0.429-0.09-0.648-0.38 0.38-0.872 0.447-1.409 0.491-0.52 0.057-1.035 0.147-1.543 0.268-0.179 0.023-0.627 0.09-0.761 0.023 0.022 0-0.268-0.112-0.179-0.09-0.045-0.067-0.067-0.156-0.112-0.223-0.044-0.223-0.201-0.223-0.47-0.022-0.134-0.023-0.402-0.201-0.536-0.157-0.358 0.112-0.313 0.402-0.671 0.358-0.224-0.023-0.358-0.358-0.582-0.38-0.358-0.044-0.693 0.38-1.006 0.469 1.006-0.268-1.298-0.067-0.582-0.045-0.47-0.022-0.962-0.044-1.387 0.179-0.246-0.156 0.045-0.491-0.201-0.625-0.224-0.134-0.246 0.201-0.268 0.201 0.134-0.045 0.067 0.245-0.067 0.29-0.426 0.156-0.783-0.246-0.806-0.625-0.358 0.558-0.47 0.335-1.006 0.357-0.537 0.045-0.984 0.313-1.521 0.313-1.051 0-1.767-0.38-2.125-1.318 1.118 0.134 2.259-0.58 3.355-0.424 0.358 0.067 0.581 0.335 0.895 0.268 0.38-0.067 0.671-0.491 1.163-0.536 1.096-0.111 2.192 0 3.31-0.178 1.338-0.22 2.695-0.295 4.049-0.224 1.028 0.067 1.878-0.312 2.93-0.401 1.364-0.09 2.728-0.112 4.093-0.179 1.387-0.067 2.908-0.29 4.294-0.223 0.409 0.037 0.82 0.052 1.231 0.044 0.179 0 0.358-0.134 0.536-0.111 0.246 0.022 0.358 0.268 0.627 0.268 0.447-0.023 0.917-0.38 1.431-0.38 0.85-0.022 1.722-0.022 2.572-0.067 0.761-0.045 1.566-0.223 2.327-0.201 0.537 0 0.671 0.469 0.984 0.514 0.559 0.089 3.377-1.518 3.623-0.09 1.477-1.004 3.448-0.156 5.078-0.334 2.1-0.246 4.25-0.023 6.35-0.112 2.17-0.078 4.35-0.011 6.51 0.201 0.88 0.104 1.76 0.141 2.64 0.111 0.4-0.022 0.85-0.134 1.25-0.022 0.09 0.022 0.83 0.536 0.74 0.558 0.4-0.357 0.13-0.424 0.83-0.424 0.54-0.022 1.05 0.112 1.61 0.134 0.98 0.067 1.95-0.067 2.93-0.045 0.8 0.023 1.61 0.134 2.42 0.157 0.87 0 1.92 0.022 2.54 0.736l-0.2-0.669c0.99 0.067 1.95 0.424 2.96 0.267-0.25 0.246-0.52 0.447-0.61 0.782 0.54-0.067 0.9-0.447 1.46-0.447 0.47 0 0.58 0.224 1.07-0.067 0.07 0.38 0.11 0.76 0.18 1.117 0.69-0.157 0.24-0.67 0.29-1.139 0.56 0.179 1.03-0.022 0.83 0.782-0.27 0.535-1.06 0.826-1.64 0.647zm-0.98 6.943c-0.25 0.67-2.33 0.29-2.82 0.223-0.65-0.089-1.36-0.245-1.94-0.312-0.08-0.093-0.16-0.175-0.25-0.246-0.07 0.109-0.17 0.189-0.29 0.223-0.27 0.068-0.27 0.335-0.63 0.268-0.02 0.402 0.27 0.179 0.49 0.335-0.56 0.38-0.29-0.067-0.6-0.044-0.03-0.053-0.08-0.095-0.13-0.119-0.06-0.024-0.12-0.03-0.18-0.015-0.18 0.041-0.35 0.117-0.49 0.223-0.14 0.156-0.25 0.156-0.36 0.022-0.09-0.093-0.21-0.156-0.34-0.178-0.54 0.089-0.69 0.334-1.32 0.29-0.87-0.067-1.81 0.178-2.68 0.044-0.54-0.066-1.43-0.915-1.68-0.089-0.38-0.603-0.96-1.027-1.32-1.629 1.66-0.09 3.29-0.201 4.94-0.268 1.46-0.045 3.02 0.111 4.37 0.044 1.25-0.067 2.59-0.201 3.89-0.312 1.38-0.134 1.83 0.156 1.34 1.54zm-42.946 0.089c0.604 0.157 1.164-0.201 1.745-0.089 0.201 0.045 0.582 0.38 0.671 0.402 0.157 0.022 0.626-0.335 0.828-0.38 1.349-0.263 2.734-0.294 4.093-0.089 0.671 0.089 0.783-0.223 1.369-0.357 0.6-0.156 1.47-0.045 2.12-0.089 1.52-0.112 3.04-0.023 4.54-0.134 1.54-0.112 3.09-0.179 4.63-0.246 1.05-0.045 3.58-0.647 4.45 0.134 0.72 0.647-0.2 1.764-0.92 2.009-0.53 0.201-0.8-0.201-1.18-0.178-0.45 0.044-0.29 0.58-0.69 0.089-0.25 0.491-1.84 0.29-2.29 0.313-0.98 0.067-1.83 0.268-2.5-0.648 0.04 0.268 0.09 0.536 0.13 0.804-0.89-0.469-1.85-0.313-2.61-0.156-0.38 0.089-1.57 0.647-1.97 0.402-0.29-0.179 0.22-0.447-0.27-0.603-0.25-0.067-0.69 0.335-1.01 0.312-0.85-0.067-0.6-0.625-1.45 0.089-0.14-0.131-0.24-0.293-0.29-0.472-0.06-0.179-0.08-0.369-0.05-0.554-0.6 0.513-0.56 1.384-1.651 1.228-0.403-0.068-0.492-0.469-0.693-0.559-0.448-0.156-0.493 0.134-0.895 0.357-0.15 0.109-0.316 0.192-0.492 0.246-0.358 0.045-0.403-0.134-0.47-0.112-0.246 0.023-0.537 0.157-0.828 0.068-0.246-0.068-0.335-0.514-0.782-0.425-0.425 0.09-0.425 0.38-0.358 0.826-0.425-0.044-0.671-0.268-0.985-0.535-0.313 0.736-0.984 0.134-1.364 0.759-0.492-0.581-0.783-0.425-1.387-0.983 0.023 0.224 0.067 0.469 0.09 0.692-0.47-0.089-0.671-0.424-1.074 0.023-0.38-0.715-1.565 0.312-2.169-0.38-0.269 0.871-2.036 0.67-2.796 0.692-0.671 0.023-1.163-0.044-1.812 0.112-0.621 0.159-1.26 0.235-1.901 0.223-0.391-0.069-0.789-0.092-1.186-0.067-0.626 0.067-1.185 0.402-1.834 0.246-0.984-0.224-1.588-1.518-0.492-2.099 0.761-0.379 2.103-0.246 2.93-0.312 1.365-0.112 2.908-0.38 4.295-0.246 1.073 0.089 2.057-0.156 3.131-0.268 0.828-0.089 2.17-0.223 2.707 0.58 0.246-0.245 0.223-0.736 0.67-0.625zm-15.03 11.141c-0.157-0.737 6.128-1.139 6.755-1.184 1.297-0.111 2.617-0.178 3.936-0.2 1.074-0.023 2.08 0.178 3.154 0.022 1.007-0.156 2.214-0.469 3.087 0.246 0.134-0.983 3.914-0.492 4.63-0.492 3.134 0.023 6.124 0.023 9.144-0.178 1.73-0.112 3.56-0.268 5.31-0.179 0.78 0.045 1.4 0.246 2.19 0.067 0.51-0.112 1.05-0.357 1.54-0.022 0.56 0.402 0.81 1.786 0.43 2.344-0.3 0.424-0.54 0.38-0.99 0.29-0.69-0.111-1.21-0.268-1.92 0.022-0.15 0.015-0.29 0.045-0.43 0.09-0.8 0.067-1.9 0.625-2.59-0.022 0.27 0.044 0.69-0.447 0.33-0.492-0.26-0.022-0.42 0.246-0.62 0.335-0.7 0.313-1.08 0.223-1.48-0.446-0.85 0.736-0.94 0.535-1.32-0.38-0.29 0.223-0.36 0.737-0.58 0.915-0.02 0.023 0.11 0.335-0.07 0.335-0.15-0.022-0.2-0.267-0.31-0.267-0.07-0.023-0.11-0.224-0.18-0.246s-0.16 0.134-0.24 0.112c-0.23 0-0.9 0.491-0.65-0.201-0.36 0.446-0.52 0.156-0.63-0.246-0.4 0.313-0.81 0.625-1.23 0.915-0.18-0.535-0.51-0.379-0.92-0.201 0.14-0.357 0.05-0.714-0.27-0.446-0.18 0.156-0.29 0.603-0.49 0.804-0.74-0.759-1.01-0.536-2.03-0.447-0.406 0.045-0.876 0.112-1.234-0.134-0.313-0.201-0.492-0.96-1.006-0.357 0.112-0.134-0.067 0.915-0.09 1.072-0.226-0.159-0.422-0.355-0.581-0.581-0.313 0.603-1.096 0.067-1.745 0.179-1.029 0.201-2.08 0.513-2.997-0.246-0.067 0.246-0.805 0.558-0.805 0.558 0.044-0.446 0.313-0.29-0.246-0.357-0.112-0.022-0.224 0.179-0.314 0.201-0.357 0.033-0.716 0.033-1.073 0-1.409-0.045-2.684 0.268-4.071 0.379-0.47 0.045-1.029 0.112-1.454-0.066-0.447-0.179-0.447-0.38-0.895-0.268 0.135-0.045-0.29 0.424-0.268 0.402-0.067 0.044-0.313-0.179-0.403-0.157-0.019 0.1-0.049 0.197-0.089 0.291-0.112-0.023-0.224-0.023-0.336-0.045-0.29 0.045-0.581-0.268-0.85-0.268 0.045 0-0.76 0.313-0.738 0.335-0.581-0.29-0.402-0.201-1.14-0.022-0.694 0.156-1.365 0.133-2.058 0.223-2.125 0.29-0.917-0.737-1.163-1.987zm-1.79 10.202c-0.38-0.535 0.649-0.736 0.962-0.781 0.537-0.089 1.253 0.067 1.611 0 0.536-0.134 1.073-0.446 1.677-0.513 0.783-0.112 1.543-0.112 2.326-0.179 0.274-0.051 0.55-0.081 0.828-0.089 0.38 0.022 0.537 0.223 0.828 0.223 0.514 0 1.163-0.313 1.677-0.38 0.671-0.067 1.364-0.111 2.035-0.156 1.432-0.067 2.841-0.045 4.295-0.045 0.649 0 2.393-0.669 2.729 0.09 0.447-0.581 1.61-0.491 2.259-0.514 1.141-0.022 2.259-0.134 3.4-0.201 0.979-0.044 2.059 0.157 3.019 0.023 0.54-0.09 0.69-0.246 1.3-0.179 0.44 0.067 1.12-0.179 1.5-0.067-0.03 0 0.47 0.313 0.31 0.313 0.18 0 0.16 0.111 0.36 0.044 0.24-0.067 0.13-0.379 0.65-0.491 0.8-0.178 1.85 0.022 2.68-0.022 0.8-0.045 1.61-0.067 2.42-0.067 0.38 0 0.82-0.089 1.18-0.023 0.18 0.045 0.56 0.268 0.7 0.246 0.42-0.067 0.64-0.357 1.2-0.335 0.63 0.03 1.26 0.015 1.88-0.044 0.63-0.045 0.72-0.134 1.03 0.379 0.31 0.514 0.4 1.183-0.18 1.541 0.36-0.023 0.83 0.468 0.38 0.736-0.27 0.179-0.8-0.201-1.12-0.178-0.4 0.044-0.71 0.245-1.14 0.245-0.45 0.023-0.91 0.134-1.36 0.134-0.47 0-0.81-0.201-1.25-0.111-0.38 0.067-0.43 0.401-0.9 0.111-0.22-0.134-0.27-0.647-0.58-0.647-0.43 0-0.25 0.536-0.49 0.803-0.07-0.781-0.67 0.514-0.92-0.446-0.22 0.312-1.05 0.759-1.43 0.514-0.36-0.224-0.25-0.76-0.4-1.139-0.25 0.67-0.92 1.384-0.88 0.156-0.33 0.402-1.2 0.335-0.98 1.049-0.27 0-0.34-0.379-0.56-0.424-0.2-0.022-0.36 0.134-0.38 0.112 0.11 0-0.31 0.156-0.31 0.156 0.29-0.067-0.83-0.156-0.65-0.156-0.27 0-0.58 0.201-0.87 0.201-0.27 0-0.56-0.112-0.83-0.134-0.72-0.089-0.56 0.067-1.01 0.29-0.15 0.089-0.2 0.223-0.45 0.201-0.18-0.022-0.24-0.246-0.24-0.246-0.25-0.022-0.07-0.111-0.45-0.066-0.04 0.066-0.09 0.156-0.13 0.223-0.06 0.084-0.15 0.145-0.25 0.169-0.09 0.025-0.2 0.012-0.29-0.035-0.559 0.111-2.393 0.623-2.214-0.313-0.291 0.134-0.56 0.268-0.85 0.402-0.112-0.759-1.656 0.246-1.991 0.312-0.447 0.072-0.47-0.111-0.895-0.2-0.067-0.023-0.224 0.222-0.402 0.2-0.448-0.089-0.537-0.133-0.604-0.625-0.336 0.603-0.604 0.335-1.186 0.425-0.134 0.022-0.224 0.272-0.402 0.222-0.135-0.022-0.135-0.267-0.224-0.312-0.09-0.022-0.067-0.223-0.201-0.245-0.135-0.023-0.627 0.357-0.761 0.424-0.313 0.133-0.828 0.353-1.118 0.293-0.38-0.09-0.202-0.36-0.738-0.338-0.85 0.045-1.186 0.758-1.7-0.357-0.246 0.447-0.202 0.585-0.582 0.715-0.268 0.11-0.984 0-1.364-0.02-1.566-0.07-3.109 0.47-4.675 0.33-0.693-0.07-1.253-0.2-1.946-0.09-0.716 0.11-1.431 0.29-2.17 0.36-0.38 0.04-1.163 0.13-1.342-0.34-0.089-0.37 0.515-0.665 0.179-1.134zm3.065 17.254c-2.036 1.37-3.736 3.22-5.592 4.8-1.879 1.59-3.378 3.33-5.055 5.09-1.566 1.61-2.997 3.15-4.876 4.38-1.186 0.78-2.259 1.72-3.49 2.46-0.917 0.53-2.303 1.27-1.856-0.41 0.47-1.72 1.297-3.43 2.035-5.04 1.052-2.28 2.103-4.53 3.244-6.74 0.425-0.83 0.671-1.68 1.342-2.35 0.738-0.73 1.252-1.67 2.057-2.37 3.378-2.9 8.478-0.66 12.191 0.18zm6.397 0.99c-0.917 0.49-1.969 0.6-2.93 0.91-0.828 0.27-1.611 0.76-2.506 0.8 0.828-0.6 1.521-1.45 2.438-1.92 1.029-0.51 1.969-0.13 2.998 0.21zm40.624 4.04c-3.4-1.14-6.58-2.84-9.89-4.2-0.58-0.25-5.06-1.7-4.97-2.41 3.13-0.58 6.38-1.56 9.51-0.49 2.86 0.98 5.19 3.32 7.4 5.27 0.58 0.51 4.14 2.83 3.83 3.57-0.23 0.51-1.95 0.38-2.35 0.27-0.52-0.14-0.83-0.45-1.23-0.81-0.69-0.53-1.47-0.94-2.3-1.2zm-6.29-19.16c0.51-0.47 0.83-1.2 1.32-1.63 0.63-0.56 1.65-0.29 2.35 0 2.08 0.87 3.87 2.35 5.92 3.26 2.29 1.01 4.28 2.37 6.36 3.78 1.88 1.27 3.93 2.34 5.86 3.54 1.97 1.26 4.16 2.06 6.15 3.26 2.03 1.23 4.05 2.44 5.99 3.8 3.47 2.39 7.09 4.87 9.67 8.26 1.35 1.79 2.53 3.7 3.53 5.72 0.87 1.78 1.83 4.26 0.69 6.13-1.09 1.79-2.97 3.2-4.54 4.54-0.6 0.51-1.16 1.11-1.94 1.34-0.94 0.26-2.06 0.2-3.02 0.26-5.19 0.43-10.05 0.03-15.15-0.89-4.94-0.89-9.88-1.38-14.87-2.01-2.8-0.36-5.61-0.76-8.39-1.34-1.18-0.24-2.39-0.53-3.53-0.87-1.01-0.29-1.86-0.96-2.91-1.2-4.41-1.1-9.46-1.52-13.822-3.38 3.872-1.6 7.962-2.56 11.942-3.9 4.16-1.41 8.23-2.59 12.64-2.97 2.26-0.2 4.29-0.78 6.46-1.39 2.08-0.58 4.23-0.76 6.38-1 0.94-0.11 3.64 0.07 3.96-1.18 0.47-1.83-2.2-2.06-3.31-1.9-1.61 0.22-2.93 0.62-4.16-0.69-1.26-1.34-2.49-2.73-3.76-4.04-2.37-2.46-4.81-5.29-8.17-6.41-4.09-1.34-8.81-0.07-12.9 0.69-4.3 0.8-8.613 1.59-12.84 2.75-1.745 0.49-4.004 1.56-5.816 1.38-1.789-0.18-3.824-0.47-5.547-0.98-0.783-0.22-1.431-0.67-2.125-1.07-0.917-0.52-1.901-0.85-2.863-1.28-1.945-0.82-3.847-1.58-5.972-1.89-1.767-0.27-3.668-0.43-5.39 0.18-1.678 0.6-3.176 1.85-4.362 3.16-1.275 1.43-2.326 3.06-3.377 4.67-0.492 0.78-1.119 1.45-1.633 2.21-0.447 0.63-0.693 1.34-1.163 1.97-1.029 1.38-1.745 3.14-2.371 4.75-0.693 1.79-1.476 3.91-1.297 5.83 0.067 0.73 0.134 1.69 0.402 2.39 0.358 0.87 0.872 0.85 1.611 1.16 1.275 0.56 1.632 2.1 3.288 1.81 1.543-0.29 2.885-1.57 4.003-2.57 1.477-1.32 2.886-2.7 4.272-4.11 1.477-1.43 2.817-2.99 4.004-4.67 0.448-0.66 0.806-1.4 1.342-2 0.671-0.76 1.454-0.85 2.371-1.16 8.075-2.66 16.194-5.23 24.515-6.99 1.988-0.43 4.008-0.96 5.968-1.52 2.08-0.6 3.16 0.04 4.88 1.16 3.58 2.37 7.83 4.04 11.81 5.58 1.25 0.49 3.27 0.51 4.25 1.47-5.82 0.9-11.36 2.6-16.98 4.29-2.77 0.83-5.57 1.56-8.34 2.37-2.774 0.8-5.458 1.83-8.186 2.74-2.729 0.9-5.615 1.28-8.366 2.1-2.792 0.82-5.631 1.46-8.5 1.94-2.907 0.52-5.815 1.12-8.745 1.59-1.342 0.22-2.684 0.42-4.004 0.74-1.297 0.29-2.55 0.98-3.847 1.13-5.816 0.72-11.519 2.3-17.312 3.2-4.317 0.67-11.855 1.6-14.651-2.73-2.818-4.35 0.649-9.44 3.735-12.54 1.934-1.93 4.054-3.65 6.33-5.16 2.416-1.63 4.742-3.37 7.18-5 5.48-3.66 11.43-6.65 17.313-9.6 2.818-1.41 5.547-2.93 8.298-4.49 1.364-0.76 2.125 0.47 3.198 1.32 0.85 0.67 2.416 2.3 3.601 1.54 0.045 0.27 0.09 0.54 0.135 0.82 0.358-0.15 0.693-0.31 1.051-0.46 0.224 0.6 0.201 0.98 0.85 1.31 0.402 0.21 1.252 0.43 1.633 0.09 0.067 0.25 0.156 0.49 0.223 0.72 0.336-0.02 0.403-0.98 0.47-1.21 0.582 0.83 1.364 1.54 2.371 1.77 0-0.05-0.157-0.74-0.157-0.74 0.314-0.2 0.716 0.65 0.895 0.82 0.559 0.58 0.895 0.5 1.521 0.03 0.045 0.04 0.246 0.6 0.291 0.58 0.134-0.05 0.38-0.54 0.425-0.56-0.045 0.63 1.185 0.76 1.633 0.63-0.09-0.18-0.202-0.38-0.291-0.56 1.521-0.2 2.102 1.4 3.556 1.31 1.074-0.06 0.202-0.29 0.828-0.75 0.537-0.41 0.626 0.46 0.671 0.44 0.102-0.1 0.185-0.22 0.246-0.36 0.201 0.76 1.767 1.43 1.588 0.18 0.604 0.25 1.051 0.65 1.722 0.74 0.828 0.11 1.7-0.07 2.528-0.14 1.767-0.15 3.447-0.51 5.057-1.31 0.94-0.49 1.97-0.92 2.86-1.5 0.74-0.49 2.17-1.96 3.15-1.31-0.24-0.76 0.94-0.05 0.99-1.03 0.2 0.13 0.38 0.29 0.58 0.42 0.11-0.24 0.09-0.65 0.25-0.87 0.2-0.31 0.31-0.13 0.49-0.29 0.2-0.2 0.38-0.69 0.63-0.85 0.24-0.15 0.53 0.02 0.8-0.11 0.4-0.2 2.17-2.14 1.88-0.47 0.76-0.26 0.18-0.49 0.27-1 0.2-1.01 0.65-0.29 1.12-0.2 0.76 0.13 0.73-0.47 1.16-0.94 0.38-0.42 1.12-0.6 0.85-1.32 0.2 0.09 0.24 0.38 0.29 0.67zm-45.54-21.587c-0.604 0.67-1.052 0.38-1.7 0.291-0.067-0.246-0.202-0.268-0.358-0.09-0.196 0.108-0.407 0.183-0.626 0.224-0.537 0.134-1.096 0.067-1.633 0.268 0.022-0.179 0.201-0.492 0.089-0.67-0.559 0.379-0.894 0.625-1.588 0.647-0.559 0-1.521-0.424-1.99 0.089-0.023-0.2-0.023-0.401-0.045-0.58-0.221 0.11-0.419 0.262-0.582 0.446 0.008-0.273-0.079-0.541-0.246-0.759-0.358 0.759-0.76 0.782-1.476 0.492 0.089 0.044-0.716-0.447-0.693-0.313-0.246-1.072 3.802-0.982 4.227-1.027 1.074-0.111 2.125-0.179 3.199-0.268 1.006-0.089 1.766-0.245 2.46 0.603-0.336-1.25 2.617-1.183 0.962 0.647zm-46.547-18.865c0.112 1.831 0.515 3.796-0.201 5.56-0.582 1.428-1.722 3.036-2.952 3.951-2.528 1.898-4.675-0.424-5.033-2.991-0.358-2.657 0.358-5.917 2.661-7.569 1.365-0.982 2.707-0.915 4.295-0.58 0.38 0.067 0.984 0.044 1.185 0.424 0.023 0.089-0.022 1.205 0.045 1.205zm33.641 24.491c-0.448 0.224-0.895 0.358-1.275 0.648-0.134 0.111-0.179 0.335-0.313 0.424-0.269 0.156-0.627 0.045-0.895 0.179-0.447 0.223-0.761 0.535-1.297 0.736-0.76 0.32-1.5 0.685-2.215 1.094-1.258 0.641-2.55 1.215-3.869 1.719-0.649 0.268-2.461 0.782-2.394 1.742-0.156 0.044-0.29-0.291-0.604-0.246-0.424 0.045-0.984 0.514-1.409 0.648-0.805 0.223-1.453 0.245-1.453 1.272-0.269-0.179-0.336-0.603-0.672-0.67-0.38-0.067-0.559 0.358-0.872 0.491-0.358 0.157-0.827 0-1.185 0.179-0.164 0.166-0.344 0.316-0.537 0.447-0.194 0.026-0.391 0.019-0.582-0.023-0.76 0.157-1.476 0.447-2.259 0.603-0.76 0.156-1.275 0.201-0.962 1.094-0.805 0.156-1.006-0.692-1.901-0.38-1.084 0.366-2.189 0.664-3.31 0.894-0.582 0.111-1.208 0.379-1.812 0.446-0.425 0.045-0.828-0.112-1.252-0.067-0.515 0.067-0.918 0.29-1.432 0.29-0.502-0.019-1.003-0.071-1.499-0.156 0.067 0.196 0.157 0.383 0.269 0.558-0.336-0.067-0.492-0.469-0.783-0.536s-0.559 0.246-0.828 0.179c-0.111-0.022-0.044-0.357-0.223-0.424s-0.246 0-0.425-0.023c-0.067 0-0.783-0.044-0.895 0.023-0.201 0.111 0 0.312-0.045 0.335-0.671 0.491-0.693 0.223-0.984-0.291-0.447-0.759-0.984-0.29-1.789-0.424-0.895-0.156-1.611 0.246-2.483 0.179-0.962-0.067-2.058-0.782-2.908-1.183-1.812-0.894-3.579-1.742-5.099-3.104-2.9754-2.656-5.4134-5.916-6.845-9.644-1.5433-4.019-1.8341-8.194-1.6999-12.458 0.0514-2.558 0.2831-5.109 0.6934-7.635 0.2684-1.741 0.3355-4.822 2.3039-5.626 0.3355 4.063-0.7382 8.216-0.0448 12.279 0.2013 1.228 0.6934 2.835 1.6328 3.751 1.3868 1.339 1.7-0.603 1.8342-1.653 0.2236-1.986 0.671-3.951 0.9618-5.916 0.3131-1.964 0.5144-3.974 0.9394-5.916 0.1562-0.714 1.4092-5.916 2.3262-5.67-0.179 3.795-0.671 7.523-0.693 11.318 0 1.518-0.135 3.126 0.067 4.644 0.112 0.782 0.827 3.059 2.058 2.88 1.14-0.179-0.112-1.786-0.224-2.411-0.291-1.652 0.067-3.684 0.335-5.336 0.492-3.081 1.588-6.251 3.4-8.841 1.611-2.322 4.093-4.509 7.091-4.108 1.274 0.179 2.281 0.492 2.93 1.652 0.514 0.916 2.482 1.965 1.342 3.104-1.052 1.049-2.751 0.201-3.914-0.045-0.715-0.141-1.45-0.134-2.162 0.02-0.712 0.153-1.384 0.451-1.976 0.873-2.036 1.429-3.221 3.996-3.602 6.385-0.514 3.237 0.85 11.699 5.905 9.801 3.355-1.25 5.883-5.805 5.592-9.265-0.112-1.384-0.649-4.019 1.275-4.398 2.46-0.491 2.818 2.232 2.572 3.996-0.358 2.567-1.722 4.956-3.288 6.988-1.364 1.764-2.93 2.88-4.563 4.331-0.492 0.424-1.722 1.406-1.498 2.21 0.223 0.871 2.169 1.139 2.93 1.273 3.825 0.714 8.164 0.067 11.989-0.447 7.873-1.027 15.635-3.572 22.076-8.215 0.269 2.879 0.582 5.759 0.716 8.639 0.067 1.407 0.067 2.836 0.224 4.22 0.134 0.893 0.492 2.076-0.492 2.567zm-21.808 10.047c-0.314 0.156 0.022-0.804-0.068-0.491 0.47 0.156 0.493 0.335 0.068 0.491zm32.634-34.872c0.492-0.536 1.834-1.831 2.259-0.603 0.156-0.514 0.179-1.295 0.783-0.581 0.246-0.87 2.93-0.781 3.578-0.826 2.125-0.111 4.272-0.178 6.375-0.402 4.361-0.424 8.79-0.2 13.152-0.223 0.948-0.037 1.897-0.007 2.843 0.089 0.92 0.134 1.85 0.514 2.77 0.358 0.83-0.112 1.37-0.358 2.21-0.246 1.01 0.123 2.02 0.19 3.02 0.201 4.52-0.022 9.04 0.156 13.56 0.179 0.87 0 1.95-0.179 2.75 0.201 0.31 0.134 0.65 0.602 0.87 0.647 0.27 0.067 0.12-0.357 0.47-0.179 0.47 0.246 0.11 1.027-0.2 1.161 0.18-0.067-0.33-0.156-0.29-0.156-0.24 0.022-0.47 0.201-0.74 0.201-0.4-0.022-0.76-0.268-1.09-0.491 0 0.089 0.18 0.692-0.03 0.714-0.18 0.023-0.35-0.558-0.35-0.714-1.01 0.893-2.08 0.402-3.34 0.513-0.89 0.09-2.75 0.67-3.35-0.245-0.02 0.194-0.11 0.375-0.25 0.513-0.18 0.268-0.33 0.246-0.47-0.067-0.04 0-0.47 0.09-0.49 0.09-0.31-0.023-0.69-0.134-1.01-0.157-0.46-0.044-0.38 0.313-0.78 0.313-0.2 0-0.74-0.29-1.1-0.313-0.62-0.022-1.27 0.223-1.9 0.157-0.42-0.045-0.8-0.402-1.23-0.425-0.51-0.022-0.69 0.38-1.09-0.178-0.09-0.023-0.14 0.312-0.18 0.312 0 0-0.4 0.067-0.45 0.067-0.16 0.07-0.32 0.129-0.49 0.179-0.2 0-0.34-0.156-0.56-0.156-0.38 0-1.54 0.312-1.52-0.358-1.32 0.492-2.46 0.291-3.8 0.425-0.54 0.034-1.086-0.011-1.614-0.134-0.738-0.134-1.23 0.044-1.968 0.067-0.716 0.044-0.939-0.268-1.543-0.536-0.246-0.112-0.403-0.246-0.693-0.179-0.157 0.045-0.045 0.313-0.09 0.335-0.246 0.089-0.425 0-0.783 0.022-0.649 0.045-0.895 0.581-1.566 0.067 0.224-0.022 0.448-0.044 0.671-0.089-0.626-0.268-1.476-0.402-1.319 0.581-0.537-0.067-0.067-0.447-0.336-0.581-0.268-0.134-0.559 0.089-0.894 0.201-0.895 0.29-1.633 0.134-2.55 0.089-1.052-0.067-3.512 0.804-4.25-0.312-0.022 0.223-0.269 0.893-0.604 0.848-0.112 0 0.201-0.692 0.224-0.781-0.179 0.357-0.962 0.446-1.342 0.625 0.044-0.201 0.089-0.402 0.134-0.581-0.358 0.38-0.537 0.157-0.962 0.268-0.179 0.067-0.447 0.447-0.604 0.469-0.079-0.105-0.186-0.185-0.308-0.233-0.123-0.047-0.256-0.059-0.385-0.035-0.184-0.041-0.373-0.048-0.56-0.022-0.738 0.045-1.409 0.469-2.147 0.179-0.648-0.246-0.894-0.871-1.275 0.134-0.089-0.179-0.201-0.358-0.29-0.536-0.135 0.201-0.246 0.379-0.381 0.58-0.492-0.312-0.514-0.491-1.073-0.379-0.065 0.024-0.135 0.034-0.204 0.03s-0.137-0.022-0.199-0.053c-0.022 0.09-0.067 0.201-0.089 0.29-0.023 0.246-0.09 0.335-0.224 0.246-0.105-0.046-0.202-0.106-0.291-0.178-0.358 0.022-0.827 0.133-1.23 0.066-0.157-0.044-1.118-0.535-1.185-0.468zm11.273-6.586l0.134 0.201c-0.604 0.312-0.738 0.133-0.805-0.492 0.29 0 0.335 0.514 0.671 0.291zm0.357-0.358c0.291 0.134 0.627 0.38 0.895 0.045 0.179 0.514-1.185 1.25-0.895-0.045zm1.857 0.224c0.604 0.402-0.85 0.089-0.85 0.089 0.107-0.115 0.252-0.187 0.408-0.203s0.313 0.024 0.442 0.114zm5.212-2.278c0.201 1.05 0.782 1.005 1.699 0.536 1.342-0.714 1.566-1.875 1.678-3.259 0.09-1.317 0.246-1.831 1.633-1.563 0.962 0.201 1.767 0.022 2.729 0 1.029-0.022 1.386 0.134 1.476 1.183 0.089 1.05 0.268 1.853 1.056 2.679 0.78 0.826 1.83 1.318 2.84 1.764 0.51 0.246 1 0.491 1.58 0.536 0.23 0.022 1.39-0.134 1.41 0.245 0.03 0.268-1.59 1.05-1.76 1.161-0.74 0.42-1.52 0.764-2.33 1.027-1.879 0.558-3.87 0.603-5.838 0.558-3.154-0.044-7.493-1.384-9.372-4.174 1.051-0.224 2.125-0.447 3.199-0.693zm-0.291-9.019c-0.492-0.424-0.828-1.049-1.23-1.54-0.152-0.189-0.342-0.341-0.56-0.447-0.201-0.134-0.335 0.045-0.492-0.246-0.447-0.803 0.94-1.919-0.536-2.232-0.493-0.112-1.7 0.29-1.835-0.424-0.201-1.005 1.723-1.072 2.17-1.585 0.895-1.027 0.291-2.746 0.85-3.907 0.514-1.116 1.857-1.317 2.93-1.652 1.476-0.469 2.975-0.737 4.474-1.117 1.051-0.267 2.795-1.317 3.757-0.379-1.498 0.335-0.626 0.848 0.38 1.138 1.144 0.309 2.324 0.496 3.514 0.559 1.21 0.123 2.43 0.078 3.62-0.134 1.1-0.224 2.33-1.184 3.49-0.938-0.65 1.116-2.55 1.719-3.71 2.009-0.58 0.157-0.96 0.112-0.9 0.849 0.07 0.714 0.7 1.429 0.85 2.165 0.16 0.951 0.05 1.927-0.33 2.813-0.34 0.916-0.43 1.027-0.14 1.898 0.47 1.362-0.53 2.857-1.47 3.84-3.81 3.996-11.03 2.5-14.832-0.67zm10.782-13.752c-0.16 0.111-1.052 0.357-1.03 0 0.067-0.469 0.87-0.291 1.03 0zm2.06-9.533c-0.2-0.156-0.81-0.09-0.38-0.692 0.15 0.268 0.26 0.468 0.38 0.692zm-14.229-3.773c0.298-0.676 0.53-1.379 0.693-2.099 0.068-0.469-0.067-0.982 0.56-1.049-0.828-0.357-0.828-1.764-0.873-2.501-0.067-1.0042-0.38-2.3437 0.067-3.2814 0.448-0.96 1.074-0.9376 1.253 0.201 0.067 0.4465-0.201 0.6027-0.246 0.9153-0.112 0.6251 0.112 0.4911 0.492 0.0223 0.157 0.4688 0.224 1.2056 0.895 1.1609-0.045-0.1339-0.291-0.4241-0.224-0.5804 0.134-0.2456 0.783 0.1339 0.85 0.1786 0.582 0.4018 0.716 0.7817 0.291 1.2947 0.581 0.067 0.089 0.581 0.469 0.692 0.582 0.201 0.179-0.759 0.135-0.915 0.284 0.108 0.527 0.303 0.693 0.558 0.132 0.185 0.252 0.379 0.358 0.58 0.112 0.38 0.358 0.469 0.738 0.291 0.738 0.223 1.767 0.201 2.438 0.603 0.313 0.178 0.403 0.58 0.671 0.736 0.291 0.179 0.671 0.09 0.984 0.201-0.112 0.246-0.022 0.402 0.269 0.402 0.23 0.02 0.456 0.073 0.671 0.156 0.158-0.118 0.331-0.215 0.514-0.29 0.022 0.049 0.053 0.092 0.094 0.127 0.037 0.035 0.087 0.061 0.137 0.076s0.11 0.018 0.16 0.01 0.1-0.027 0.15-0.057c0.55 0.099 1.06 0.373 1.45 0.782 0.38 0.357 0.07 0.379 0.49 0.335 0.18-0.023 0.47-0.313 0.87-0.246 0.23 0.043 0.44 0.111 0.65 0.201 0.09 0.095 0.22 0.155 0.35 0.167s0.26-0.023 0.37-0.1c0.4 0.201 0.45 0.558 0.96 0.603 0.56 0.044 0.38-0.648 0.76 0.335 0.51-1.027 0.72 0.625 1.23 0.759 0.56 0.134 0.6-0.313 1.08 0.178 0.13 0.157 0.13 0.38 0.29 0.536 0.26 0.246 0.6 0.201 0.85 0.558-0.14-0.201 0.02 0.692 0.02 0.648 0.04 0.379-0.32 0.826 0.4 0.781 0 0.045-0.36 0.536-0.4 0.469-0.02-0.067-0.02-0.112-0.05-0.179-0.06 0.023-0.11 0.514-0.09 0.581 0.07 0 0.09-0.045 0.07-0.134-0.11 0.357 0.07 0.603-0.16 0.937-0.13 0.224-0.53 0.38-0.73 0.514-0.5 0.335-0.99 0.647-1.48 1.005-1.14 0.803-2.42 1.786-3.85 1.964 0.72-0.714 4.88-3.371 2.8-4.152-0.49-0.149-0.99-0.254-1.5-0.313-0.49-0.044-1.03 0.246-1.57 0.067-0.67-0.223-0.42-0.848-0.82-1.071-0.88-0.469-0.67 0.647-0.94 0.937-0.29-0.29-0.23-0.446-0.67-0.469-0.47-0.022-0.56 0.402-1.1 0.134-0.738-0.357-0.358-1.094-1.387-1.094 0.023-0.156 0.179-0.602-0.022-0.736-0.268 0.357-0.067 0.736-0.313 1.071-0.158 0.181-0.37 0.306-0.604 0.357-0.47 0.134-0.537 0.38-0.447-0.334-0.336 0.625-1.409 0.357-2.036 0.312-1.048-0.096-2.083-0.306-3.087-0.625-0.894-0.313-1.386-0.826-2.124-1.295-0.291-0.178-0.425-0.112-0.828-0.223-0.47 0-0.872-0.223-0.671-0.692zm2.147-10.962c0.157-0.0893 0.269 1.2949 0.067 1.5405-0.335-0.5358-0.939-1.3172-0.067-1.5405zm0.492-0.5581c0.492-0.4465 0.157 0.7144 0.068 0.893-0.18-0.1116-0.358-0.2456-0.56-0.3572 0.224-0.1116 0.291-0.3572 0.492-0.5358zm18.68-1.853c4.58 0.96 9.1 2.746 12.77 5.6929 3.33 2.6792 5.7 6.4972 7.02 10.537 1.37 4.198 0.92 8.864-2.35 12.101-1.72 1.697-3.98 2.723-6.15 3.706-1.03 0.469-2.1 0.87-3.15 1.339-0.74 0.335-1.66 0.871-2.51 0.782 0.43-0.447 1.08-0.469 1.59-0.737 0.63-0.335 1.17-0.982 1.7-1.451 0.54-0.469 1.75-1.92 2.6-1.563-0.12-0.781 0.76-1.139 1.16-1.63 0.42-0.536 0.45-1.161 1.23-1.339-0.83-0.648-0.58-1.876-0.4-2.746 0.21-1.1 0.35-2.21 0.42-3.327 0.16-2.076 0.29-4.71-0.85-6.541-0.38-0.603-0.85-1.139-1.18-1.742-0.41-0.736-0.32-1.384-0.32-2.21-0.73 0.492-0.89-0.513-1.18-1.004-0.23-0.358-0.54-0.581-0.61-1.027-0.04-0.335 0.32-0.402 0.12-0.737-0.25 0.179-0.34 0.469-0.47 0.737-0.23-0.09 0.04-0.402-0.09-0.514 0 0-0.45-0.201-0.43-0.156-0.29-0.357-0.38-0.938-0.51-1.362-0.52 0.268-0.43 0.223-0.99-0.2008-0.24-0.1481-0.45-0.3284-0.65-0.5358-0.22-0.5358 0.16-0.2233 0.07-0.5582-0.31-0.9599-2.06-0.7813-2.21-2.2102-0.85 0.5358-1.19-0.2232-1.68-0.7814-0.52-0.5581-1.39-0.7813-1.34-1.652l-0.81 0.2679c0.14-0.8261-1.07-0.7591-1.52-1.1833 0.24-0.0066 0.48 0.0084 0.72 0.0447zm0.69 50.701c0.42-0.38 0.29 0.134 0.56 0.067 0.22-0.045 0.27-0.224 0.49-0.29 0.92-0.224 2.31 0.066 3.27 0 1.12-0.045 3.04 0.178 3.58 1.495 0.31 0.782-0.18 0.514-0.72 0.469-0.4-0.007-0.81 0.008-1.21 0.045-0.2 0.022-0.4 0.022-0.6 0-0.09-0.064-0.16-0.16-0.18-0.268-0.58-0.089-1.19 0.245-1.83 0.268-0.85 0.022-1.62-0.134-2.26-0.715-0.27 0.38-0.43 0.581-0.9 0.625-0.02 0-0.47-0.178-0.54-0.201-0.08-0.022-0.33 0.179-0.51 0.112 0.34-0.536 0.38-1.183 0.85-1.607zm58.4 4.554c0.16-0.513 0.27-1.049 0.43-1.585 2.1 2.389 3.96 5.604 4.78 8.684 0.54 2.01 1.39 5.626-1.18 6.654-2.11 0.848-3.27-2.166-3.81-3.662-1.18-3.259-1.18-6.764-0.22-10.091zm-94.433-37.573c0.022 0-1.365 0.803-0.917 0.156 0.179-0.268 0.894-0.447 1.185-0.447l-0.268 0.291zm-1.32 0.357c-0.157 0.134-0.313 0.268-0.492 0.402l-0.47-0.737c0.291-0.156 1.611-0.246 0.962 0.335zm-0.984 25.138c-0.291-0.201-0.515-0.089-0.604 0.246 0-0.335 0.179-1.094 0.425-1.184 0.179-0.067-0.559-0.937-0.358-1.161 0.537 0.291 0.201 0.581 0.358 0.983 0.067 0.178 0.268 0.335 0.336 0.469 0.067 0.223 0.38 1.027-0.157 0.647zm-1.432-1.965c-0.29 0.067 0.224 0.559 0.224 0.782 0 0.156-0.201 0.29-0.291 0.513-0.179 0.491 0.134 0.826-0.38 1.184 0-1.072-0.716-3.907 0.671-4.421-0.671-0.536-0.112-1.138 0.403-0.513 0.514 0.625 0.201 2.255-0.627 2.455zm-0.715-4.219c-0.269-0.96-1.096-1.295-2.013-1.228 0.044-0.491 0.402-1.205 0.671-0.313 0.111-0.267 0.178-0.602 0.447-0.781 0.425 1.34 2.55 2.076 1.23 3.505-0.134-0.379-0.223-0.781-0.335-1.183zm-2.483-1.161c-4.921 0.357-11.81 1.384-15.747-2.389-2.572-2.455-2.415-6.273-0.358-8.997 1.186-1.563 2.796-2.657 4.407-3.684 0.569-0.377 1.186-0.677 1.834-0.893 0.109-0.012 0.219 0.011 0.313 0.067 0.018-0.077 0.053-0.15 0.104-0.212 0.05-0.062 0.114-0.112 0.187-0.145 0.268-0.134 0.648-0.201 0.805-0.491-0.15 0.556-0.254 1.124-0.313 1.697l-0.403-0.469c-0.112 1.049-1.208 0.402-1.856 0.536 0.425 0.58 0.738 0.804 0.76 1.585-0.313-0.581-0.984-0.983-1.61-1.161 0.335 0.982 0.581 1.585 0.246 2.679-0.403-0.223-0.425-0.781-0.94-0.915-0.134 0.647-0.156 1.362-0.313 1.987-1.275-0.581-1.141 0.982-0.626 1.741 0.268 0.402 0.403 0.893 0.649 1.272 0.604 0.96 0.134-0.468 0.805-0.401-0.157 1.027-0.201 1.116 0.537 1.853 0.738 0.736 1.096 1.741 1.878 2.411 0.224-0.29-0.134-0.581-0.156-0.871 0.716 0.112 1.074 0.848 1.767 0.201 0.313 0.581 0.626 1.25 1.364 1.362-0.469-0.915 0.917-0.29 1.275-0.156 0.269 0.089 0.761 0.178 0.873 0.223 0.604 0.223 0.179-0.179 0.537 0.536 0.536-0.157 0.738-0.603 1.364-0.224 0.514 0.291 0.514 0.826 0.626 1.34 0.112-0.335 0.246-0.692 0.38-1.027 0.135 0.067 0.716 0.692 0.649 0.692 1.409-0.067 1.365 0.781 0.962 1.853zm-6.889-17.213c0.268-0.201 0.604 0.067 0.917 0 0.425-0.089 0.671-0.446 1.141-0.491-0.135 0.424-0.381 0.38-0.582 0.714-0.067 0.112-0.045 0.38-0.09 0.447-0.536 0.536-0.715 0.089-1.252-0.313 0.045 0.492 0.134 0.648-0.313 0.782-0.425 0.111-1.119-0.313-1.342-0.67 0.156-0.357 1.185-0.246 1.521-0.469zm3.377-0.781c0.47 0.044-0.089 1.384-0.76 0.089 0.25-0.053 0.505-0.083 0.76-0.089zm2.349-0.246c0.716-0.156 3.131-0.826 3.4 0.29 0.044-0.022 0.223-0.669 0.313-0.58 0.335 0.313 0.38 0.714 0.335 1.161-0.402-0.848-0.268-0.112-0.537-0.156-0.067-0.023-0.179 0.111-0.357 0.067-0.246-0.067-0.403-0.581-0.56-0.737-0.246 0.357-0.559 0.804-1.051 0.781-0.358-0.022-0.917-0.937-0.47 0.067-0.268-0.089-0.581-0.29-0.872-0.245-0.335 0.044-0.514 0.379-0.827 0.424-0.694 0.112-0.806-0.558-1.253-0.916 0.626-0.066 1.275-0.044 1.879-0.156zm4.384-0.022c0.044-0.223 0.693-0.313 0.85-0.246 0.402 0.179 0.246 0.424 0.179 0.804-0.291-0.134-0.582-0.268-0.873-0.424 0.425 0.714-0.358 0.804-0.156-0.134zm122.55 41.034c-0.04-1.674-0.08-3.394-0.53-5.023-0.29-1.139-1.03-3.193-2.42-3.394-2.08-0.29-3.24 3.818-3.82 5.247-0.11-1.675-0.03-3.438-0.65-5.024-0.52-1.272-1.79-2.478-2.89-1.049-0.98 1.273-1.16 3.148-1.43 4.666-0.33 1.965-0.54 3.974-0.78 5.961-0.96-1.853-1.12-3.952-1.88-5.872-0.72-1.808-1.83-3.527-2.91-5.134-0.87-1.318-1.94-2.545-3.33-3.349-1.21-0.692-3.31-1.451-4.45-0.29-0.96 0.96-0.81 2.255-0.76 3.482 0.02 0.536 0.11 0.916-0.38 1.184-0.25 0.134-0.61 0.067-0.87 0.134-0.41 0.116-0.78 0.314-1.1 0.58-2.48 1.831-3.62 5.135-3.96 8.082-0.45 3.728 1.01 6.943 2.26 10.359 0.2 0.536 0.83 1.696 0.74 2.299-0.09 0.67-0.94 0.692-1.5 0.692-1.73 0.019-3.47-0.063-5.19-0.245-4.05-0.38-8.07-2.322-11.7-4.063-0.67-0.313-1.59-0.492-2.12-1.005-0.52-0.469-0.65-1.228-1.08-1.764-1.07-1.317-1.76-2.433-3.33-3.237-1.61-0.804-3.24-1.563-4.83-2.456-1.95-1.094-3.74-2.5-5.59-3.728-3.47-2.277-6.89-4.8-10.56-6.742-1.7-0.893-3.6-1.05-5.39-1.786-1.72-0.715-3.85-0.715-5.64-0.268-0.87 0.223-1.47 0.737-2.28 1.094-0.94 0.402-1.72-0.045-2.55-0.514-1.27-0.737-2.526-1.92-0.72-2.723 0.61-0.268 1.39-0.38 1.93-0.782 0.58-0.446 1.03-1.272 1.5-1.853 1.03-1.25 1.65-2.701 3.15-3.483 1.68-0.87 3.65-1.094 5.44-1.652 1.92-0.602 3.82-1.339 5.7-2.054 3.42-1.272 6.96-2.656 9.42-5.492 2.12-2.433 3.04-5.581 2.95-8.774-0.18-6.518-3.67-13.149-8.7-17.235-6.17-5.0005-14-6.6749-21.79-6.5856-3.643 0.044617-8.005 0.51345-11.069 2.7237-2.639 1.9199-3.064 5.2687-2.684 8.2829 0.156 1.228 0.693 2.835-0.157 3.929-0.492 0.603-1.364 0.759-2.013 1.139-0.827 0.468-1.543 0.937-2.483 1.183-3.958 1.071-8.096 0.692-12.145 0.625-6.733-0.089-13.622 1.719-18.632 6.452-4.049 3.818-5.256 11.029-0.335 14.735 3.981 3.014 10.244 2.679 14.963 2.143 1.454-0.156 2.461-0.402 2.461 1.384 0 1.942-0.314 3.974 0.179 5.894 0.783 3.014 3.69 3.081 6.24 2.434 1.346-0.361 2.662-0.824 3.937-1.385 1.879-0.781 3.601-1.942 5.48-2.746 1.252-0.535 2.214 1.183 3.332 0 0.202-0.223 0.246-0.558 0.56-0.669 0.492-0.179 1.297 0.446 1.744 0.647 0.649 0.29 1.298 0.513 1.544 1.228 0.246 0.67 0.134 1.719-0.09 2.366-0.492 1.429-1.834 1.139-3.064 1.05-2.147-0.157-4.272-0.514-6.397-0.67-1.924-0.134-3.713 0.446-5.368 1.384-3.467 1.987-6.33 5.135-9.327 7.725-1.544 1.339-3.042 2.768-4.742 3.951-0.738 0.514-1.521 0.96-2.17 1.608-0.626 0.625-0.693 1.183-0.917 2.009-0.38 1.473-2.304 2.21-3.489 2.969-1.69 1.058-3.5 1.912-5.391 2.545-3.989 1.398-8.09 2.459-12.257 3.17-2.058 0.358-4.093 0.603-6.174 0.804-1.789 0.179-3.69 0.714-5.48 0.268 0.515-0.826 1.432-1.34 2.148-1.987 0.91-0.845 1.713-1.797 2.393-2.835 1.342-1.987 2.304-4.108 2.505-6.519 0.201-2.166-0.022-4.755-1.342-6.586-0.447-0.625-1.342-0.804-1.745-1.384-0.402-0.559-0.246-1.541-0.469-2.211-0.56-1.674-2.237-3.75-3.691-4.732-1.588-1.05-3.914-1.452-5.748-0.894-3.4 1.027-5.503 4.644-7.046 7.591-0.85-1.786 0.581-4.443-1.096-5.894-1.409-1.228-2.505 1.161-2.9748 2.188-2.192 4.8-2.7065 9.89-3.6236 15.025-0.3802-0.38-0.1789-1.317-0.1565-1.764 0.0671-0.826 0.0671-1.63 0.0671-2.456 0-2.076 0.4026-4.174 0.2236-6.251-0.1118-1.205-0.492-3.728-2.2367-3.348-1.4762 0.335-2.4157 2.433-2.8854 3.706-0.67099 1.83-0.82756 3.661-0.78283 5.603 0.04474 2.144-0.35788 4.264-0.46971 6.408-0.20131 4.152-0.000002 8.282 1.1854 12.301 1.5604 5.063 4.6116 9.541 8.7564 12.85 4.145 3.308 9.192 5.297 14.483 5.707 2.058 0.13 4.026-0.12 6.062-0.32 2.013-0.2 4.026-0.31 6.017-0.56 4.451-0.53 8.79-1.938 12.838-3.835 2.125-1.005 4.138-2.211 6.219-3.282 0.849-0.424 1.409-0.96 2.125-1.563 0.715-0.58 0.916-0.625 1.722-0.625-0.246-0.625 0.447-0.826 0.76-1.228-0.026 0.193-0.041 0.386-0.044 0.581 0.246-0.514 0.447-0.514 0.648 0.022 0.202-0.581 0.358-1.183 0.582-1.742 0.917 0.469 0.85 1.586 2.08 0.76 1.006-0.67 1.946-1.452 2.997-2.099 2.371-1.496 4.407-3.416 6.777-4.889 0 1.428 0.112 2.88-0.089 4.308-0.179 1.362-0.693 2.612-1.096 3.93-0.738 2.388-0.805 4.956-1.611 7.322-0.335 0.983-1.23 1.81-1.476 2.77-0.268 0.98 0.336 1.76-0.671 2.39-0.715 0.44-1.588 0.64-2.371 0.91-1.208 0.43-2.326 1.01-3.489 1.5-5.458 2.34-10.803 4.71-15.859 7.86-4.808 2.99-9.684 6.07-14.091 9.6-3.825 3.08-7.694 7.05-8.634 12.05-0.894 4.87 1.499 10.09 6.353 11.68 2.527 0.82 5.368 0.74 7.985 0.76 2.818 0.04 5.815-0.65 8.589-1.14 2.93-0.51 5.815-1.34 8.746-1.79 2.818-0.44 5.412-1.43 8.164-2.05 2.952-0.65 5.972-1 8.946-1.59 1.342-0.26 2.64-0.64 3.982-0.89 1.476-0.27 2.952-0.36 4.406-0.71 2.818-0.69 5.525-1.79 8.343-2.44 1.275-0.29 2.528-0.67 3.803-0.93 1.163-0.25 2.08-0.92 3.265-0.36 0.94 0.44 1.7 1.18 2.595 1.7 1.166 0.66 2.396 1.27 3.596 1.85 2.44 1.16 4.97 1.99 7.52 2.86 2.68 0.91 5.3 1.96 8.1 2.59 2.84 0.62 5.75 0.8 8.61 1.29 5.83 0.99 11.73 1.49 17.65 1.5 3.02 0.02 6.01-0.34 9.03-0.29 2.67 0.04 4.97 0.62 7.41-0.78 3.89-2.26 8.38-5.65 8.3-10.59-0.1-4.46-2.78-8.73-5.31-12.25-3.06-4.29-7.42-7.3-11.69-10.25-4.57-3.15-9.67-5.31-14.48-8.06-2.43-1.41-4.69-2.93-7.36-3.91-1.27-0.47-2.5-1.02-3.75-1.54-1.01-0.4-2.46-0.646-3.33-1.315-0.54-0.425-0.59-1.072-0.74-1.719-0.34-1.39-0.78-2.754-1.3-4.086-0.91-2.61-1.56-5.302-1.95-8.037-0.38-2.612-1.23-5.336-0.78-7.993 2.86 2.769 5.82 5.448 8.77 8.127 1.1 1.005 2.19 2.054 3.29 3.058 0.82 0.759 1.87 1.876 3.02 2.099 1.47 0.29 0.94-1.34 1.94-1.607 0.63-0.157 2.49 1.428 2.98 1.741 3.11 1.965 6.55 3.215 9.97 4.554 3.58 1.407 7.27 2.657 11.14 3.014 3.59 0.304 7.2-0.06 10.65-1.071 6.84-1.943 11.9-6.519 15.59-12.458 4.23-6.72 7.29-14.645 7.04-22.727z"/>
  <path fill="#C1C1C1" d="m88.24 47.043l-0.023 0.023c0.023 0 0.023 0 0.023-0.023z"/>
  <path fill="#C1C1C1" d="m88.574 47.132c-0.028-0.213-0.08-0.423-0.156-0.625-0.224 0.357-0.425 0.514-0.134 0.893 0.091-0.095 0.188-0.184 0.29-0.268z"/>
  <path fill="#C1C1C1" d="m104.39 98.458c0.24-0.268-0.18-0.379-0.36-0.379 0.02 0.29-0.13 0.982 0.27 1.116-0.05-0.12-0.07-0.251-0.06-0.381 0.02-0.129 0.07-0.252 0.15-0.356z"/>
  <path fill="#C1C1C1" d="m97.678 42.042c-0.425 0.848 0.537 1.094 1.096 0.692 0.425-0.312 0.671-1.094 0.738-1.585 0.224-1.607-0.917-3.148-1.476-4.599-0.157-0.38-0.336-1.652-0.805-1.674-0.537-0.045-0.582 1.138-0.582 1.428 0.015 0.924 0.189 1.837 0.515 2.702 0.268 0.937 1.028 2.054 0.514 3.036z"/>
  <path fill="#C1C1C1" d="m99.758 38.671c1.682 1.496 3.022-0.983 2.912-2.456-0.03-0.357-0.27-1.697-0.97-1.206-0.35 0.246-0.04 1.05-0.22 1.385-0.8 1.696-1.565-0.938-2.124-1.139-0.649-0.246-0.716 0.603-0.716 1.072 0.006 0.448 0.108 0.889 0.302 1.294 0.193 0.405 0.471 0.763 0.816 1.05z"/>
  <path fill="#C1C1C1" d="m93.674 38.894c0.403-0.625 0.872-1.451 0.94-2.188 0.089-1.161-0.582-1.049-1.141-0.245-0.403 0.58-0.693 1.54-1.543 1.295-1.074-0.291-0.739-1.742-1.342-2.412-1.544 2.01 1.319 6.318 3.086 3.55z"/>
  <path fill="#C1C1C1" d="m95.933 45.101c0.627 0.134 2.259 0.089 1.7-0.871-0.715-1.206-3.086 0.58-1.7 0.871z"/>
  <path fill="#C1C1C1" d="m117.83 9.2237c0.11-0.3349-0.04-0.4018-0.31-0.6697-0.25 0.2232 0.06 0.4911 0.31 0.6697z"/>
  <path fill="#C1C1C1" d="m129.51 70.819c0.4 0.067 0.53-0.156 0.4-0.647-0.67-0.045-0.81 0.178-0.4 0.647z"/>
  <path fill="#C1C1C1" d="m106.98 18.266c0.45 0.2 0.29 0.625 0.27 1.004 0.23-0.245 0.72-0.714 0.52-1.094-0.29-0.558-1.08-0.044-0.79 0.09z"/>
  <path fill="#C1C1C1" d="m91.482 11.188l-0.201-0.402c-0.291 0.224-0.716 0.826-0.269 1.117 0.178-0.224 0.335-0.463 0.47-0.715z"/>
  <path fill="#C1C1C1" d="m96.94 15.162c0.559 0.447 0.291-0.915 0.268-1.027-0.067 0.157-0.559 0.804-0.268 1.027z"/>
  <path fill="#C1C1C1" d="m96.627 14.47l-0.134-0.335c-0.224 0.201-0.515 0.648-0.135 0.893 0.112-0.174 0.202-0.362 0.269-0.558z"/>
  <path fill="#C1C1C1" d="m100.23 19.136l0.13 0.134c0.18-0.379-0.02-0.647-0.378-0.67 0.028 0.2 0.108 0.387 0.248 0.536z"/>
  <path fill="#C1C1C1" d="m85.063 61.42c0.216-0.153 0.418-0.325 0.604-0.513-0.671-0.402-0.269 0.469-1.074-0.067-0.156 0.223 0.112 0.759 0.47 0.58z"/>
  <path fill="#C1C1C1" d="m112.98 98.302c0.24-0.38 0.29-0.38-0.05-0.67-0.29 0.469-0.27 0.357 0.05 0.67z"/>
  <path fill="#C1C1C1" d="m60.168 36.684c0.134 0.134 0.268 0.29 0.403 0.424 0.067-0.179 0.425-0.714 0.179-0.893-0.178 0.175-0.373 0.332-0.582 0.469z"/>
  <path fill="#C1C1C1" d="m65.066 38.113c-0.223-0.045-0.738-0.201-0.872 0 0.313 0.268 1.052 0.022 0.872 0z"/>
 </g>
 <defs>
  <clipPath id="clip0">
   <rect width="193" fill="#fff" height="148"/>
  </clipPath>
 </defs>
</svg>
