<svg width="120" height="120" viewBox="0 0 120 120" fill="none" xmlns="http://www.w3.org/2000/svg">
<rect width="120" height="120" rx="60" fill="#F03D5F"/>
<path d="M64.4583 24.9366C64.0966 25.8711 64.7173 26.8923 65.4132 27.6138C66.1095 28.3352 66.9525 29.0219 67.1712 30.0005C67.3548 30.8214 67.0507 31.6763 67.1245 32.5145C67.2003 33.3722 67.6621 34.1414 67.9244 34.9613C68.3996 36.4456 68.2087 38.067 67.7846 39.5663C67.4367 40.7962 66.9211 42.0054 66.0704 42.9594C65.2198 43.9134 63.9962 44.5879 62.7179 44.5642C62.3562 44.5575 61.9644 44.4795 61.7275 44.2057C61.5221 43.9691 61.4764 43.6377 61.4409 43.3266C60.7082 36.8946 60.7073 30.3798 61.4383 23.9478" fill="#17282F"/>
<path d="M63.7839 45.6887C66.5656 45.5671 69.1362 48.2308 68.9155 51.0064C71.7324 51.6921 73.7219 54.7929 73.1715 57.6392C72.9896 58.5788 72.5719 59.4733 72.5143 60.4286C72.4513 61.4705 72.821 62.4834 73.0219 63.5077C73.3855 65.3591 73.1894 67.3163 72.4664 69.0586C72.0269 70.1172 71.2092 71.2103 70.0636 71.2426C69.2859 71.2647 68.566 70.7613 68.1336 70.1143C67.7012 69.4673 67.5093 68.6924 67.3577 67.9294C66.8617 65.4307 66.7124 62.8623 66.027 60.4091C65.342 57.9558 64.01 55.5381 61.7908 54.288C60.5647 53.5975 59.0936 53.2713 58.1201 52.2556C57.1002 51.1913 56.8661 49.504 57.3989 48.1301C57.932 46.7559 59.1489 45.7072 60.5343 45.2035L63.7839 45.6887" fill="#17282F"/>
<path d="M44.5247 27.2277C44.4905 26.0387 45.59 25.1202 46.6969 24.6849C47.8031 24.2494 49.0334 24.0853 50.02 23.4214C50.8934 22.8333 51.4805 21.9164 52.2199 21.1667C54.0339 19.3282 56.8661 18.5654 59.3581 19.2453C61.8497 19.9252 63.9025 22.0203 64.5313 24.5254C64.9563 26.2184 64.6662 28.2201 63.3317 29.3449C61.7828 30.6506 59.4866 30.3609 57.5019 29.9544C55.5175 29.5483 53.2712 29.1479 51.6142 30.3132C50.6148 31.0162 50.0421 32.1595 49.4312 33.2174C48.8207 34.2753 48.0538 35.3556 46.8987 35.7535C45.7435 36.1513 44.1749 35.4644 44.1301 34.2437" fill="#17282F"/>
<path d="M49.2125 27.4718C48.1859 27.5828 47.4145 28.4606 47.4372 29.4933L48.624 56.3581C48.6736 59.5309 53.3118 61.3135 56.7085 61.2345C60.139 61.1549 60.2497 59.4724 60.2925 56.4537C60.3642 51.4107 60.3581 49.5177 60.36 49.5465C60.36 49.5465 64.6931 48.8174 65.579 43.1596C66.019 40.346 65.8678 35.7347 65.6218 31.9657C65.4005 28.5729 63.1433 24.4151 59.7633 24.78L49.2125 27.4718Z" fill="#F8A58D"/>
<path d="M64.6463 35.5166C64.6607 35.8994 64.3483 36.2275 63.9485 36.2499C63.5497 36.2723 63.2139 35.9806 63.1995 35.5975C63.1851 35.2147 63.4976 34.8862 63.8964 34.8638C64.2962 34.8415 64.6323 35.1338 64.6463 35.5166" fill="#17282F"/>
<path d="M64.6269 34.3668C64.537 34.4614 63.9866 34.0559 63.2063 34.0598C62.4266 34.0524 61.8545 34.455 61.7694 34.3597C61.7278 34.3175 61.8193 34.1467 62.0681 33.9645C62.3134 33.7831 62.7317 33.6066 63.2178 33.6072C63.7039 33.6088 64.1133 33.787 64.349 33.9696C64.5892 34.1531 64.671 34.3242 64.6269 34.3668Z" fill="#17282F"/>
<path d="M57.1469 35.5165C57.1613 35.8996 56.8488 36.2274 56.4491 36.2498C56.0503 36.2719 55.7145 35.9805 55.6998 35.5977C55.6854 35.2146 55.9981 34.8861 56.3973 34.8638C56.7967 34.8414 57.1325 35.1337 57.1469 35.5165Z" fill="#17282F"/>
<path d="M56.955 34.5293C56.8651 34.6243 56.3141 34.2187 55.5341 34.2226C54.7544 34.2149 54.1826 34.6179 54.0975 34.5226C54.0559 34.4803 54.1461 34.3096 54.3962 34.1273C54.6415 33.9456 55.0595 33.7691 55.5459 33.7701C56.032 33.7717 56.4414 33.9498 56.6771 34.1324C56.9169 34.316 56.9988 34.4867 56.955 34.5293" fill="#17282F"/>
<path d="M59.8004 40.3115C59.7965 40.267 60.2817 40.1823 61.0678 40.0799C61.267 40.0588 61.4554 40.0188 61.4886 39.8829C61.5353 39.7387 61.4515 39.5241 61.3546 39.2922C61.166 38.8103 60.9686 38.3056 60.7617 37.776C59.9382 35.617 59.3421 33.8414 59.4291 33.8091C59.5164 33.7768 60.2545 35.5006 61.0777 37.6596C61.2756 38.1918 61.4656 38.6993 61.6457 39.1851C61.7218 39.4112 61.8519 39.668 61.7509 39.967C61.6975 40.1161 61.5516 40.2242 61.4237 40.259C61.2961 40.2983 61.1839 40.3009 61.0854 40.307C60.2945 40.3511 59.8032 40.3559 59.8004 40.3115" fill="#17282F"/>
<path d="M60.3601 49.5465C60.3601 49.5465 56.5559 49.8001 52.7812 47.5429C52.7812 47.5429 54.6275 51.4237 60.2868 50.882L60.3601 49.5465" fill="#F68260"/>
<path d="M59.4744 42.1932C59.193 41.8225 58.7008 41.6201 58.2124 41.6738C57.8737 41.7109 57.5319 41.875 57.3269 42.1513C57.1219 42.4276 57.0793 42.8191 57.2671 43.0816C57.4781 43.3774 57.9185 43.4449 58.2908 43.3381C58.663 43.2316 58.9832 42.9857 59.2873 42.7407C59.3711 42.6729 59.4571 42.6019 59.5096 42.5092C59.562 42.4167 59.5729 42.2952 59.5076 42.2188" fill="#F68260"/>
<path d="M57.5044 40.8563C57.6314 40.8486 57.6349 41.6958 58.3615 42.2955C59.0865 42.8973 59.9897 42.8001 59.9964 42.9184C60.0085 42.9718 59.7959 43.0835 59.4146 43.0946C59.0408 43.1084 58.4946 42.9894 58.05 42.6226C57.6068 42.2548 57.4155 41.7633 57.3858 41.4157C57.3525 41.0616 57.4465 40.8515 57.5044 40.8563" fill="#17282F"/>
<path d="M57.3033 33.1621C57.2266 33.3742 56.4472 33.2757 55.5319 33.3879C54.6138 33.4819 53.876 33.7515 53.7541 33.5616C53.6997 33.4708 53.828 33.2709 54.126 33.0646C54.4215 32.859 54.8933 32.6629 55.443 32.6002C55.9924 32.5392 56.4961 32.6252 56.83 32.7601C57.1665 32.8951 57.336 33.0611 57.3033 33.1621Z" fill="#17282F"/>
<path d="M64.3349 32.1087C64.1981 32.2858 63.6598 32.1032 63.0135 32.0962C62.3672 32.0661 61.8196 32.2177 61.693 32.0326C61.6377 31.9427 61.7234 31.7649 61.9623 31.5967C62.1977 31.4291 62.5917 31.2912 63.0362 31.3037C63.4804 31.3168 63.8658 31.4767 64.0909 31.6578C64.3199 31.8394 64.3951 32.0217 64.3349 32.1087" fill="#17282F"/>
<path d="M45.2635 46.0792C46.8187 46.3926 48.5127 45.9145 49.6749 44.8342C50.8371 43.7542 51.4374 42.0995 51.2381 40.5254C51.0622 39.1362 50.3132 37.723 50.7949 36.4082C51.4316 34.6701 53.8682 34.1354 54.5146 32.401C54.8906 31.3927 54.5529 30.2136 54.9789 29.2254C55.3796 28.2963 56.3573 27.7613 57.3084 27.4172C58.2598 27.0734 59.28 26.8357 60.0789 26.215C60.8775 25.5943 61.3757 24.4225 60.8605 23.5516C56.6413 24.0573 52.4828 25.0679 48.5018 26.5546C47.5789 26.8994 46.6092 27.3135 46.0636 28.1338C45.4861 29.0021 45.5139 30.1237 45.5625 31.165C45.7995 36.2435 45.0265 41.0007 45.2635 46.0792" fill="#17282F"/>
<path d="M43.9152 44.4852C43.9142 44.4878 43.8832 44.4778 43.8227 44.4548C43.7604 44.436 43.6744 44.3941 43.5653 44.3295C43.3501 44.2009 43.0622 43.9351 42.8598 43.4954C42.6583 43.0614 42.5394 42.4538 42.6756 41.778C42.8112 41.1023 43.201 40.4096 43.7035 39.7239C44.1992 39.0328 44.8269 38.3334 45.2555 37.4402C45.4666 36.9972 45.6233 36.5028 45.63 35.9828C45.6405 35.4621 45.4742 34.9399 45.2971 34.4093C45.117 33.8813 44.9437 33.3066 44.9632 32.6996C44.9878 32.0981 45.1621 31.4921 45.4793 30.9541C45.7931 30.4165 46.2427 29.9381 46.8014 29.6109C47.3569 29.2671 48.0228 29.1472 48.6643 29.0794C49.3091 29.0068 49.9519 28.9697 50.5304 28.7535C51.1137 28.5473 51.5637 28.1018 51.8413 27.5728C52.1269 27.0454 52.2884 26.4659 52.4627 25.905C52.6319 25.3409 52.8353 24.7908 53.1004 24.2897C53.621 23.2832 54.3569 22.4405 55.2207 21.9064C56.0839 21.3717 57.0465 21.1533 57.9058 21.2102C58.768 21.2659 59.5183 21.6093 60.0181 22.0769C60.5228 22.5406 60.8212 23.0712 60.9635 23.5276C61.1109 23.9858 61.1186 24.3664 61.0949 24.6155C61.0729 24.8663 61.0284 24.9923 61.0284 24.9923C61.0175 24.9904 61.0502 24.8615 61.0613 24.6133C61.0741 24.3667 61.0556 23.9935 60.9021 23.548C60.7534 23.1041 60.4531 22.5912 59.9561 22.1463C59.4639 21.6986 58.7367 21.3753 57.8985 21.3279C57.0641 21.2799 56.1286 21.4993 55.2939 22.0235C54.458 22.5473 53.7432 23.3721 53.2366 24.3603C52.9782 24.8538 52.7818 25.3892 52.6146 25.9514C52.4422 26.5114 52.2813 27.0995 51.9846 27.6508C51.8359 27.9249 51.6494 28.1868 51.4131 28.4059C51.1783 28.6266 50.8921 28.7945 50.5886 28.9086C49.9771 29.1367 49.3222 29.1722 48.6829 29.2451C48.0436 29.3129 47.4129 29.428 46.8852 29.7539C46.3534 30.0644 45.9216 30.5218 45.6201 31.0363C45.315 31.5515 45.1474 32.1317 45.1221 32.7048C45.102 33.2811 45.2638 33.8305 45.4429 34.3617C45.6175 34.8919 45.7896 35.4337 45.7765 35.985C45.7665 36.5332 45.5993 37.0465 45.3799 37.5C44.9338 38.414 44.2954 39.1124 43.7984 39.7936C43.2941 40.4694 42.9068 41.1435 42.7667 41.7975C42.626 42.4483 42.7316 43.0432 42.919 43.4692C43.107 43.9006 43.3785 44.1664 43.5835 44.3013C43.7898 44.4401 43.9206 44.4727 43.9152 44.4852" fill="#33535F"/>
<path d="M60.3527 19.8252C60.3565 19.8156 60.4361 19.8341 60.5724 19.8914C60.7086 19.9477 60.8979 20.0513 61.1074 20.2147C61.5232 20.5339 62.0115 21.1553 62.1362 21.9749C62.2562 22.7959 61.9706 23.5327 61.6658 23.9593C61.5136 24.1771 61.3623 24.3313 61.2485 24.425C61.1352 24.519 61.0642 24.5602 61.0578 24.5523C61.0367 24.5292 61.2987 24.3306 61.5673 23.8951C61.835 23.4694 62.0841 22.768 61.9715 21.9999C61.8548 21.2323 61.4125 20.6343 61.0316 20.3052C60.6479 19.9669 60.3392 19.8533 60.3527 19.8252" fill="#33535F"/>
<path d="M72.8818 58.6383C72.8632 58.631 72.9813 58.434 73.0433 58.04C73.1098 57.6514 73.0785 57.0508 72.7667 56.4115C72.4638 55.77 71.8277 55.1569 70.9812 54.7482C70.559 54.5416 70.0902 54.3785 69.5916 54.2531C69.0924 54.1242 68.5644 54.0174 68.0348 53.847C67.5084 53.6784 66.9928 53.4463 66.6068 53.0666C66.2055 52.6979 66.0152 52.1792 65.9333 51.7084C65.846 51.2335 65.8169 50.7823 65.7114 50.3796C65.61 49.9776 65.4197 49.6345 65.1968 49.3613C64.7462 48.811 64.2022 48.5516 63.8287 48.4304C63.4465 48.3162 63.2201 48.3159 63.2213 48.2983C63.2217 48.2925 63.2776 48.2913 63.3845 48.2948C63.4913 48.2996 63.6483 48.3201 63.8466 48.3683C64.2345 48.4732 64.8057 48.7224 65.2873 49.2859C65.5256 49.5651 65.7328 49.9242 65.8451 50.3441C65.9602 50.7618 65.9947 51.2188 66.084 51.6793C66.1697 52.1379 66.3471 52.6084 66.7204 52.9496C67.0795 53.3007 67.5707 53.5236 68.086 53.6883C68.6034 53.8553 69.1288 53.9631 69.6325 54.0951C70.1382 54.2247 70.6175 54.3945 71.0496 54.611C71.9153 55.0373 72.5722 55.6862 72.8728 56.3607C73.1827 57.031 73.1952 57.6549 73.1073 58.0512C73.066 58.2517 73.0084 58.4001 72.963 58.497C72.9147 58.5926 72.8869 58.6409 72.8818 58.6383" fill="#33535F"/>
<path d="M48.2825 48.6232C45.4176 47.8566 42.9423 45.0503 41.9384 42.26C40.9343 39.4696 40.9336 36.4203 41.1911 33.4659C41.3778 31.3248 41.753 29.0605 43.1748 27.4487C45.3185 25.0191 47.6377 23.7786 50.8764 23.8793" fill="#17282F"/>
<path d="M65.0081 54.8598L62.3377 54.1888C62.9652 53.6915 63.1401 53.0532 62.8676 52.3262C62.5488 51.4762 61.7291 50.9153 60.8273 50.8132L48.6474 49.4384C48.2115 49.3891 47.7868 49.6309 47.6259 50.0393C47.0851 51.4113 47.0666 52.5415 47.5706 53.4296L47.5127 53.4289L45.1669 53.8955L41.1991 88.9916L67.2564 87.7738L65.0081 54.8598" fill="#F3F2F1"/>
<path d="M61.1761 54.3229C61.1777 54.3344 61.0035 54.3673 60.6872 54.4169C60.3709 54.4684 59.9107 54.5256 59.3401 54.5803C58.2 54.6913 56.6138 54.7626 54.8654 54.6769C53.1163 54.5886 51.5451 54.3606 50.4213 54.1367C49.8591 54.0258 49.4069 53.9234 49.0973 53.8406C48.7874 53.76 48.6173 53.7101 48.6202 53.6989C48.6227 53.6877 48.7977 53.7162 49.1114 53.7773C49.4248 53.8406 49.8796 53.925 50.4424 54.0213C51.5678 54.2141 53.1333 54.4227 54.8737 54.5106C56.6131 54.5957 58.1917 54.5435 59.3305 54.463C59.9001 54.4233 60.3613 54.3843 60.6792 54.3526C60.9974 54.3226 61.1745 54.3117 61.1761 54.3229" fill="#17282F"/>
<path d="M49.3976 59.8993C49.3592 59.874 49.7676 59.1951 50.3097 58.3834C50.8518 57.5717 51.3222 56.9343 51.3606 56.9596C51.3986 56.9855 50.9903 57.6641 50.4482 58.4758C49.9061 59.2875 49.4357 59.9249 49.3976 59.8993" fill="#DADBD8"/>
<path d="M57.7971 60.4946C57.7612 60.5234 57.2431 59.9384 56.64 59.1882C56.0365 58.4376 55.5766 57.806 55.6124 57.7772C55.6483 57.7484 56.1664 58.333 56.7698 59.0839C57.3727 59.8342 57.8329 60.4658 57.7971 60.4946" fill="#DADBD8"/>
<path d="M53.8955 64.9545C53.8504 64.9625 53.6738 64.1809 53.5021 63.209C53.33 62.2365 53.2271 61.4421 53.2725 61.4341C53.3179 61.4261 53.4938 62.2077 53.6662 63.1799C53.8379 64.1518 53.9409 64.9465 53.8955 64.9545Z" fill="#DADBD8"/>
<path d="M60.3072 65.2315C60.3395 65.2644 59.6769 65.9689 58.8281 66.8052C57.9787 67.6419 57.2639 68.293 57.2316 68.2607C57.1996 68.2277 57.8616 67.5232 58.711 66.6866C59.5601 65.8503 60.2749 65.1988 60.3072 65.2315Z" fill="#DADBD8"/>
<path d="M51.7082 71.2113C51.6874 71.2471 50.8943 70.7645 50.1165 69.9356C49.3339 69.1108 48.8987 68.2908 48.9354 68.2722C48.9783 68.2447 49.4692 69.0123 50.2374 69.8214C51.0004 70.6353 51.7379 71.1703 51.7082 71.2113Z" fill="#DADBD8"/>
<path d="M54.4704 75.8287C54.4848 75.8766 53.7403 76.1123 52.8969 76.5604C52.0501 77.0036 51.4354 77.4846 51.4041 77.4459C51.375 77.4155 51.9538 76.8664 52.8192 76.413C53.6818 75.955 54.4618 75.7877 54.4704 75.8287" fill="#DADBD8"/>
<path d="M58.965 76.128C58.9474 76.1424 58.751 75.9351 58.4558 75.5811C58.1603 75.2274 57.7679 74.7253 57.3592 74.1531C56.9505 73.5804 56.6029 73.0466 56.364 72.652C56.1251 72.258 55.9927 72.005 56.0115 71.9932C56.0317 71.9807 56.1989 72.211 56.4628 72.5877C56.7634 73.0156 57.1107 73.51 57.4948 74.0562C57.8866 74.5961 58.2416 75.0857 58.5486 75.5085C58.8195 75.8801 58.9832 76.1136 58.965 76.128Z" fill="#DADBD8"/>
<path d="M59.4137 80.0669C59.4233 80.1107 58.5668 80.3384 57.4897 80.5152C56.412 80.694 55.528 80.7535 55.5232 80.709C55.5181 80.662 56.3899 80.5287 57.4625 80.3512C58.5348 80.1746 59.4034 80.0208 59.4137 80.0669" fill="#DADBD8"/>
<path d="M52.1394 53.8275C52.117 53.8092 52.2712 53.634 52.402 53.2956C52.5356 52.9611 52.6194 52.4545 52.5404 51.9067C52.4611 51.3579 52.2689 50.8827 52.1279 50.5427C51.9843 50.2024 51.8906 49.9914 51.9123 49.9802C51.9315 49.9703 52.0617 50.1612 52.2347 50.4932C52.4045 50.8242 52.6217 51.3061 52.7055 51.8834C52.7889 52.4619 52.6802 53.0011 52.5101 53.3423C52.3418 53.6887 52.1503 53.8406 52.1394 53.8275" fill="#DADBD8"/>
<path d="M57.0062 51.1996C57.042 51.1759 57.3407 51.6163 57.4863 52.2473C57.6359 52.8773 57.5637 53.4047 57.5211 53.3993C57.4719 53.3977 57.468 52.8882 57.3241 52.2854C57.1853 51.6812 56.9627 51.223 57.0062 51.1996" fill="#DADBD8"/>
<path d="M78.9597 76.2041L91.0833 54.9142L92.5439 51.2214C92.5439 51.2214 96.3218 43.0967 96.5856 42.2696C96.8901 41.3144 97.4238 41.2315 97.7682 41.3678C98.3052 41.5801 98.4776 42.3803 98.2412 43.208C98.1597 43.4945 96.6905 47.9571 96.6905 47.9571C96.6905 47.9571 97.0138 47.652 97.9441 47.0268C98.8741 46.4015 100.581 46.4207 102.159 46.9826C103.737 47.5449 104.13 47.8417 103.94 48.4646C103.864 48.715 103.659 48.8705 103.434 48.9667C103.066 49.1238 102.646 49.1215 102.266 48.9923C99.7267 48.1269 98.6017 49.2715 98.6017 49.2715L98.4107 49.7547C98.4107 49.7547 100.319 49.1436 101.405 50.0077C101.582 50.1487 101.708 50.3064 101.801 50.4702C102.477 50.6943 103.025 51.2786 103.192 51.9723C103.365 52.6941 103.122 53.5013 102.577 54.0063C102.317 54.2474 101.924 54.423 101.614 54.25C101.451 54.1588 101.349 53.99 101.25 53.831C101.198 53.7472 101.142 53.6628 101.077 53.5899L100.352 54.8681C100.352 54.8681 98.5703 57.6534 97.932 58.9527L89.5888 81.1864C88.4324 84.269 84.9724 85.8038 81.9109 84.5927C78.5807 83.2757 77.1877 79.3159 78.9597 76.2041" fill="#F8A58D"/>
<path d="M91.9168 54.8419C92.3447 55.1208 92.9357 54.9314 93.3217 54.5972C93.7077 54.2634 93.969 53.8083 94.3301 53.4478C95.4098 52.3685 97.217 52.2674 98.2436 51.1376C98.3868 50.9802 98.5138 50.741 98.3904 50.5677C98.2759 50.4071 98.0354 50.4282 97.8419 50.4666C96.1888 50.7938 94.5354 51.1212 92.8823 51.4487" fill="#F8A58D"/>
<path d="M92.8823 51.4486C92.8781 51.4291 93.0655 51.3725 93.4077 51.2874C93.7496 51.202 94.2462 51.0879 94.8612 50.9526C95.5021 50.8167 96.23 50.6619 97.0244 50.4927C97.2291 50.4508 97.4379 50.4076 97.6506 50.3638C97.8521 50.3382 98.1041 50.2151 98.4082 50.3891C98.5557 50.4834 98.6116 50.6929 98.5697 50.8394C98.5352 50.9884 98.4604 51.1023 98.3756 51.2046C98.2048 51.3895 98.0238 51.5564 97.8169 51.6981C96.9908 52.2689 96.0858 52.504 95.3643 52.8826C95.001 53.0665 94.6777 53.2773 94.4225 53.5248C94.1673 53.772 93.9667 54.0535 93.7547 54.2936C93.3501 54.7986 92.8116 55.0474 92.4406 55.0311C92.0597 55.0238 91.9046 54.845 91.9168 54.8418C91.9283 54.8149 92.0975 54.9473 92.4355 54.9192C92.7739 54.8945 93.2283 54.6608 93.5986 54.1625C93.7937 53.923 93.9846 53.632 94.2542 53.355C94.5235 53.0784 94.8664 52.8449 95.2415 52.6469C95.9876 52.2427 96.8885 51.9939 97.6503 51.4627C97.8402 51.3335 98.0091 51.1761 98.1569 51.0188C98.2957 50.8615 98.3446 50.6718 98.2445 50.6194C98.1441 50.5452 97.916 50.5899 97.704 50.6341C97.4907 50.6747 97.2812 50.7147 97.0762 50.7537C96.277 50.9001 95.5453 51.0345 94.9009 51.1528C94.2808 51.2622 93.778 51.346 93.4291 51.3975C93.0805 51.4489 92.8861 51.4681 92.8823 51.4486" fill="#F68260"/>
<path d="M98.3429 49.7589C98.3758 49.7781 98.4424 49.3633 98.9122 48.992C99.1431 48.8113 99.4801 48.684 99.871 48.677C100.262 48.6645 100.691 48.7579 101.135 48.89C101.58 49.0201 102.016 49.1525 102.433 49.1842C102.848 49.2146 103.232 49.1624 103.523 49.016C103.821 48.8721 103.961 48.6085 103.987 48.4355C104.016 48.2587 103.988 48.1624 103.981 48.163C103.963 48.1624 103.964 48.2599 103.917 48.4179C103.87 48.5733 103.736 48.7835 103.466 48.8973C103.202 49.0137 102.838 49.0515 102.449 49.0134C102.057 48.975 101.637 48.8429 101.187 48.7112C100.738 48.5778 100.284 48.4825 99.8639 48.5055C99.4434 48.5219 99.0692 48.6782 98.8297 48.8896C98.5856 49.0978 98.4596 49.331 98.3979 49.4934C98.3368 49.6585 98.3327 49.757 98.3429 49.7589" fill="#F68260"/>
<path d="M98.3273 42.8874C98.3017 42.8814 98.1968 43.222 98.0295 43.773C97.8405 44.3851 97.6154 45.1146 97.3669 45.9208C97.1059 46.7239 96.8699 47.4501 96.672 48.0591C96.4916 48.6056 96.3809 48.9446 96.4059 48.9545C96.4289 48.9638 96.5827 48.6408 96.7954 48.1042C97.009 47.5675 97.278 46.8166 97.5444 45.9771C97.8098 45.1376 98.0222 44.3688 98.1565 43.8075C98.2918 43.2459 98.3516 42.8932 98.3273 42.8874" fill="#F68260"/>
<path d="M99.0295 51.0902C99.0321 51.1043 99.137 51.0896 99.3215 51.073C99.4981 51.0605 99.7955 51.0445 100.019 51.2601C100.128 51.3637 100.171 51.5261 100.132 51.7059C100.099 51.885 100.001 52.0663 99.9049 52.2706C99.8102 52.4699 99.7095 52.7289 99.7865 53.0049C99.8655 53.2716 100.087 53.4843 100.355 53.5767C100.629 53.6727 100.923 53.6193 101.151 53.4981C101.382 53.374 101.567 53.1987 101.681 52.9819C101.885 52.5645 101.973 52.1689 102.03 51.8315C102.081 51.4938 102.079 51.2121 102.039 51.0228C101.998 50.8321 101.934 50.742 101.927 50.7468C101.911 50.7535 101.951 50.8501 101.967 51.0327C101.983 51.2156 101.966 51.4839 101.901 51.8085C101.831 52.129 101.726 52.5214 101.53 52.9003C101.339 53.2464 100.858 53.5505 100.415 53.4012C100.199 53.3273 100.022 53.153 99.9615 52.9538C99.9017 52.7532 99.9717 52.538 100.061 52.3416C100.149 52.143 100.252 51.9451 100.284 51.7314C100.326 51.5229 100.259 51.2869 100.111 51.1651C99.8153 50.9147 99.4875 50.9697 99.3116 51.001C99.1245 51.0407 99.0273 51.0794 99.0295 51.0902" fill="#F68260"/>
<path d="M101.122 53.3388C101.114 53.3346 101.059 53.4219 101.066 53.5994C101.073 53.7702 101.162 54.0424 101.438 54.225C101.707 54.4031 102.138 54.4364 102.514 54.2362C102.891 54.0392 103.183 53.6499 103.328 53.199C103.474 52.7455 103.458 52.2722 103.328 51.8827C103.201 51.489 102.964 51.189 102.735 50.9866C102.504 50.7829 102.278 50.6725 102.118 50.615C101.958 50.5584 101.864 50.5494 101.861 50.5597C101.846 50.5929 102.226 50.6761 102.646 51.0832C102.85 51.285 103.057 51.5715 103.165 51.9342C103.276 52.294 103.284 52.7276 103.151 53.1418C103.019 53.5543 102.755 53.9077 102.433 54.0852C102.113 54.2659 101.742 54.2502 101.506 54.1124C101.266 53.9736 101.164 53.7427 101.138 53.5911C101.11 53.4344 101.137 53.3426 101.122 53.3388" fill="#F68260"/>
<path d="M97.0838 55.3421C97.0902 55.3264 96.9399 55.2423 96.6546 55.2109C96.3748 55.1799 95.9485 55.2205 95.543 55.4764L95.6792 55.5682C95.7201 55.3744 95.7528 55.162 95.7713 54.9404C95.881 53.7056 95.4876 52.7532 95.4477 52.7785C95.392 52.7906 95.6933 53.7366 95.5861 54.9247C95.5679 55.139 95.5391 55.3449 95.5046 55.5336L95.4665 55.7418L95.6408 55.6254C95.9984 55.3862 96.3847 55.3235 96.6492 55.3229C96.9178 55.3216 97.0771 55.3657 97.0838 55.3421" fill="#F68260"/>
<path d="M99.6068 47.7562C99.5582 47.7636 99.628 48.1397 99.967 48.4336C100.304 48.731 100.686 48.7505 100.687 48.7009C100.698 48.6478 100.381 48.5538 100.09 48.2935C99.793 48.0396 99.658 47.7383 99.6068 47.7562" fill="#F68260"/>
<path d="M61.7599 93.8703L74.438 93.9948L72.3052 84.7938L73.0177 86.5298C74.3638 89.8088 77.5574 91.9499 81.1018 91.9499H81.1022C85.1113 91.9499 87.8824 88.9667 89.579 85.334C93.5452 76.8402 97.3676 63.162 97.3676 63.162L89.6349 56.3696C84.0406 66.9534 78.7816 76.1459 78.7816 76.1459C78.7816 76.1459 77.2632 71.5304 76.0904 67.4132C74.918 63.2973 74.9251 61.1309 73.123 59.0771C70.3525 55.9193 66.4028 55.1336 62.7356 54.1889L62.5987 71.2788L61.7599 93.8703Z" fill="#F03D5F"/>
<path d="M47.2581 81.1403L70.347 85.6381L71.4727 94.5083L36.0696 94.5077C31.9636 94.5624 28.6993 91.078 29.022 86.9845C29.5318 80.5196 30.0851 72.5538 30.5056 69.1875C30.8331 66.5622 31.8805 63.8477 33.121 61.5108C34.9075 58.1458 40.8642 53.8239 46.087 53.6109L47.0761 75.6051L47.2581 81.1403" fill="#F03D5F"/>
<path d="M74.438 93.9948L71.4037 93.965L70.347 85.6381L69.023 85.3801C68.7537 85.1715 68.4339 85.0251 68.0844 84.9611L62.1311 83.869L62.5987 71.2788L62.7356 54.1889C66.4028 55.1336 70.3525 55.9193 73.123 59.0771C74.9251 61.1309 74.918 63.2973 76.0904 67.4132C77.2632 71.5304 78.7816 76.1459 78.7816 76.1459C78.7816 76.1459 84.0406 66.9534 89.635 56.3696L97.3676 63.162C97.3676 63.162 93.5452 76.8402 89.579 85.334C87.8824 88.9667 85.1113 91.9499 81.1022 91.9499H81.1018C77.5574 91.9499 74.3638 89.8088 73.0177 86.5298L72.3052 84.7938L74.438 93.9948" fill="#9C2438"/>
<path d="M71.4036 93.965L71.3582 93.9642L69.8196 86.6519C69.7112 86.136 69.4227 85.6896 69.0229 85.38L70.347 85.6381L71.4036 93.965" fill="#9C2438"/>
<path d="M62.125 84.0365L47.2581 81.1403L62.1311 83.8689L62.125 84.0365Z" fill="#858889"/>
<path d="M35.9744 94.5083C32.0993 94.5087 28.9984 91.3569 29.0003 87.5397C29.0003 87.3561 29.0077 87.1709 29.0221 86.9845C29.5318 80.5196 30.0851 72.5538 30.5057 69.1875C30.8331 66.5622 31.8805 63.8477 33.121 61.5108C34.9075 58.1458 40.8642 53.8239 46.087 53.6109L47.0762 75.6051L47.2582 81.1403L62.1251 84.0365L69.023 85.38C69.4228 85.6896 69.7112 86.1361 69.8196 86.6519L71.3582 93.9642L71.4727 94.5083L36.0697 94.5077C36.0431 94.5079 36.0159 94.5083 35.9897 94.5083C35.9846 94.5083 35.9795 94.5083 35.9744 94.5083" fill="#9C2438"/>
<path d="M69.0229 85.38L62.125 84.0365L62.1311 83.8689L68.0843 84.9611C68.4339 85.025 68.7537 85.1715 69.0229 85.38Z" fill="#9C2438"/>
<path d="M42.8621 80.4983C42.8563 80.4983 42.8528 80.4254 42.8515 80.2869C42.8521 80.1312 42.8528 79.9306 42.8537 79.6818C42.8569 79.1362 42.8611 78.3812 42.8665 77.4576C42.8691 75.5796 42.8336 72.9847 42.6878 70.1237C42.6158 68.6926 42.5221 67.3308 42.423 66.0932C42.3296 64.8549 42.2218 63.7423 41.9589 62.8449C41.7072 61.945 41.3011 61.289 40.9407 60.9149C40.5815 60.5372 40.3186 60.3987 40.3317 60.3808C40.3317 60.3808 40.6061 60.4985 40.9873 60.8698C41.3692 61.2366 41.8022 61.9015 42.0718 62.8113C42.3532 63.7183 42.4741 64.8447 42.5758 66.0804C42.6836 67.319 42.7821 68.682 42.8541 70.1154C43.0002 72.9806 43.0168 75.579 42.9842 77.4585C42.9682 78.3981 42.9423 79.1583 42.9187 79.6837C42.9049 79.9319 42.8934 80.1324 42.8851 80.2879C42.8755 80.426 42.8678 80.4986 42.8621 80.4983" fill="#17282F"/>
<path d="M69.9005 86.2644C69.8826 86.2846 69.6696 85.9337 69.0597 85.5839C68.7569 85.4105 68.3593 85.2468 67.8803 85.1125C67.4018 84.9766 66.8428 84.8707 66.2259 84.7444C63.7589 84.2416 60.352 83.5409 56.5766 82.8361C52.8 82.1293 49.3685 81.5613 46.883 81.1625C45.6514 80.9649 44.6494 80.804 43.9388 80.6899C43.603 80.6336 43.3363 80.5891 43.1393 80.5562C42.9567 80.5239 42.861 80.504 42.862 80.4983C42.8626 80.4925 42.9599 80.5012 43.1441 80.5229C43.3424 80.5485 43.6104 80.5824 43.9484 80.6259C44.6462 80.7186 45.6555 80.8603 46.9009 81.0458C49.3918 81.4155 52.8285 81.9653 56.607 82.6723C60.3846 83.3778 63.789 84.0968 66.2502 84.6293C66.8649 84.7629 67.4245 84.8771 67.9065 85.0233C68.3884 85.1675 68.7895 85.3427 69.0927 85.5279C69.3971 85.7118 69.6024 85.9014 69.7259 86.0409C69.7921 86.1068 69.8305 86.1675 69.8608 86.204C69.8893 86.2424 69.9027 86.2628 69.9005 86.2644" fill="#17282F"/>
<path d="M42.9305 80.4982C42.9378 80.5279 42.5051 80.628 41.8466 80.896C41.5166 81.0275 41.136 81.2139 40.7292 81.4464C40.3266 81.6863 39.9 81.9773 39.4836 82.323C39.0713 82.6732 38.7116 83.0438 38.4058 83.3992C38.1062 83.7599 37.857 84.1024 37.6706 84.4046C37.2932 85.0072 37.1205 85.4162 37.092 85.404C37.0815 85.3996 37.1176 85.2947 37.1921 85.1079C37.2635 84.9198 37.3914 84.6566 37.5695 84.3439C37.7461 84.0295 37.9891 83.6736 38.2878 83.301C38.5923 82.9338 38.9559 82.5523 39.3764 82.1954C39.8008 81.843 40.2386 81.5503 40.6531 81.3134C41.0714 81.0837 41.4638 80.9053 41.8041 80.786C42.1431 80.6642 42.4239 80.5836 42.6215 80.5455C42.8185 80.5043 42.9279 80.4867 42.9305 80.4982" fill="#17282F"/>
<path d="M72.7481 86.025C72.7426 86.026 72.7263 85.9502 72.7004 85.8053C72.6739 85.6435 72.639 85.4324 72.5955 85.1702C72.5073 84.6179 72.3905 83.8174 72.2559 82.8273C71.986 80.8464 71.6595 78.1034 71.3857 75.0655C71.1132 72.0261 70.9453 69.2687 70.8574 67.2718C70.8133 66.2734 70.7854 65.4649 70.7739 64.9059C70.7698 64.6401 70.7662 64.4265 70.7637 64.2624C70.7634 64.1153 70.7659 64.0379 70.7717 64.0376C70.7774 64.0373 70.7861 64.1143 70.7973 64.2611C70.8078 64.4246 70.8216 64.6379 70.8385 64.9033C70.8721 65.4806 70.9181 66.2826 70.9751 67.2657C71.0928 69.26 71.2792 72.0136 71.5517 75.0505C71.8251 78.0864 72.1328 80.8291 72.3726 82.8122C72.4922 83.7899 72.5898 84.5875 72.6598 85.1612C72.6902 85.4254 72.7148 85.6377 72.7337 85.8005C72.7487 85.947 72.7542 86.0244 72.7481 86.025" fill="#17282F"/>
<path d="M80.4043 82.5855C80.3954 82.5922 80.3298 82.5171 80.2188 82.3751C80.1056 82.2341 79.9588 82.0179 79.7932 81.7403C79.4612 81.1873 79.0854 80.3651 78.8584 79.4015C78.6342 78.437 78.606 77.5335 78.6585 76.8904C78.6838 76.5683 78.7193 76.3093 78.758 76.1331C78.7944 75.9562 78.8197 75.86 78.8312 75.8619C78.8597 75.8667 78.7963 76.2594 78.7762 76.8965C78.7544 77.5329 78.8008 78.4171 79.0205 79.3638C79.2434 80.3091 79.5943 81.1221 79.8962 81.6827C80.1971 82.2446 80.428 82.5686 80.4043 82.5855" fill="#17282F"/>
<path d="M42.7683 68.6157C42.769 68.6214 42.728 68.6297 42.649 68.6409C42.5697 68.6489 42.453 68.6729 42.3011 68.6745C41.9979 68.694 41.5543 68.6745 41.0193 68.5741C40.4833 68.4765 39.8629 68.2789 39.2006 68.0045C38.5376 67.7301 37.8343 67.3764 37.0975 67.0105C36.3619 66.6466 35.644 66.3351 34.9695 66.1192C34.2944 65.9059 33.6653 65.7815 33.1316 65.7601C32.0567 65.7057 31.4241 65.9961 31.4161 65.9539C31.4139 65.9481 31.4519 65.9306 31.5261 65.9015C31.6016 65.8762 31.7094 65.8234 31.8578 65.7898C32.1491 65.7029 32.5901 65.6325 33.1357 65.6424C33.6823 65.6494 34.3273 65.7639 35.0152 65.9728C35.7031 66.1838 36.431 66.495 37.1714 66.8612C37.9095 67.2277 38.6073 67.584 39.2604 67.8632C39.9128 68.1423 40.5191 68.348 41.043 68.459C42.0932 68.6915 42.7683 68.5766 42.7683 68.6157Z" fill="#FAFAF9"/>
<path d="M46.7218 67.836C46.7295 67.8814 45.8868 68.0627 44.8401 68.2409C43.793 68.4193 42.9385 68.5274 42.9305 68.4817C42.9228 68.4366 43.7652 68.2553 44.8123 68.0771C45.859 67.8987 46.7138 67.7906 46.7218 67.836Z" fill="#FAFAF9"/>
<path d="M42.6253 74.7019C42.6292 74.7125 42.4638 74.7832 42.1603 74.9025C41.8562 75.0195 41.413 75.1804 40.8584 75.3595C39.7506 75.7199 38.1925 76.1436 36.4396 76.4522C35.563 76.6061 34.7223 76.7174 33.955 76.7941C33.1897 76.875 32.4884 76.9144 31.9028 76.8498C31.316 76.7935 30.8571 76.6288 30.5695 76.4698C30.4256 76.3905 30.3191 76.3192 30.2533 76.2636C30.1858 76.2092 30.1525 76.1791 30.1557 76.1743C30.1656 76.1609 30.3079 76.2738 30.599 76.4116C30.8887 76.5495 31.3384 76.6921 31.9134 76.7327C32.4878 76.7807 33.1763 76.7305 33.9387 76.6416C34.7018 76.5568 35.5381 76.4411 36.4108 76.2882C38.1554 75.9812 39.7103 75.5776 40.8235 75.2472C41.3807 75.0828 41.8287 74.9396 42.1389 74.8414C42.4482 74.7413 42.6215 74.6907 42.6253 74.7019" fill="#FAFAF9"/>
<path d="M46.6316 76.3858C46.6326 76.4318 45.8525 76.482 44.8902 76.498C43.9273 76.514 43.1463 76.4897 43.1457 76.4436C43.1451 76.3976 43.9247 76.3474 44.8874 76.3314C45.85 76.3154 46.631 76.3397 46.6316 76.3858Z" fill="#FAFAF9"/>
<path d="M30.1746 90.9549C30.1692 90.9536 30.181 90.8951 30.2085 90.7851C30.2427 90.6572 30.2853 90.4986 30.3371 90.3054C30.3668 90.1992 30.3991 90.0834 30.434 89.959C30.4739 89.834 30.528 89.7019 30.5808 89.5577C30.6927 89.2721 30.7998 88.9379 30.977 88.5938C31.0601 88.4185 31.1471 88.2356 31.2373 88.0456C31.3297 87.8557 31.4481 87.6702 31.559 87.4716C31.773 87.0693 32.0573 86.6746 32.3451 86.2515C32.9537 85.4299 33.7005 84.5818 34.5873 83.8002C35.4847 83.0301 36.4284 82.4077 37.3265 81.9188C37.7854 81.6923 38.2158 81.4656 38.6438 81.3092C38.8558 81.2273 39.056 81.1355 39.2568 81.0703C39.4577 81.007 39.6508 80.9465 39.8357 80.888C40.2012 80.7607 40.5472 80.7006 40.8453 80.6296C40.9953 80.5973 41.1338 80.5621 41.263 80.5397C41.3912 80.5228 41.5102 80.5065 41.6192 80.4918C41.8182 80.4675 41.9809 80.447 42.1124 80.4313C42.2253 80.4189 42.2844 80.4157 42.2851 80.4211C42.2857 80.4268 42.2275 80.4416 42.1165 80.4643C41.9867 80.4886 41.8262 80.519 41.6298 80.5557C41.522 80.5749 41.405 80.5954 41.2783 80.6178C41.1504 80.6446 41.0138 80.6843 40.8661 80.7204C40.5719 80.7997 40.2306 80.8669 39.8705 81.0009C39.6882 81.0613 39.498 81.125 39.3003 81.1915C39.1024 81.259 38.9054 81.3527 38.6965 81.4368C38.275 81.597 37.8509 81.8263 37.3991 82.054C36.5145 82.5456 35.5842 83.1641 34.6967 83.9259C33.8198 84.6988 33.0781 85.5345 32.4689 86.342C32.1811 86.7584 31.8948 87.1463 31.678 87.5416C31.5661 87.7367 31.4458 87.919 31.3512 88.1054C31.2584 88.2922 31.1689 88.4716 31.0835 88.6437C30.9009 88.982 30.787 89.3101 30.6677 89.5906C30.6115 89.7323 30.5533 89.8621 30.5091 89.9849C30.4695 90.1071 30.4327 90.2203 30.3991 90.3246C30.3351 90.5139 30.283 90.6687 30.2408 90.7941C30.2031 90.9009 30.1804 90.9565 30.1746 90.9549" fill="#FAFAF9"/>
<path d="M46.2139 81.1321C46.2481 81.1596 45.5132 81.6111 44.9001 82.7823C44.5957 83.3614 44.3322 84.1028 44.1652 84.9531C43.9951 85.8035 43.9283 86.7604 43.8624 87.7649C43.7965 88.7704 43.7213 89.7346 43.5349 90.5961C43.3513 91.4571 43.0641 92.2063 42.7334 92.7855C42.4012 93.365 42.0375 93.7734 41.7584 94.0188C41.6173 94.1406 41.5047 94.2301 41.4219 94.2828C41.3413 94.3382 41.2978 94.365 41.2943 94.3603C41.2607 94.3318 42.004 93.8927 42.6305 92.7286C42.9413 92.1532 43.2122 91.4139 43.3846 90.5648C43.5598 89.7154 43.6305 88.7588 43.6964 87.754C43.7619 86.7492 43.8339 85.7853 44.0149 84.9227C44.1927 84.0612 44.4726 83.3096 44.7965 82.7263C45.1221 82.1433 45.48 81.7301 45.7556 81.481C45.8944 81.3569 46.0057 81.2654 46.0876 81.2114C46.1672 81.1544 46.2107 81.1273 46.2139 81.1321" fill="#FAFAF9"/>
<path d="M51.6718 94.5619C51.6261 94.5603 51.6789 91.8044 51.7902 88.4074C51.9015 85.0092 52.0291 82.2566 52.0751 82.2579C52.1209 82.2591 52.0681 85.0146 51.9568 88.4129C51.8455 91.8102 51.7179 94.5634 51.6718 94.5619Z" fill="#FAFAF9"/>
<path d="M60.3521 94.0881C60.3412 94.091 60.291 93.9493 60.2101 93.6887C60.1675 93.5586 60.1205 93.3983 60.0799 93.209C60.0377 93.0196 59.9798 92.8058 59.9453 92.5636C59.8557 92.0833 59.7959 91.5028 59.7754 90.8561C59.7652 90.2095 59.8001 89.497 59.9094 88.7579C60.0265 88.0195 60.2069 87.3293 60.4103 86.7153C60.6239 86.1048 60.8548 85.5684 61.0844 85.137C61.1896 84.9164 61.3089 84.7296 61.4061 84.562C61.5014 84.3931 61.5945 84.2544 61.6738 84.1431C61.8293 83.9189 61.9194 83.7983 61.929 83.8047C61.9565 83.8229 61.6121 84.3186 61.1896 85.1895C60.9757 85.6234 60.7589 86.1582 60.5561 86.7639C60.3629 87.3728 60.1896 88.0546 60.0745 88.7831C59.9661 89.5123 59.9274 90.2146 59.929 90.8533C59.9408 91.4919 59.9875 92.0669 60.0617 92.545C60.2037 93.5028 60.3837 94.0788 60.3521 94.0881" fill="#FAFAF9"/>
<path d="M45.6117 58.741C45.5996 58.7682 45.1051 58.5459 44.2759 58.2779C43.4479 58.009 42.2736 57.7212 40.9502 57.6022C39.6262 57.4871 38.4196 57.5648 37.557 57.6844C36.6939 57.8027 36.1681 57.9348 36.1611 57.906C36.1579 57.8948 36.2871 57.8532 36.5234 57.7877C36.7594 57.7192 37.1067 57.6425 37.5394 57.568C38.4042 57.4173 39.6252 57.3198 40.9649 57.4362C42.3039 57.5565 43.4885 57.8664 44.3136 58.1663C44.7268 58.3157 45.0552 58.4522 45.2756 58.561C45.4969 58.6672 45.6165 58.7305 45.6117 58.741" fill="#FAFAF9"/>
<path d="M70.8747 72.1873C70.8731 72.211 70.4199 72.1969 69.6882 72.1688C68.9568 72.1407 67.9465 72.1016 66.8307 72.0735C65.7142 72.046 64.7033 72.0348 63.9713 72.0265C63.2392 72.0185 62.7861 72.0102 62.7854 71.9862C62.7851 71.9747 62.898 71.9616 63.1027 71.9475C63.3074 71.9331 63.6038 71.9197 63.97 71.9088C64.703 71.887 65.7161 71.8794 66.8348 71.9069C67.9529 71.935 68.9644 71.9929 69.6952 72.0511C70.0607 72.0802 70.3559 72.1084 70.5596 72.1327C70.7634 72.1573 70.8756 72.1758 70.8747 72.1873" fill="#FAFAF9"/>
<path d="M77.1896 70.9922C77.1989 71.0204 76.7882 71.1582 76.1649 71.4652C75.5419 71.7706 74.7168 72.2718 73.9253 72.975C73.1357 73.6812 72.5437 74.4436 72.1689 75.0276C71.7925 75.6115 71.6083 76.0039 71.5817 75.9912C71.5712 75.9864 71.6089 75.885 71.6866 75.7043C71.7615 75.5226 71.891 75.269 72.0688 74.9658C72.4222 74.3585 73.0106 73.5696 73.8143 72.8506C74.6202 72.1349 75.4712 71.6405 76.1147 71.3587C76.4364 71.2171 76.7035 71.1176 76.8925 71.0639C77.0805 71.0073 77.1857 70.9814 77.1896 70.9922" fill="#FAFAF9"/>
<path d="M74.075 60.7395C74.0772 60.781 73.4242 60.6381 72.4497 60.9672C71.9639 61.122 71.4136 61.3848 70.8101 61.6963C70.2063 62.004 69.5411 62.3657 68.7828 62.6075C67.2663 63.1025 65.7872 63.0622 64.775 62.8687C64.2655 62.7734 63.8648 62.6468 63.5933 62.5489C63.3234 62.4453 63.1788 62.3772 63.1827 62.3676C63.1935 62.3359 63.7839 62.5902 64.7948 62.7527C65.7984 62.9138 67.2465 62.9337 68.7313 62.4488C69.472 62.2131 70.1311 61.861 70.741 61.5595C71.3496 61.2547 71.9141 60.9982 72.4149 60.8549C72.9135 60.7049 73.3398 60.6678 73.6295 60.6809C73.7747 60.68 73.8866 60.702 73.9618 60.7126C74.0369 60.7248 74.076 60.7337 74.075 60.7395" fill="#FAFAF9"/>
<path d="M72.4797 82.1756C72.4839 82.1861 72.3515 82.2472 72.1075 82.3495C71.986 82.402 71.8356 82.4618 71.6565 82.5194C71.4781 82.5779 71.2773 82.6534 71.0473 82.7109C70.5929 82.844 70.0396 82.961 69.4192 83.0496C68.7978 83.1292 68.1083 83.1756 67.3846 83.1571C66.6605 83.1321 65.9752 83.0445 65.3592 82.9278C64.7452 82.8021 64.1999 82.6524 63.7541 82.4922C63.5283 82.4209 63.3323 82.3339 63.1577 82.2642C62.9824 82.196 62.8359 82.1273 62.7179 82.0678C62.4803 81.9514 62.3517 81.8823 62.3569 81.8718C62.37 81.843 62.8967 82.0966 63.7912 82.3802C64.2376 82.5245 64.7797 82.661 65.388 82.7774C65.9979 82.8839 66.6749 82.9655 67.3894 82.9908C68.1041 83.0087 68.7843 82.9677 69.3997 82.8974C70.0137 82.8177 70.5631 82.7144 71.0173 82.5971C71.9271 82.3675 72.4682 82.1458 72.4797 82.1756" fill="#FAFAF9"/>
<path d="M79.827 91.6393C79.8232 91.6436 79.7807 91.6087 79.7029 91.5376C79.6281 91.4644 79.5066 91.3656 79.3745 91.2153C79.0966 90.9278 78.7307 90.4736 78.3626 89.858C77.6152 88.6363 76.9785 86.6948 76.9376 84.5025C76.8979 82.3105 77.3265 80.3613 77.6629 78.981C77.8346 78.2889 77.9901 77.7334 78.1017 77.3513C78.1551 77.1757 78.1992 77.0308 78.2353 76.9122C78.2676 76.8121 78.2875 76.7606 78.2929 76.7622C78.2987 76.7635 78.2897 76.8182 78.2676 76.9208C78.2398 77.0417 78.2056 77.1891 78.1643 77.3676C78.0671 77.7801 77.9363 78.3344 77.7777 79.0079C77.471 80.3923 77.0649 82.3323 77.1042 84.4987C77.1451 86.6638 77.7534 88.5784 78.4646 89.7995C78.8148 90.4135 79.1618 90.8737 79.4228 91.1721C79.6822 91.4721 79.8376 91.6284 79.827 91.6393" fill="#FAFAF9"/>
<path d="M91.4664 80.7806C91.4418 80.8183 90.9154 80.2411 89.775 79.8298C89.2102 79.6222 88.5124 79.4492 87.7269 79.2976C86.944 79.139 86.069 78.9945 85.1796 78.7105C83.3942 78.1412 81.9928 77.122 81.1267 76.2735C80.6899 75.8482 80.3739 75.4683 80.1695 75.1967C80.0653 75.0624 79.994 74.9508 79.9434 74.8769C79.8939 74.8027 79.8705 74.7618 79.875 74.7586C79.8855 74.7509 80.0032 74.8974 80.2201 75.1561C80.4388 75.4136 80.7653 75.7782 81.2076 76.1878C82.0852 77.0056 83.4744 77.9922 85.2305 78.5522C86.1045 78.8314 86.9731 78.9798 87.7579 79.1473C88.5437 79.3076 89.2486 79.495 89.8172 79.7198C90.3864 79.9437 90.8121 80.2081 91.0775 80.4221C91.2173 80.5206 91.3072 80.62 91.374 80.6798C91.4386 80.7419 91.4703 80.7764 91.4664 80.7806Z" fill="#FAFAF9"/>
<path d="M95.1238 70.1076C95.1154 70.1159 94.9939 70.0094 94.7816 69.8108C94.6767 69.7101 94.5468 69.5885 94.3885 69.4565C94.2309 69.3231 94.0591 69.1629 93.8519 69.0068C93.4499 68.679 92.9462 68.3205 92.3664 67.9562C91.7814 67.6 91.1172 67.2431 90.3922 66.929C89.6637 66.621 88.9467 66.3873 88.2853 66.2098C87.6214 66.0419 87.0141 65.9251 86.4995 65.8608C86.2433 65.8186 86.0089 65.8049 85.8039 65.7831C85.5986 65.7598 85.4214 65.7496 85.2762 65.7432C84.9862 65.7269 84.825 65.7125 84.825 65.7009C84.825 65.6894 84.9858 65.6818 85.2781 65.6786C85.4243 65.675 85.6031 65.6754 85.81 65.6904C86.0172 65.7032 86.2542 65.7086 86.5136 65.7438C87.0342 65.7937 87.6498 65.8995 88.323 66.0607C88.9937 66.2321 89.7209 66.4643 90.4578 66.7755C91.1914 67.0934 91.8614 67.4589 92.4479 67.8261C93.0293 68.2015 93.5311 68.5735 93.9267 68.916C94.1311 69.0791 94.2987 69.247 94.4512 69.3877C94.6047 69.5274 94.7285 69.6563 94.827 69.7644C95.0262 69.9784 95.1321 70.0999 95.1238 70.1076Z" fill="#FAFAF9"/>
<path d="M67.1419 55.4277C67.1502 55.4479 66.9215 55.5672 66.5349 55.7204C66.1482 55.8739 65.6011 56.0555 64.9822 56.2001C64.3631 56.3443 63.7919 56.4233 63.3774 56.4566C62.9626 56.4901 62.7052 56.4841 62.7036 56.4626C62.6998 56.4124 63.7203 56.3264 64.9445 56.0379C66.1697 55.7555 67.123 55.381 67.1419 55.4277Z" fill="#FAFAF9"/>
<path d="M78.4841 100.472C78.6623 101.091 78.1451 101.688 77.5071 101.601C77.1614 101.553 76.8755 101.308 76.7754 100.974L76.5058 99.9671L76.5452 99.9805C76.714 100.585 76.1329 101.139 75.5086 101.078C75.0871 101.068 74.7251 100.466 74.6068 100.145C73.9109 100.227 73.2505 99.8184 72.9815 99.364L71.1043 96.4351L67.6283 93.8923L69.7304 86.3797L77.2132 91.2229C77.5065 91.4509 77.5513 91.5472 78.0185 91.9802L82.8476 96.4208C82.2994 96.7496 81.8354 96.7242 81.0762 96.4208C80.317 96.117 76.9801 93.8668 76.9801 93.8668L78.4841 100.472" fill="#F8A58D"/>
<path d="M72.0841 94.2912C72.0911 94.2822 72.1701 94.3295 72.307 94.4222C72.3844 94.4763 72.4659 94.5333 72.5539 94.5946C72.6485 94.66 72.764 94.7465 72.8625 94.864C72.9629 94.9804 73.0541 95.1266 73.1164 95.2976C73.1749 95.4645 73.236 95.6391 73.2997 95.8212C73.4273 96.1963 73.5645 96.5998 73.7084 97.0235C73.994 97.8788 74.2437 98.6556 74.4164 99.2204C74.5895 99.7848 74.6851 100.138 74.663 100.144C74.6413 100.151 74.5057 99.8108 74.3042 99.2558C74.1027 98.7007 73.8357 97.9303 73.5504 97.0764C73.411 96.652 73.2779 96.2474 73.1545 95.871C73.096 95.6877 73.04 95.5118 72.9863 95.343C72.9348 95.186 72.858 95.0501 72.7714 94.9388C72.6847 94.8246 72.5897 94.7434 72.497 94.6686C72.4151 94.5991 72.3393 94.5345 72.2673 94.4738C72.1426 94.365 72.077 94.3004 72.0841 94.2912" fill="#F68260"/>
<path d="M76.5858 100.127C76.5743 100.13 76.5375 100.019 76.4787 99.8177C76.4118 99.5795 76.3316 99.2941 76.2382 98.961C76.0364 98.2379 75.7617 97.2375 75.414 96.1483C75.0635 95.0622 74.7002 94.0839 74.264 93.483C74.0494 93.1823 73.8259 92.9799 73.6506 92.8715C73.476 92.7618 73.3628 92.7301 73.3682 92.7135C73.3698 92.7081 73.3986 92.7128 73.4533 92.727C73.5089 92.7378 73.5857 92.7688 73.6829 92.8152C73.8761 92.9105 74.1243 93.1097 74.3587 93.4126C74.8355 94.0193 75.2202 95.0066 75.5727 96.0974C75.9222 97.1924 76.1793 98.1998 76.3524 98.9319C76.4381 99.2984 76.502 99.5955 76.5417 99.8023C76.5813 100.009 76.597 100.125 76.5858 100.127" fill="#F68260"/>
<path d="M78.5158 100.581C78.5049 100.585 78.4589 100.465 78.3853 100.246C78.3044 99.9917 78.2056 99.6802 78.0892 99.3138C77.8461 98.5245 77.5212 97.4306 77.1726 96.2198C76.8352 95.028 76.5301 93.9502 76.2947 93.1187C76.1713 92.7311 75.9669 92.466 75.7827 92.3371C75.6007 92.2044 75.4684 92.1868 75.4728 92.1714C75.4735 92.1673 75.5067 92.165 75.5675 92.1784C75.6279 92.1919 75.7175 92.22 75.8192 92.2831C76.0264 92.4017 76.2637 92.6809 76.4057 93.0788C76.6692 93.8699 76.9791 94.9624 77.3325 96.1738C77.6814 97.3843 77.9881 98.4831 78.2024 99.281C78.2986 99.6533 78.3805 99.9696 78.4477 100.228C78.502 100.453 78.5267 100.578 78.5158 100.581Z" fill="#F68260"/>
</svg>
