<svg width="120" height="120" viewBox="0 0 120 120" fill="none" xmlns="http://www.w3.org/2000/svg">
<mask id="mask0" mask-type="alpha" maskUnits="userSpaceOnUse" x="0" y="0" width="120" height="120">
<path d="M120 60.0002C120 93.1373 93.1369 120 59.9999 120C26.863 120 0 93.1373 0 60.0002C0 26.8632 26.863 0 59.9999 0C93.1369 0 120 26.8632 120 60.0002Z" fill="#76B2A4"/>
</mask>
<g mask="url(#mask0)">
<circle cx="60" cy="60" r="60" fill="#17B978"/>
<path d="M60.1546 31.1111C44.0344 31.1111 39.872 42.6578 40.2114 55.7627C40.5511 68.866 38.5596 79.3215 38.5596 79.3215L60.1546 79.4806V31.1111Z" fill="#431616"/>
<path d="M51.3324 86.4753C46.6271 91.4746 40.9214 93.7808 32.815 94.9579C23.0577 96.3743 21.7778 105.511 21.7778 108.051C21.7778 110.59 21.7778 120 21.7778 120H60.1547V86.4753H51.3324Z" fill="#ECEBE9"/>
<path d="M60.1546 75.7237H51.1803V87.3312C51.1803 89.0552 54.0263 94.5229 60.1546 94.5229V75.7237Z" fill="#E9BA98"/>
<path d="M60.1546 39.1978C46.9214 39.1978 44.9607 48.7654 44.9607 60.5676C44.9607 72.6537 55.1351 81.937 60.1546 81.937V39.1978Z" fill="#EBCCAF"/>
<path d="M44.6637 58.8521C43.7321 55.3723 42.458 55.3723 41.9186 56.2546C41.3796 57.1369 43.242 60.5677 43.2909 63.3613C43.3403 66.1553 44.1692 66.5762 45.2005 65.5568C46.2321 64.5379 44.6637 58.8521 44.6637 58.8521Z" fill="#EBCCAF"/>
<path d="M47.292 89.9546L47.0351 89.6271L47.3022 89.948C47.2986 89.9502 47.2951 89.9524 47.292 89.9546Z" fill="#64988E"/>
<path d="M57.7044 103.238L47.2921 89.9548C47.2951 89.9526 47.2987 89.9503 47.3022 89.9481L57.7044 102.456L60.1547 94.523L57.7044 103.238Z" fill="#CBC8C4"/>
<path d="M51.1803 86.5868L47.0351 89.6271L57.7044 102.456L60.1546 94.5228L51.1803 86.5868Z" fill="#F7F5F5"/>
<path d="M60.1547 73.1892C58.6184 73.1892 58.0887 73.1892 55.2546 73.1892C55.2546 73.1892 57.9556 71.8557 58.9362 71.849C59.6069 71.8442 59.6664 72.2765 60.1547 72.2765V73.1892Z" fill="#E3527C"/>
<path d="M60.1547 75.1283C57.8238 75.1283 57.659 74.1588 56.1681 73.574C55.5344 73.3258 55.2546 73.1892 55.2546 73.1892H60.1547V75.1283Z" fill="#AF2751"/>
<path d="M45.2741 65.2505C45.2741 65.6991 44.911 66.0623 44.4623 66.0623C44.0142 66.0623 43.6506 65.6991 43.6506 65.2505C43.6506 64.8023 44.0142 64.4387 44.4623 64.4387C44.911 64.4387 45.2741 64.8023 45.2741 65.2505Z" fill="#A7FF83"/>
<path d="M60.1546 31.1111C76.2748 31.1111 80.4372 42.6578 80.0979 55.7627C79.7585 68.866 81.7496 79.3215 81.7496 79.3215L60.1546 79.4806V31.1111Z" fill="#381514"/>
<path d="M68.9769 86.4753C73.6822 91.4746 79.3879 93.7808 87.4945 94.9579C97.252 96.3743 98.5318 105.511 98.5318 108.051C98.5318 110.59 98.5318 120 98.5318 120H60.1546V86.4753H68.9769Z" fill="#DFDEDB"/>
<path d="M60.1546 75.7237H69.1289V87.3312C69.1289 89.0552 66.2829 94.5229 60.1546 94.5229V75.7237Z" fill="#DBA986"/>
<path d="M60.1546 39.1978C73.3883 39.1978 75.3485 48.7654 75.3485 60.5676C75.3485 72.6537 65.1741 81.937 60.1546 81.937V39.1978Z" fill="#DBBBA2"/>
<path d="M75.646 58.8521C76.5772 55.3723 77.8517 55.3723 78.3906 56.2546C78.9296 57.1369 77.0672 60.5677 77.0183 63.3613C76.9694 66.1553 76.1404 66.5762 75.1088 65.5568C74.0775 64.5379 75.646 58.8521 75.646 58.8521Z" fill="#EBCCAF"/>
<path d="M73.0173 89.9546C72.2527 89.4302 71.5163 88.8599 70.8036 88.2376L73.2742 89.6271L73.0173 89.9546Z" fill="#64988E"/>
<path d="M62.6049 103.238L60.1546 94.523C66.2829 94.523 69.1289 89.0553 69.1289 87.3313V87.296L70.8036 88.2378C71.5162 88.8601 72.2526 89.4303 73.0172 89.9548L62.6049 103.238Z" fill="#BFBCB8"/>
<path d="M60.1546 94.5229L68.9769 87.2105L69.1289 87.296V87.3312C69.1289 89.0552 66.2829 94.5229 60.1546 94.5229Z" fill="#BC9271"/>
<path d="M69.1289 86.5868L73.2741 89.6271L62.6049 102.456L60.1546 94.5228L69.1289 86.5868Z" fill="#F7F5F5"/>
<path d="M60.1546 73.1892C61.6909 73.1892 62.2206 73.1892 65.0552 73.1892C65.0552 73.1892 62.3541 71.8557 61.3731 71.849C60.7024 71.8442 60.6429 72.2765 60.1546 72.2765V73.1892Z" fill="#A7FF83"/>
<path d="M60.1546 75.1283C62.4859 75.1283 62.6503 74.1588 64.1411 73.574C64.7749 73.3258 65.0552 73.1892 65.0552 73.1892H60.1546V75.1283Z" fill="#A22545"/>
<path d="M75.0352 65.2505C75.0352 65.6991 75.3987 66.0623 75.8469 66.0623C76.2951 66.0623 76.6587 65.6991 76.6587 65.2505C76.6587 64.8023 76.2951 64.4387 75.8469 64.4387C75.3987 64.4387 75.0352 64.8023 75.0352 65.2505Z" fill="#A7FF83"/>
<path d="M59.13 106.212C59.13 106.739 58.7025 107.166 58.1759 107.166C57.6488 107.166 57.2218 106.739 57.2218 106.212C57.2218 105.685 57.6488 105.258 58.1759 105.258C58.7025 105.258 59.13 105.685 59.13 106.212Z" fill="#534E50"/>
<path d="M59.13 111.886C59.13 112.413 58.7025 112.84 58.1759 112.84C57.6488 112.84 57.2218 112.413 57.2218 111.886C57.2218 111.359 57.6488 110.932 58.1759 110.932C58.7025 110.932 59.13 111.359 59.13 111.886Z" fill="#534E50"/>
<path d="M59.13 117.56C59.13 118.087 58.7025 118.514 58.1759 118.514C57.6488 118.514 57.2218 118.087 57.2218 117.56C57.2218 117.033 57.6488 116.606 58.1759 116.606C58.7025 116.606 59.13 117.033 59.13 117.56Z" fill="#534E50"/>
<path d="M60.1546 31.111C51.6263 31.111 45.9554 34.8327 44.3288 41.5996C41.979 51.3743 44.9502 60.6434 45.2657 61.5288C45.2657 61.5288 44.6514 58.2535 46.4714 54.2229C46.0982 56.7552 46.1916 58.6524 46.1916 58.6524C46.1916 58.6524 54.1008 56.5489 60.1546 52.7158V31.111Z" fill="#631E1C"/>
<path d="M66.7139 45.409C69.2656 46.5588 71.4122 48.6142 73.2741 51.9745C75.7866 56.5084 75.0435 61.5288 75.0435 61.5288C75.3591 60.6434 78.3302 51.3743 75.9809 41.5996C74.3543 34.8327 68.683 31.111 60.1546 31.111V52.7158C63.2941 50.7282 65.9352 48.2757 66.7139 45.409Z" fill="#4D1917"/>
</g>
</svg>
