<svg width="120" height="120" viewBox="0 0 120 120" fill="none" xmlns="http://www.w3.org/2000/svg">
<mask id="mask0" mask-type="alpha" maskUnits="userSpaceOnUse" x="0" y="0" width="120" height="120">
<path d="M120 60.0002C120 93.1373 93.1369 120 59.9999 120C26.863 120 0 93.1373 0 60.0002C0 26.8632 26.863 0 59.9999 0C93.1369 0 120 26.8632 120 60.0002Z" fill="#76B2A4"/>
</mask>
<g mask="url(#mask0)">
<circle cx="60" cy="60" r="60" fill="#EF3F51"/>
<path d="M60.0676 68.2194H49.3428V82.0915C49.3428 84.1518 52.7439 90.686 60.0676 90.686V68.2194Z" fill="#EDBD9F"/>
<path d="M60.0677 40.7406C47.9843 40.7406 46.194 49.0732 46.194 59.7509C46.194 71.5659 53.2622 79.408 60.0677 79.408V40.7406Z" fill="#F5D0B5"/>
<path d="M46.3566 58.3289C45.5064 55.1515 44.343 55.1515 43.8505 55.9571C43.3583 56.7627 43.7293 58.689 44.5651 61.7654C45.2343 64.2273 45.9055 65.3818 46.8472 64.451C47.7888 63.5203 46.3566 58.3289 46.3566 58.3289Z" fill="#F5D0B5"/>
<path d="M44.679 84.5547L44.5739 84.5712C43.3728 84.7498 25.6054 86.4685 23.8011 93.6844C22.6932 98.1153 20.4445 120 20.4445 120H55.6763H57.5929H60.0677V91.1251L44.679 84.5547Z" fill="#F2F1F0"/>
<path d="M60.0677 99.0887H56.7961L56.0935 120H60.0677V99.0887Z" fill="#991E3A"/>
<path d="M60.0677 91.1252H57.1889L54.7053 95.4973L56.7962 99.0887H60.0677V91.1252Z" fill="#C62444"/>
<path d="M56.7949 99.1145L44.6789 84.5547L55.2155 96.3741L56.7961 99.0887L56.7949 99.1145Z" fill="#BEBCBA"/>
<path d="M57.3865 99.8251L56.7949 99.1144L56.7961 99.0887H57.6134L57.3865 99.8251Z" fill="#791A2F"/>
<path d="M57.6134 99.0887H56.7961L55.2155 96.3741L57.3865 98.8091L60.0677 91.1252L57.6134 99.0887Z" fill="#9B1F37"/>
<path d="M53.3073 84.5547L49.3428 81.0639C47.4314 82.1383 44.6789 84.5547 44.6789 84.5547L57.3864 98.8091L60.0676 91.1252V90.5079L53.3073 84.5547Z" fill="white"/>
<path d="M60.0677 68.2194H70.793V82.0915C70.793 84.1518 67.3915 90.686 60.0677 90.686V68.2194Z" fill="#DCAD95"/>
<path d="M60.0677 40.7406C72.1515 40.7406 73.9414 49.0732 73.9414 59.7509C73.9414 71.5659 66.8732 79.408 60.0677 79.408V40.7406Z" fill="#DFBBA5"/>
<path d="M73.7788 58.3289C74.6291 55.1515 75.7928 55.1515 76.285 55.9571C76.7771 56.7627 76.4061 58.689 75.5703 61.7654C74.9011 64.2273 74.2303 65.3818 73.2883 64.451C72.3467 63.5203 73.7788 58.3289 73.7788 58.3289Z" fill="#DFBBA5"/>
<path d="M75.4568 84.5547L75.5615 84.5712H75.5619C76.763 84.7498 94.53 86.4685 96.3344 93.6844C97.4422 98.1153 99.6912 120 99.6912 120H64.4592H62.5425H60.0677V91.1251L75.4568 84.5547Z" fill="#E2DCD4"/>
<path d="M60.0677 99.0887H63.3393L64.0423 120H60.0677V99.0887Z" fill="#86152F"/>
<path d="M60.0677 91.1252H62.9465L65.4306 95.4973L63.3393 99.0887H60.0677V91.1252Z" fill="#AF2144"/>
<path d="M60.0677 91.1251L60.2693 90.8998L60.5112 90.6781C60.7542 90.6692 60.9932 90.6531 61.2274 90.6298L60.0677 91.1251ZM67.2329 88.0661C69.6405 86.0061 70.793 83.2911 70.793 82.0916V81.0638C72.7044 82.1829 75.4568 84.5547 75.4568 84.5547L67.2329 88.0661Z" fill="#5C8C84"/>
<path d="M60.5112 90.6781L67.0297 84.7L70.793 81.0639V82.0916C70.793 83.2912 69.6405 86.0062 67.2329 88.0661L61.2274 90.6298C60.9933 90.6532 60.7542 90.6692 60.5112 90.6781Z" fill="#AD8A77"/>
<path d="M63.3405 99.1149L63.3393 99.0887L65.4306 95.4973L62.9465 91.1251H60.0677L61.2274 90.6298L67.2329 88.0661L75.4568 84.5547L63.3405 99.1149Z" fill="#B0ACA4"/>
<path d="M62.7488 99.8251L62.5218 99.0887H63.3391L63.3403 99.1148L62.7488 99.8251Z" fill="#6A1226"/>
<path d="M63.3393 99.0887H62.522L60.0677 91.1252H62.9465L65.4306 95.4973L63.3393 99.0887Z" fill="#891C36"/>
<path d="M66.8285 84.5547L70.793 81.0639C72.7044 82.1383 75.4568 84.5547 75.4568 84.5547L62.7489 98.8091L60.0677 91.1252V90.5079L66.8285 84.5547Z" fill="white"/>
<path d="M51.847 51.5708C51.847 51.5708 55.9431 50.9664 60.0677 49.4107V48.1065C56.4107 50.3652 51.847 51.5708 51.847 51.5708Z" fill="#534D42"/>
<path d="M49.4016 49.4051C49.5102 49.247 49.6229 49.0916 49.742 48.9395C51.2909 46.9581 53.8622 45.402 56.4501 44.6004C54.4453 47.045 51.1086 48.682 49.4016 49.4051ZM45.617 42.5755C43.4714 51.5004 45.885 59.6543 46.1727 60.4632C47.3944 60.7074 46.3224 54.215 49.2262 49.6735C51.2442 49.2989 56.2449 48.2096 60.0677 46.0491V32.9979C52.2804 32.9979 47.1023 36.3966 45.617 42.5755Z" fill="#534D42"/>
<path d="M52.8527 50.3186C52.8527 50.3186 56.6244 49.5943 60.0678 47.6885V46.0668C57.1753 48.8309 52.8527 50.3186 52.8527 50.3186Z" fill="#534D42"/>
<path d="M60.0677 46.0492V46.0669L60.1124 46.025L60.0677 46.0492Z" fill="#534D42"/>
<path d="M67.0023 45.1063C68.6683 45.7879 69.9962 46.8088 70.9898 48.2498C75.4568 54.7285 72.6738 60.7207 73.9627 60.4632C74.2508 59.6543 78.524 52.0606 75.4568 42.1884C74.5691 39.3318 71.628 38.9221 71.628 38.9221C72.0996 35.5644 69.7588 32.4068 69.7588 32.4068C69.7588 32.4068 70.1274 33.8852 70.0964 35.4707C69.321 33.7975 67.8925 31.9549 65.2801 31.3271C65.2801 31.3271 66.6337 32.5818 67.6868 34.2743L67.6309 34.2462C65.876 32.468 64.0785 31.0173 60.648 31.1159C60.648 31.1159 61.1747 31.9018 63.0612 33.1404C62.1051 33.043 61.1035 32.9979 60.0677 32.9979V46.0491L60.1124 46.0249L60.0677 46.0668V47.6885C61.3594 46.9738 62.6053 46.0937 63.5875 45.0221C62.7614 46.202 61.4822 47.2329 60.0677 48.1066V49.4108C62.7336 48.4052 65.4108 47.0032 67.0023 45.1063Z" fill="#423C34"/>
</g>
</svg>
