<?xml version="1.0" encoding="UTF-8" standalone="no"?>
<svg width="120" xmlns="http://www.w3.org/2000/svg" fill="none" viewBox="0 0 120 120" height="120">
 <mask id="mask0" mask-type="alpha" height="120" width="120" y="0" x="0" maskUnits="userSpaceOnUse">
  <path d="m120 60c0 33.137-26.863 60-60 60s-60-26.863-60-60 26.863-60 60-60 60 26.863 60 60z" fill="#76B2A4"/>
 </mask>
 <g mask="url(#mask0)">
  <circle cy="60" cx="60" r="60" fill="#17B978"/>
  <path d="m60.155 31.111c-16.121 0-20.283 11.547-19.944 24.652 0.34 13.103-1.651 23.559-1.651 23.559l21.595 0.159v-48.37z" fill="#431616"/>
  <path d="m51.332 86.475c-4.705 5-10.411 7.306-18.517 8.483-9.757 1.416-11.037 10.552-11.037 13.092v11.95h38.377v-33.525h-8.823z" fill="#ECEBE9"/>
  <path d="m60.155 75.724h-8.975v11.607c0 1.724 2.846 7.192 8.975 7.192v-18.799z" fill="#E9BA98"/>
  <path d="m60.155 39.198c-13.234 0-15.194 9.567-15.194 21.37 0 12.086 10.174 21.369 15.194 21.369v-42.739z" fill="#EBCCAF"/>
  <path d="m44.664 58.852c-0.932-3.48-2.206-3.48-2.745-2.597-0.539 0.882 1.323 4.313 1.372 7.106 0.049 2.794 0.878 3.215 1.909 2.196 1.032-1.019-0.536-6.705-0.536-6.705z" fill="#EBCCAF"/>
  <path d="m47.292 89.955l-0.257-0.328 0.267 0.321c-0.003 0.002-0.007 0.004-0.01 0.007z" fill="#64988E"/>
  <path d="m57.704 103.24l-10.412-13.285c0.003-0.002 0.007-0.005 0.01-0.007l10.402 12.512 2.451-7.937-2.451 8.717z" fill="#CBC8C4"/>
  <path d="m51.18 86.587l-4.145 3.04 10.669 12.833 2.451-7.937-8.975-7.936z" fill="#F7F5F5"/>
  <path d="m60.155 73.189h-4.9s2.701-1.333 3.681-1.34c0.671-0.005 0.73 0.427 1.219 0.427v0.913z" fill="#E3527C"/>
  <path d="m60.155 75.128c-2.331 0-2.496-0.969-3.987-1.554-0.634-0.248-0.913-0.385-0.913-0.385h4.9v1.939z" fill="#AF2751"/>
  <path d="m45.274 65.25c0 0.449-0.363 0.812-0.812 0.812-0.448 0-0.811-0.363-0.811-0.812 0-0.448 0.363-0.811 0.811-0.811 0.449 0 0.812 0.363 0.812 0.811z" fill="#A7FF83"/>
  <path d="m60.155 31.111c16.12 0 20.282 11.547 19.943 24.652-0.34 13.103 1.652 23.559 1.652 23.559l-21.595 0.159v-48.37z" fill="#381514"/>
  <path d="m68.977 86.475c4.705 5 10.411 7.306 18.517 8.483 9.758 1.416 11.038 10.552 11.038 13.092v11.95h-38.377v-33.525h8.822z" fill="#DFDEDB"/>
  <path d="m60.155 75.724h8.974v11.607c0 1.724-2.846 7.192-8.974 7.192v-18.799z" fill="#DBA986"/>
  <path d="m60.155 39.198c13.233 0 15.193 9.567 15.193 21.37 0 12.086-10.174 21.369-15.193 21.369v-42.739z" fill="#DBBBA2"/>
  <path d="m75.646 58.852c0.931-3.48 2.206-3.48 2.745-2.597 0.539 0.882-1.324 4.313-1.373 7.106-0.049 2.794-0.878 3.215-1.909 2.196s0.537-6.705 0.537-6.705z" fill="#EBCCAF"/>
  <path d="m73.017 89.955c-0.764-0.525-1.501-1.095-2.213-1.717l2.47 1.389-0.257 0.328z" fill="#64988E"/>
  <path d="m62.605 103.24l-2.45-8.717c6.128 0 8.974-5.468 8.974-7.192v-0.035l1.675 0.942c0.712 0.622 1.449 1.192 2.213 1.717l-10.412 13.285z" fill="#BFBCB8"/>
  <path d="m60.155 94.523l8.822-7.313 0.152 0.086v0.035c0 1.724-2.846 7.192-8.974 7.192z" fill="#BC9271"/>
  <path d="m69.129 86.587l4.145 3.04-10.669 12.833-2.45-7.937 8.974-7.936z" fill="#F7F5F5"/>
  <path d="m60.155 73.189h4.9s-2.701-1.333-3.682-1.34c-0.671-0.005-0.73 0.427-1.218 0.427v0.913z" fill="#A7FF83"/>
  <path d="m60.155 75.128c2.331 0 2.495-0.969 3.986-1.554 0.634-0.248 0.914-0.385 0.914-0.385h-4.9v1.939z" fill="#A22545"/>
  <path d="m75.035 65.25c0 0.449 0.364 0.812 0.812 0.812s0.812-0.363 0.812-0.812c0-0.448-0.364-0.811-0.812-0.811s-0.812 0.363-0.812 0.811z" fill="#A7FF83"/>
  <path d="m59.13 106.21c0 0.53-0.428 0.96-0.954 0.96-0.527 0-0.954-0.43-0.954-0.96s0.427-0.95 0.954-0.95c0.526 0 0.954 0.42 0.954 0.95z" fill="#534E50"/>
  <path d="m59.13 111.89c0 0.52-0.428 0.95-0.954 0.95-0.527 0-0.954-0.43-0.954-0.95 0-0.53 0.427-0.96 0.954-0.96 0.526 0 0.954 0.43 0.954 0.96z" fill="#534E50"/>
  <path d="m59.13 117.56c0 0.53-0.428 0.95-0.954 0.95-0.527 0-0.954-0.42-0.954-0.95s0.427-0.95 0.954-0.95c0.526 0 0.954 0.42 0.954 0.95z" fill="#534E50"/>
  <path d="m60.155 31.111c-8.529 0-14.2 3.722-15.826 10.489-2.35 9.774 0.621 19.043 0.937 19.929 0 0-0.615-3.275 1.205-7.306-0.373 2.532-0.279 4.429-0.279 4.429s7.909-2.103 13.963-5.936v-21.605z" fill="#631E1C"/>
  <path d="m66.714 45.409c2.552 1.15 4.698 3.205 6.56 6.565 2.513 4.534 1.77 9.555 1.77 9.555 0.315-0.886 3.286-10.155 0.937-19.929-1.627-6.767-7.298-10.489-15.826-10.489v21.605c3.139-1.988 5.78-4.44 6.559-7.307z" fill="#4D1917"/>
 </g>
</svg>
